{
.appVersion = "3148";
.formatVersion = 3;
DisplayStrings = (
"₦"
);
axes = (
{
name = Weight;
tag = wght;
}
);
customParameters = (
{
name = fsType;
value = (
);
},
{
name = "Use Typo Metrics";
value = 1;
},
{
name = "Write lastChange";
value = 0;
},
{
name = "Use Line Breaks";
value = 1;
},
{
name = glyphOrder;
value = (
A,
AE,
B,
C,
D,
E,
Eth,
F,
G,
H,
I,
J,
I_J.loclNLD,
K,
L,
Lslash,
M,
N,
Eng,
O,
Oslash,
OE,
P,
Thorn,
Q,
R,
S,
Germandbls,
Schwa,
T,
U,
Uhorn,
V,
W,
X,
Y,
Z,
a,
ae,
b,
c,
d,
eth,
e,
f,
g,
h,
i,
idotless,
i_j.loclNLD,
j,
jdotless,
k,
l,
lslash,
m,
n,
eng,
o,
oslash,
oe,
p,
thorn,
q,
r,
s,
germandbls,
schwa,
t,
u,
uhorn,
v,
w,
x,
y,
z
);
},
{
name = "Variable Font Origin";
value = "086393EE-48A8-42B6-AE05-10B6A30445E6";
},
{
name = "Axis Mappings";
value = {
wght = {
100 = 30;
200 = 47;
300 = 59;
400 = 82;
500 = 105;
600 = 115;
700 = 137;
800 = 170;
900 = 200;
};
};
}
);
date = "2016-12-06 21:35:03 +0000";
familyName = Rokkitt;
featurePrefixes = (
{
automatic = 1;
code = "languagesystem DFLT dflt;

languagesystem latn dflt;
languagesystem latn AZE;
languagesystem latn CRT;
languagesystem latn KAZ;
languagesystem latn TAT;
languagesystem latn TRK;
languagesystem latn ROM;
languagesystem latn MOL;
languagesystem latn NLD;
languagesystem latn CAT;
";
name = Languagesystems;
}
);
features = (
{
automatic = 1;
code = "feature locl;
feature sups;
feature frac;
feature ordn;
";
tag = aalt;
},
{
automatic = 1;
code = "lookup ccmp_Other_1 {
	@CombiningTopAccents = [acutecomb brevecomb breveinvertedcomb caroncomb circumflexcomb commaturnedabovecomb dblgravecomb dieresiscomb dotaccentcomb gravecomb hookabovecomb hungarumlautcomb macroncomb ringcomb tildecomb];
	@CombiningNonTopAccents = [brevebelowcomb cedillacomb dieresisbelowcomb dotbelowcomb macronbelowcomb ogonekcomb horncomb strokeshortcomb];
	sub [i j]' @CombiningTopAccents by [idotless jdotless];
	sub [i j]' @CombiningNonTopAccents @CombiningTopAccents by [idotless jdotless];
} ccmp_Other_1;


glyphs = (
{
color = 3;
glyphname = A;
kernLeft = A;
kernRight = A;
layers = (
{
anchors = (
{
name = bottom;
pos = (303,0);
},
{
name = ogonek;
pos = (554,0);
},
{
name = top;
pos = (303,583);
}
);
background = {
anchors = (
{
name = bottom;
pos = (303,0);
},
{
name = ogonek;
pos = (554,0);
},
{
name = top;
pos = (303,583);
}
);
shapes = (
{
closed = 1;
nodes = (
(187,0,l),
(187,22,l),
(107,22,l),
(189,249,l),
(183,243,l),
(431,243,l),
(416,249,l),
(498,22,l),
(418,22,l),
(418,0,l),
(604,0,l),
(604,22,l),
(529,22,l),
(331,561,l),
(411,561,l),
(411,583,l),
(195,583,l),
(195,561,l),
(275,561,l),
(77,22,l),
(2,22,l),
(2,0,l)
);
},
{
closed = 1;
nodes = (
(301,558,l),
(304,558,l),
(414,256,l),
(416,264,l),
(186,264,l),
(191,256,l)
);
}
);
};
layerId = "98C086B7-81AA-4491-8494-0C6A76849168";
shapes = (
{
closed = 1;
nodes = (
(187,0,l),
(187,22,l),
(107,22,l),
(189,249,l),
(183,243,l),
(431,243,l),
(416,249,l),
(498,22,l),
(418,22,l),
(418,0,l),
(604,0,l),
(604,22,l),
(529,22,l),
(331,561,l),
(411,561,l),
(411,583,l),
(195,583,l),
(195,561,l),
(275,561,l),
(77,22,l),
(2,22,l),
(2,0,l)
);
},
{
closed = 1;
nodes = (
(301,558,l),
(304,558,l),
(414,256,l),
(416,264,l),
(186,264,l),
(191,256,l)
);
}
);
width = 606;
},
{
anchors = (
{
name = bottom;
pos = (361,0);
},
{
name = ogonek;
pos = (654,0);
},
{
name = top;
pos = (362,583);
}
);
background = {
anchors = (
{
name = bottom;
pos = (343,0);
},
{
name = ogonek;
pos = (610,0);
},
{
name = top;
pos = (360,583);
}
);
shapes = (
{
closed = 1;
nodes = (
(1288,0,l),
(1288,120,l),
(1238,120,l),
(1264,200,l),
(1434,200,l),
(1458,120,l),
(1398,120,l),
(1398,0,l),
(1715,0,l),
(1715,120,l),
(1661,120,l),
(1526,463,l),
(1580,463,l),
(1580,583,l),
(1139,583,l),
(1139,463,l),
(1193,463,l),
(1059,120,l),
(1005,120,l),
(1005,0,l)
);
},
{
closed = 1;
nodes = (
(1349,463,l),
(1354,463,l),
(1400,310,l),
(1299,310,l)
);
},
{
closed = 1;
nodes = (
(303,0,l),
(303,120,l),
(248,120,l),
(274,200,l),
(448,200,l),
(474,120,l),
(419,120,l),
(419,0,l),
(717,0,l),
(717,120,l),
(667,120,l),
(543,463,l),
(598,463,l),
(598,583,l),
(128,583,l),
(128,463,l),
(183,463,l),
(59,120,l),
(9,120,l),
(9,0,l)
);
},
{
closed = 1;
nodes = (
(359,463,l),
(364,463,l),
(413,310,l),
(309,310,l)
);
}
);
};
layerId = "EFCDB4D9-E20B-4A8D-9DB5-150AD166B0AE";
shapes = (
{
closed = 1;
nodes = (
(303,0,l),
(303,120,l),
(248,120,l),
(288,243,l),
(229,195,l),
(493,195,l),
(434,243,l),
(474,120,l),
(419,120,l),
(419,0,l),
(723,0,l),
(723,120,l),
(673,120,l),
(549,463,l),
(604,463,l),
(604,583,l),
(121,583,l),
(121,463,l),
(176,463,l),
(52,120,l),
(2,120,l),
(2,0,l)
);
},
{
closed = 1;
nodes = (
(359,463,l),
(364,463,l),
(427,267,l),
(458,315,l),
(264,315,l),
(295,267,l)
);
}
);
width = 725;
},
{
anchors = (
{
name = bottom;
pos = (334,0);
},
{
name = ogonek;
pos = (561,0);
},
{
name = top;
pos = (338,563);
}
);
associatedMasterId = "98C086B7-81AA-4491-8494-0C6A76849168";
layerId = "013A18C8-E3C2-4454-B8CD-883DFB5D2BE8";
name = "Original Regular";
shapes = (
{
closed = 1;
nodes = (
(250,0,l),
(250,53,l),
(175,53,l),
(231,217,l),
(435,217,l),
(492,53,l),
(417,53,l),
(417,0,l),
(646,0,l),
(646,53,l),
(578,53,l),
(410,510,l),
(475,510,l),
(475,563,l),
(200,563,l),
(200,510,l),
(263,510,l),
(100,53,l),
(28,53,l),
(28,0,l)
);
},
{
closed = 1;
nodes = (
(331,509,l),
(337,509,l),
(419,270,l),
(247,270,l)
);
}
);
width = 675;
},
{
anchors = (
{
name = bottom;
pos = (332,0);
},
{
name = ogonek;
pos = (604,0);
},
{
name = top;
pos = (333,583);
}
);
background = {
anchors = (
{
name = bottom;
pos = (332,0);
},
{
name = ogonek;
pos = (604,0);
},
{
name = top;
pos = (333,583);
}
);
shapes = (
{
closed = 1;
nodes = (
(245,0,l),
(245,71,l),
(178,71,l),
(239,246,l),
(206,219,l),
(462,219,l),
(425,246,l),
(486,71,l),
(419,71,l),
(419,0,l),
(664,0,l),
(664,71,l),
(601,71,l),
(440,512,l),
(508,512,l),
(508,583,l),
(158,583,l),
(158,512,l),
(226,512,l),
(65,71,l),
(2,71,l),
(2,0,l)
);
},
{
closed = 1;
nodes = (
(330,511,l),
(334,511,l),
(421,262,l),
(437,290,l),
(225,290,l),
(243,262,l)
);
}
);
};
guides = (
{
angle = 69.9285;
pos = (254,291);
},
{
angle = -69.9285;
pos = (410,291);
}
);
layerId = "086393EE-48A8-42B6-AE05-10B6A30445E6";
shapes = (
{
closed = 1;
nodes = (
(245,0,l),
(245,83,l),
(178,83,l),
(237,245,l),
(206,213,l),
(462,213,l),
(426,245,l),
(486,83,l),
(419,83,l),
(419,0,l),
(664,0,l),
(664,83,l),
(601,83,l),
(440,500,l),
(508,500,l),
(508,583,l),
(158,583,l),
(158,500,l),
(226,500,l),
(65,83,l),
(2,83,l),
(2,0,l)
);
},
{
closed = 1;
nodes = (
(330,499,l),
(334,499,l),
(421,263,l),
(437,291,l),
(225,291,l),
(243,263,l)
);
}
);
width = 665.5;
}
);
metricRight = "=|";
unicode = 65;
userData = {
com.typemytype.robofont.layerData = {
b = {
anchors = (
);
components = (
);
contours = (
);
lib = {
};
name = A;
unicodes = (
);
width = 1383;
};
};
org.robofab.postScriptHintData = {
};
};
},
{
color = 3;
glyphname = AE;
kernLeft = AE;
kernRight = AE;
layers = (
{
anchors = (
{
name = bottom;
pos = (436,0);
},
{
name = top;
pos = (522,583);
}
);
background = {
anchors = (
{
name = bottom;
pos = (436,0);
},
{
name = top;
pos = (522,583);
}
);
shapes = (
{
closed = 1;
nodes = (
(176,0,l),
(176,22,l),
(96,22,l),
(219,249,l),
(211,243,l),
(445,243,l),
(432,249,l),
(464,22,l),
(379,22,l),
(379,0,l),
(861,0,l),
(838,165,l),
(812,165,l),
(832,22,l),
(492,22,l),
(455,286,l),
(671,286,l),
(683,196,l),
(708,196,l),
(681,393,l),
(655,393,l),
(667,308,l),
(452,308,l),
(416,561,l),
(741,561,l),
(761,423,l),
(787,423,l),
(764,583,l),
(279,583,l),
(279,561,l),
(359,561,l),
(65,22,l),
(-10,22,l),
(-10,0,l)
);
},
{
closed = 1;
nodes = (
(385,558,l),
(388,558,l),
(431,256,l),
(435,264,l),
(218,264,l),
(222,256,l)
);
}
);
};
layerId = "98C086B7-81AA-4491-8494-0C6A76849168";
shapes = (
{
closed = 1;
nodes = (
(176,0,l),
(176,22,l),
(96,22,l),
(219,249,l),
(211,243,l),
(445,243,l),
(432,249,l),
(464,22,l),
(379,22,l),
(379,0,l),
(861,0,l),
(838,165,l),
(812,165,l),
(832,22,l),
(492,22,l),
(455,286,l),
(671,286,l),
(683,196,l),
(708,196,l),
(681,393,l),
(655,393,l),
(667,308,l),
(452,308,l),
(416,561,l),
(741,561,l),
(761,423,l),
(787,423,l),
(764,583,l),
(279,583,l),
(279,561,l),
(359,561,l),
(65,22,l),
(-10,22,l),
(-10,0,l)
);
},
{
closed = 1;
nodes = (
(385,558,l),
(388,558,l),
(431,256,l),
(435,264,l),
(218,264,l),
(222,256,l)
);
}
);
width = 901;
},
{
anchors = (
{
name = bottom;
pos = (490,0);
},
{
name = top;
pos = (544,583);
}
);
background = {
anchors = (
{
name = bottom;
pos = (490,0);
},
{
name = top;
pos = (553,583);
}
);
shapes = (
{
closed = 1;
nodes = (
(1612,0,l),
(1612,120,l),
(1562,120,l),
(1599,200,l),
(1742,200,l),
(1747,120,l),
(1697,120,l),
(1697,0,l),
(2277,0,l),
(2262,224,l),
(2141,224,l),
(2149,121,l),
(1947,121,l),
(1940,242,l),
(2006,242,l),
(2011,187,l),
(2110,187,l),
(2092,407,l),
(1992,407,l),
(1997,352,l),
(1933,352,l),
(1927,463,l),
(2122,463,l),
(2131,372,l),
(2252,372,l),
(2236,583,l),
(1512,583,l),
(1512,463,l),
(1566,463,l),
(1383,120,l),
(1329,120,l),
(1329,0,l)
);
},
{
closed = 1;
nodes = (
(1722,463,l),
(1727,463,l),
(1736,310,l),
(1651,310,l)
);
},
{
closed = 1;
nodes = (
(1815,0,l),
(1785,215,l),
(1660,215,l),
(1673,120,l),
(1475,120,l),
(1459,235,l),
(1507,235,l),
(1514,185,l),
(1614,185,l),
(1584,400,l),
(1484,400,l),
(1490,355,l),
(1442,355,l),
(1427,463,l),
(1605,463,l),
(1618,373,l),
(1743,373,l),
(1713,583,l),
(1160,583,l),
(1177,463,l),
(1227,463,l),
(1275,120,l),
(1225,120,l),
(1242,0,l)
);
},
{
closed = 1;
nodes = (
(285,0,l),
(306,120,l),
(251,120,l),
(312,243,l),
(245,195,l),
(509,195,l),
(458,243,l),
(477,120,l),
(422,120,l),
(401,0,l),
(705,0,l),
(726,120,l),
(676,120,l),
(612,463,l),
(667,463,l),
(688,583,l),
(205,583,l),
(184,463,l),
(239,463,l),
(55,120,l),
(5,120,l),
(-16,0,l)
);
},
{
closed = 1;
nodes = (
(422,463,l),
(427,463,l),
(456,267,l),
(495,315,l),
(301,315,l),
(324,267,l)
);
}
);
};
layerId = "EFCDB4D9-E20B-4A8D-9DB5-150AD166B0AE";
shapes = (
{
closed = 1;
nodes = (
(306,0,l),
(306,120,l),
(251,120,l),
(312,243,l),
(245,195,l),
(509,195,l),
(460,223,l),
(475,120,l),
(425,120,l),
(425,0,l),
(1010,0,l),
(980,215,l),
(855,215,l),
(868,120,l),
(670,120,l),
(654,235,l),
(702,235,l),
(709,185,l),
(809,185,l),
(779,400,l),
(679,400,l),
(685,355,l),
(637,355,l),
(622,463,l),
(800,463,l),
(813,373,l),
(938,373,l),
(908,583,l),
(179,583,l),
(179,463,l),
(234,463,l),
(50,120,l),
(0,120,l),
(0,0,l)
);
},
{
closed = 1;
nodes = (
(422,463,l),
(427,463,l),
(452,287,l),
(495,315,l),
(301,315,l),
(324,267,l)
);
}
);
width = 1020;
},
{
anchors = (
{
name = bottom;
pos = (485,0);
},
{
name = top;
pos = (580,563);
}
);
associatedMasterId = "98C086B7-81AA-4491-8494-0C6A76849168";
layerId = "3A8E2C18-C6E7-4F84-8776-CCAD202F53FB";
name = "Original Regular";
shapes = (
{
closed = 1;
nodes = (
(252,0,l),
(252,53,l),
(184,53,l),
(271,205,l),
(476,205,l),
(485,53,l),
(409,53,l),
(409,0,l),
(912,0,l),
(902,179,l),
(840,179,l),
(848,53,l),
(566,53,l),
(554,259,l),
(732,259,l),
(738,191,l),
(779,191,l),
(767,381,l),
(727,381,l),
(731,315,l),
(553,315,l),
(541,510,l),
(813,510,l),
(822,385,l),
(884,385,l),
(875,563,l),
(317,563,l),
(317,510,l),
(378,510,l),
(98,53,l),
(22,53,l),
(22,0,l)
);
},
{
closed = 1;
nodes = (
(451,510,l),
(460,510,l),
(475,255,l),
(297,255,l)
);
}
);
width = 970;
},
{
anchors = (
{
name = bottom;
pos = (463,0);
},
{
name = top;
pos = (533,583);
}
);
background = {
shapes = (
{
closed = 1;
nodes = (
(241,0,l),
(241,83,l),
(174,83,l),
(266,245,l),
(228,213,l),
(477,213,l),
(446,233,l),
(470,83,l),
(402,83,l),
(402,0,l),
(936,0,l),
(909,196,l),
(834,196,l),
(850,83,l),
(581,83,l),
(555,254,l),
(683,254,l),
(692,189,l),
(762,189,l),
(733,397,l),
(663,397,l),
(672,337,l),
(545,337,l),
(519,500,l),
(771,500,l),
(787,392,l),
(863,392,l),
(836,583,l),
(229,583,l),
(229,500,l),
(297,500,l),
(58,83,l),
(-5,83,l),
(-5,0,l)
);
},
{
closed = 1;
nodes = (
(404,499,l),
(408,499,l),
(442,275,l),
(465,291,l),
(260,291,l),
(273,263,l)
);
}
);
};
layerId = "086393EE-48A8-42B6-AE05-10B6A30445E6";
shapes = (
{
closed = 1;
nodes = (
(241,0,l),
(241,83,l),
(174,83,l),
(266,245,l),
(228,213,l),
(477,213,l),
(446,233,l),
(470,83,l),
(402,83,l),
(402,0,l),
(936,0,l),
(909,196,l),
(833,196,l),
(849,83,l),
(581,83,l),
(555,254,l),
(683,254,l),
(692,189,l),
(762,189,l),
(733,397,l),
(663,397,l),
(672,337,l),
(545,337,l),
(519,500,l),
(771,500,l),
(787,392,l),
(863,392,l),
(836,583,l),
(229,583,l),
(229,500,l),
(297,500,l),
(58,83,l),
(-5,83,l),
(-5,0,l)
);
},
{
closed = 1;
nodes = (
(404,499,l),
(408,499,l),
(442,275,l),
(465,291,l),
(260,291,l),
(273,263,l)
);
}
);
width = 960.5;
}
);
unicode = 198;
userData = {
com.typemytype.robofont.layerData = {
b = {
anchors = (
);
components = (
);
contours = (
);
lib = {
};
name = AE;
unicodes = (
);
width = 2243;
};
};
org.robofab.postScriptHintData = {
};
};
},
{
color = 3;
glyphname = B;
kernLeft = H;
kernRight = B;
layers = (
{
anchors = (
{
name = top;
pos = (289,583);
}
);
background = {
anchors = (
{
name = top;
pos = (289,583);
}
);
shapes = (
{
closed = 1;
nodes = (
(401,0,ls),
(510,0,o),
(570,58,o),
(570,159,cs),
(570,234,o),
(522,310,o),
(417,312,c),
(423,306,l),
(479,309,o),
(537,359,o),
(537,441,cs),
(537,542,o),
(475,583,o),
(368,583,cs),
(40,583,l),
(40,561,l),
(125,561,l),
(125,22,l),
(40,22,l),
(40,0,l)
);
},
{
closed = 1;
nodes = (
(155,296,l),
(393,296,ls),
(497,296,o),
(538,235,o),
(538,159,cs),
(538,76,o),
(497,22,o),
(393,22,cs),
(155,22,l)
);
},
{
closed = 1;
nodes = (
(155,561,l),
(363,561,ls),
(463,561,o),
(505,524,o),
(505,440,cs),
(505,369,o),
(463,318,o),
(384,318,cs),
(155,318,l)
);
}
);
};
layerId = "98C086B7-81AA-4491-8494-0C6A76849168";
shapes = (
{
closed = 1;
nodes = (
(401,0,ls),
(510,0,o),
(570,58,o),
(570,159,cs),
(570,234,o),
(522,310,o),
(417,312,c),
(423,306,l),
(479,309,o),
(537,359,o),
(537,441,cs),
(537,542,o),
(475,583,o),
(368,583,cs),
(40,583,l),
(40,561,l),
(125,561,l),
(125,22,l),
(40,22,l),
(40,0,l)
);
},
{
closed = 1;
nodes = (
(155,296,l),
(393,296,ls),
(497,296,o),
(538,235,o),
(538,159,cs),
(538,76,o),
(497,22,o),
(393,22,cs),
(155,22,l)
);
},
{
closed = 1;
nodes = (
(155,561,l),
(363,561,ls),
(463,561,o),
(505,524,o),
(505,440,cs),
(505,369,o),
(463,318,o),
(384,318,cs),
(155,318,l)
);
}
);
width = 630;
},
{
anchors = (
{
name = top;
pos = (328,583);
}
);
background = {
anchors = (
{
name = top;
pos = (328,583);
}
);
shapes = (
{
closed = 1;
nodes = (
(1184,0,ls),
(1347,0,o),
(1434,51,o),
(1434,166,cs),
(1434,244,o),
(1395,304,o),
(1283,321,c),
(1368,337,o),
(1403,372,o),
(1403,442,cs),
(1403,523,o),
(1340,583,o),
(1184,583,cs),
(830,583,l),
(830,463,l),
(880,463,l),
(880,120,l),
(830,120,l),
(830,0,l)
);
},
{
closed = 1;
nodes = (
(1080,254,l),
(1143,254,ls),
(1202,254,o),
(1226,231,o),
(1226,188,cs),
(1226,146,o),
(1202,121,o),
(1143,121,cs),
(1080,121,l)
);
},
{
closed = 1;
nodes = (
(1080,463,l),
(1137,463,ls),
(1181,463,o),
(1200,445,o),
(1200,414,cs),
(1200,382,o),
(1180,364,o),
(1137,364,cs),
(1080,364,l)
);
},
{
closed = 1;
nodes = (
(330,0,l),
(330,120,l),
(280,120,l),
(280,233,l),
(446,233,l),
(446,120,l),
(396,120,l),
(396,0,l),
(696,0,l),
(696,120,l),
(646,120,l),
(646,463,l),
(696,463,l),
(696,583,l),
(396,583,l),
(396,463,l),
(446,463,l),
(446,357,l),
(280,357,l),
(280,463,l),
(330,463,l),
(330,583,l),
(30,583,l),
(30,463,l),
(80,463,l),
(80,120,l),
(30,120,l),
(30,0,l)
);
}
);
};
layerId = "EFCDB4D9-E20B-4A8D-9DB5-150AD166B0AE";
shapes = (
{
closed = 1;
nodes = (
(429,0,ls),
(577,0,o),
(649,52,o),
(649,160,cs),
(649,252,o),
(593,307,o),
(493,313,c),
(497,305,l),
(572,317,o),
(621,360,o),
(621,437,cs),
(621,531,o),
(553,583,o),
(432,583,cs),
(30,583,l),
(30,463,l),
(80,463,l),
(80,120,l),
(30,120,l),
(30,0,l)
);
},
{
closed = 1;
nodes = (
(280,245,l),
(371,245,ls),
(419,245,o),
(443,224,o),
(443,182,cs),
(443,140,o),
(419,120,o),
(371,120,cs),
(280,120,l)
);
},
{
closed = 1;
nodes = (
(280,463,l),
(357,463,ls),
(397,463,o),
(415,447,o),
(415,414,cs),
(415,381,o),
(397,363,o),
(357,363,cs),
(280,363,l)
);
}
);
width = 671;
},
{
anchors = (
{
name = top;
pos = (255,563);
}
);
associatedMasterId = "98C086B7-81AA-4491-8494-0C6A76849168";
layerId = "A91DDE39-DEF5-433B-A81E-BDB407DA09A6";
name = "Original Regular";
shapes = (
{
closed = 1;
nodes = (
(339,0,ls),
(489,0,o),
(541,79,o),
(541,159,cs),
(541,227,o),
(502,281,o),
(426,300,c),
(477,317,o),
(511,361,o),
(511,423,cs),
(511,515,o),
(443,563,o),
(318,563,cs),
(39,563,l),
(39,510,l),
(117,510,l),
(117,53,l),
(39,53,l),
(39,0,l)
);
},
{
closed = 1;
nodes = (
(199,268,l),
(322,268,ls),
(415,268,o),
(458,225,o),
(458,162,cs),
(458,94,o),
(419,53,o),
(325,53,cs),
(199,53,l)
);
},
{
closed = 1;
nodes = (
(199,510,l),
(295,510,l),
(390,510,o),
(430,486,o),
(430,420,cs),
(430,360,o),
(396,323,o),
(313,323,cs),
(199,323,l)
);
}
);
width = 580;
},
{
anchors = (
{
name = top;
pos = (308,583);
}
);
background = {
anchors = (
{
name = top;
pos = (308,583);
}
);
shapes = (
{
closed = 1;
nodes = (
(414,0,ls),
(543,0,o),
(609,55,o),
(609,160,cs),
(609,243,o),
(557,309,o),
(454,313,c),
(459,306,l),
(525,313,o),
(578,360,o),
(578,439,cs),
(578,537,o),
(513,583,o),
(399,583,cs),
(34,583,l),
(34,512,l),
(102,512,l),
(102,71,l),
(34,71,l),
(34,0,l)
);
},
{
closed = 1;
nodes = (
(217,271,l),
(381,271,ls),
(457,271,o),
(490,230,o),
(490,171,cs),
(490,108,o),
(457,71,o),
(381,71,cs),
(217,71,l)
);
},
{
closed = 1;
nodes = (
(217,512,l),
(359,512,ls),
(429,512,o),
(459,486,o),
(459,427,cs),
(459,375,o),
(429,341,o),
(370,341,cs),
(217,341,l)
);
}
);
};
layerId = "086393EE-48A8-42B6-AE05-10B6A30445E6";
shapes = (
{
closed = 1;
nodes = (
(414,0,ls),
(543,0,o),
(609,54,o),
(609,160,cs),
(609,245,o),
(557,308,o),
(454,313,c),
(459,305,l),
(525,314,o),
(578,360,o),
(578,439,cs),
(578,535,o),
(513,583,o),
(399,583,cs),
(35,583,l),
(35,500,l),
(102,500,l),
(102,83,l),
(35,83,l),
(35,0,l)
);
},
{
closed = 1;
nodes = (
(217,262,l),
(381,262,ls),
(457,262,o),
(490,228,o),
(490,173,cs),
(490,116,o),
(457,83,o),
(381,83,cs),
(217,83,l)
);
},
{
closed = 1;
nodes = (
(217,500,l),
(359,500,ls),
(429,500,o),
(459,476,o),
(459,424,cs),
(459,377,o),
(429,347,o),
(370,347,cs),
(217,347,l)
);
}
);
width = 650;
}
);
metricLeft = H;
unicode = 66;
userData = {
com.typemytype.robofont.layerData = {
b = {
anchors = (
);
components = (
);
contours = (
{
points = (
{
segmentType = line;
smooth = 0;
x = 353;
y = 1095;
},
{
segmentType = line;
smooth = 1;
x = 740;
y = 1095;
},
{
smooth = 0;
x = 917;
y = 1095;
},
{
smooth = 0;
x = 1004;
y = 983;
},
{
segmentType = curve;
smooth = 1;
x = 1004;
y = 868;
},
{
smooth = 0;
x = 1004;
y = 751;
},
{
smooth = 0;
x = 928;
y = 634;
},
{
segmentType = curve;
smooth = 1;
x = 784;
y = 634;
},
{
segmentType = line;
smooth = 0;
x = 353;
y = 634;
}
);
},
{
points = (
{
segmentType = line;
smooth = 0;
x = 353;
y = 573;
},
{
segmentType = line;
smooth = 1;
x = 793;
y = 573;
},
{
smooth = 0;
x = 979;
y = 573;
},
{
smooth = 0;
x = 1072;
y = 439;
},
{
segmentType = curve;
smooth = 1;
x = 1072;
y = 320;
},
{
smooth = 0;
x = 1072;
y = 187;
},
{
smooth = 0;
x = 985;
y = 58;
},
{
segmentType = curve;
smooth = 1;
x = 807;
y = 58;
},
{
segmentType = line;
smooth = 0;
x = 353;
y = 58;
}
);
},
{
points = (
{
segmentType = line;
smooth = 1;
x = 807;
y = 0;
},
{
smooth = 0;
x = 1031;
y = 0;
},
{
smooth = 0;
x = 1146;
y = 158;
},
{
segmentType = curve;
smooth = 1;
x = 1146;
y = 316;
},
{
smooth = 0;
x = 1146;
y = 439;
},
{
smooth = 0;
x = 1074;
y = 568;
},
{
segmentType = curve;
smooth = 0;
x = 919;
y = 611;
},
{
smooth = 0;
x = 1029;
y = 669;
},
{
smooth = 0;
x = 1079;
y = 769;
},
{
segmentType = curve;
smooth = 1;
x = 1079;
y = 870;
},
{
smooth = 0;
x = 1079;
y = 1012;
},
{
smooth = 0;
x = 964;
y = 1154;
},
{
segmentType = curve;
smooth = 1;
x = 740;
y = 1154;
},
{
segmentType = line;
smooth = 0;
x = 122;
y = 1154;
},
{
segmentType = line;
smooth = 0;
x = 122;
y = 1095;
},
{
segmentType = line;
smooth = 0;
x = 278;
y = 1095;
},
{
segmentType = line;
smooth = 0;
x = 278;
y = 58;
},
{
segmentType = line;
smooth = 0;
x = 135;
y = 58;
},
{
segmentType = line;
smooth = 0;
x = 135;
y = 0;
}
);
}
);
lib = {
};
name = B;
unicodes = (
);
width = 1354;
};
};
org.robofab.postScriptHintData = {
};
};
},
{
color = 3;
glyphname = C;
kernLeft = O;
kernRight = C;
layers = (
{
anchors = (
{
name = bottom;
pos = (360,0);
},
{
name = top;
pos = (353,583);
}
);
background = {
anchors = (
{
name = bottom;
pos = (360,0);
},
{
name = top;
pos = (353,583);
}
);
shapes = (
{
closed = 1;
nodes = (
(475,-10,o),
(552,32,o),
(607,126,c),
(583,140,l),
(534,53,o),
(467,15,o),
(360,15,cs),
(189,15,o),
(82,124,o),
(82,290,cs),
(82,454,o),
(191,569,o),
(353,569,cs),
(457,569,o),
(540,525,o),
(584,423,c),
(607,423,l),
(607,583,l),
(581,583,l),
(581,445,l),
(593,445,l),
(556,537,o),
(472,594,o),
(353,594,cs),
(173,594,o),
(50,468,o),
(50,291,cs),
(50,112,o),
(171,-10,o),
(360,-10,cs)
);
}
);
};
layerId = "98C086B7-81AA-4491-8494-0C6A76849168";
shapes = (
{
closed = 1;
nodes = (
(475,-10,o),
(552,32,o),
(607,126,c),
(583,140,l),
(534,53,o),
(467,15,o),
(360,15,cs),
(189,15,o),
(82,124,o),
(82,290,cs),
(82,454,o),
(191,569,o),
(353,569,cs),
(457,569,o),
(540,525,o),
(584,423,c),
(607,423,l),
(607,583,l),
(581,583,l),
(581,445,l),
(593,445,l),
(556,537,o),
(472,594,o),
(353,594,cs),
(173,594,o),
(50,468,o),
(50,291,cs),
(50,112,o),
(171,-10,o),
(360,-10,cs)
);
}
);
width = 669;
},
{
anchors = (
{
name = bottom;
pos = (365,0);
},
{
name = top;
pos = (340,583);
}
);
background = {
anchors = (
{
name = bottom;
pos = (367,0);
},
{
name = top;
pos = (370,583);
}
);
shapes = (
{
closed = 1;
nodes = (
(1451,-10,o),
(1558,84,o),
(1580,206,c),
(1421,258,l),
(1405,173,o),
(1362,126,o),
(1281,126,cs),
(1193,126,o),
(1137,192,o),
(1137,293,cs),
(1137,394,o),
(1197,457,o),
(1299,457,cs),
(1373,457,o),
(1421,424,o),
(1453,365,c),
(1563,365,l),
(1563,583,l),
(1433,583,l),
(1433,478,l),
(1479,438,l),
(1459,531,o),
(1375,593,o),
(1243,593,cs),
(1065,593,o),
(929,480,o),
(929,290,cs),
(929,100,o),
(1076,-10,o),
(1269,-10,cs)
);
},
{
closed = 1;
nodes = (
(569,-10,o),
(701,110,o),
(701,292,cs),
(701,474,o),
(569,594,o),
(365,594,cs),
(161,594,o),
(29,474,o),
(29,292,cs),
(29,110,o),
(161,-10,o),
(365,-10,cs)
);
},
{
closed = 1;
nodes = (
(284,130,o),
(235,189,o),
(235,292,cs),
(235,395,o),
(284,454,o),
(365,454,cs),
(446,454,o),
(495,395,o),
(495,292,cs),
(495,189,o),
(446,130,o),
(365,130,cs)
);
}
);
};
layerId = "EFCDB4D9-E20B-4A8D-9DB5-150AD166B0AE";
shapes = (
{
closed = 1;
nodes = (
(516,-10,o),
(623,66,o),
(657,196,c),
(511,256,l),
(485,169,o),
(440,130,o),
(369,130,cs),
(282,130,o),
(235,189,o),
(235,292,cs),
(235,392,o),
(291,454,o),
(379,454,cs),
(443,454,o),
(489,424,o),
(516,363,c),
(641,363,l),
(641,583,l),
(511,583,l),
(511,478,l),
(557,448,l),
(522,546,o),
(446,594,o),
(332,594,cs),
(159,594,o),
(29,474,o),
(29,290,cs),
(29,110,o),
(153,-10,o),
(361,-10,cs)
);
}
);
width = 676;
},
{
anchors = (
{
name = bottom;
pos = (337,0);
},
{
name = top;
pos = (349,563);
}
);
associatedMasterId = "98C086B7-81AA-4491-8494-0C6A76849168";
layerId = "5C613798-B8F6-477B-9A35-0C47D92F54C7";
name = "Original Regular";
shapes = (
{
closed = 1;
nodes = (
(458,-10,o),
(560,30,o),
(608,152,c),
(548,182,l),
(514,85,o),
(433,49,o),
(349,49,cs),
(224,49,o),
(131,141,o),
(131,283,cs),
(131,412,o),
(215,513,o),
(349,513,cs),
(438,513,o),
(500,477,o),
(542,391,c),
(596,393,l),
(596,563,l),
(536,563,l),
(536,441,l),
(558,441,l),
(532,519,o),
(453,573,o),
(345,573,cs),
(165,573,o),
(49,450,o),
(49,282,cs),
(49,109,o),
(168,-10,o),
(344,-11,cs)
);
}
);
width = 665;
},
{
anchors = (
{
name = bottom;
pos = (363,0);
},
{
name = top;
pos = (347,583);
}
);
background = {
anchors = (
{
name = bottom;
pos = (363,0);
},
{
name = top;
pos = (347,583);
}
);
shapes = (
{
closed = 1;
nodes = (
(1396,-10,o),
(1488,49,o),
(1532,161,c),
(1447,198,l),
(1410,111,o),
(1354,72,o),
(1265,72,cs),
(1136,72,o),
(1059,157,o),
(1059,291,cs),
(1059,423,o),
(1141,512,o),
(1266,512,cs),
(1350,512,o),
(1415,475,o),
(1450,393,c),
(1524,393,l),
(1524,583,l),
(1446,583,l),
(1446,462,l),
(1475,447,l),
(1439,542,o),
(1359,594,o),
(1243,594,cs),
(1066,594,o),
(940,471,o),
(940,291,cs),
(940,111,o),
(1062,-10,o),
(1261,-10,cs)
);
},
{
closed = 1;
nodes = (
(552,-10,o),
(679,117,o),
(679,292,cs),
(679,467,o),
(552,594,o),
(359,594,cs),
(166,594,o),
(40,467,o),
(40,292,cs),
(40,117,o),
(166,-10,o),
(359,-10,cs)
);
},
{
closed = 1;
nodes = (
(237,89,o),
(159,168,o),
(159,291,cs),
(159,414,o),
(237,495,o),
(359,495,cs),
(481,495,o),
(560,414,o),
(560,291,cs),
(560,168,o),
(481,89,o),
(359,89,cs)
);
}
);
};
layerId = "086393EE-48A8-42B6-AE05-10B6A30445E6";
shapes = (
{
closed = 1;
nodes = (
(496,-10,o),
(588,53,o),
(632,169,c),
(543,214,l),
(506,125,o),
(444,87,o),
(359,87,cs),
(237,87,o),
(159,168,o),
(159,291,cs),
(159,414,o),
(237,497,o),
(365,497,cs),
(443,497,o),
(515,462,o),
(550,386,c),
(624,386,l),
(624,583,l),
(546,583,l),
(546,466,l),
(575,447,l),
(543,547,o),
(459,594,o),
(343,594,cs),
(166,594,o),
(40,467,o),
(40,290,cs),
(40,117,o),
(166,-10,o),
(358,-10,cs)
);
}
);
width = 672.5;
}
);
metricLeft = O;
unicode = 67;
userData = {
com.typemytype.robofont.layerData = {
b = {
anchors = (
);
components = (
);
contours = (
);
lib = {
};
name = C;
unicodes = (
);
width = 1411;
};
};
org.robofab.postScriptHintData = {
};
};
},
{
color = 3;
glyphname = D;
kernLeft = H;
kernRight = O;
layers = (
{
anchors = (
{
name = bottom;
pos = (346,0);
},
{
name = top;
pos = (346,583);
}
);
background = {
anchors = (
{
name = bottom;
pos = (346,0);
},
{
name = top;
pos = (346,583);
}
);
shapes = (
{
closed = 1;
nodes = (
(328,0,ls),
(558,0,o),
(637,126,o),
(637,290,cs),
(637,456,o),
(557,583,o),
(325,583,cs),
(40,583,l),
(40,561,l),
(125,561,l),
(125,22,l),
(40,22,l),
(40,0,l)
);
},
{
closed = 1;
nodes = (
(155,561,l),
(323,561,ls),
(538,561,o),
(605,443,o),
(605,289,cs),
(605,136,o),
(542,22,o),
(323,22,cs),
(155,22,l)
);
}
);
};
layerId = "98C086B7-81AA-4491-8494-0C6A76849168";
shapes = (
{
closed = 1;
nodes = (
(328,0,ls),
(558,0,o),
(637,126,o),
(637,290,cs),
(637,456,o),
(557,583,o),
(325,583,cs),
(40,583,l),
(40,561,l),
(125,561,l),
(125,22,l),
(40,22,l),
(40,0,l)
);
},
{
closed = 1;
nodes = (
(155,561,l),
(323,561,ls),
(538,561,o),
(605,443,o),
(605,289,cs),
(605,136,o),
(542,22,o),
(323,22,cs),
(155,22,l)
);
}
);
width = 687;
},
{
anchors = (
{
name = bottom;
pos = (355,0);
},
{
name = top;
pos = (363,583);
}
);
background = {
anchors = (
{
name = bottom;
pos = (365,0);
},
{
name = top;
pos = (373,583);
}
);
shapes = (
{
closed = 1;
nodes = (
(1396,0,ls),
(1604,0,o),
(1707,117,o),
(1707,293,cs),
(1707,459,o),
(1603,583,o),
(1396,583,cs),
(1040,583,l),
(1040,463,l),
(1090,463,l),
(1090,120,l),
(1040,120,l),
(1040,0,l)
);
},
{
closed = 1;
nodes = (
(1290,463,l),
(1358,463,ls),
(1459,463,o),
(1499,404,o),
(1499,293,cs),
(1499,180,o),
(1458,120,o),
(1358,120,cs),
(1290,120,l)
);
},
{
closed = 1;
nodes = (
(330,0,l),
(330,120,l),
(280,120,l),
(280,233,l),
(446,233,l),
(446,120,l),
(396,120,l),
(396,0,l),
(696,0,l),
(696,120,l),
(646,120,l),
(646,463,l),
(696,463,l),
(696,583,l),
(396,583,l),
(396,463,l),
(446,463,l),
(446,357,l),
(280,357,l),
(280,463,l),
(330,463,l),
(330,583,l),
(30,583,l),
(30,463,l),
(80,463,l),
(80,120,l),
(30,120,l),
(30,0,l)
);
}
);
};
layerId = "EFCDB4D9-E20B-4A8D-9DB5-150AD166B0AE";
shapes = (
{
closed = 1;
nodes = (
(373,0,ls),
(590,0,o),
(704,107,o),
(704,293,cs),
(704,473,o),
(586,583,o),
(373,583,cs),
(30,583,l),
(30,463,l),
(80,463,l),
(80,120,l),
(30,120,l),
(30,0,l)
);
},
{
closed = 1;
nodes = (
(280,463,l),
(355,463,ls),
(452,463,o),
(498,409,o),
(498,293,cs),
(498,176,o),
(452,120,o),
(355,120,cs),
(280,120,l)
);
}
);
width = 733;
},
{
anchors = (
{
name = bottom;
pos = (375,0);
},
{
name = top;
pos = (372,563);
}
);
associatedMasterId = "98C086B7-81AA-4491-8494-0C6A76849168";
layerId = "91E72B50-D496-45BA-B127-A610C2A394E1";
name = "Original Regular";
shapes = (
{
closed = 1;
nodes = (
(347,0,ls),
(539,0,o),
(635,121,o),
(635,287,cs),
(635,424,o),
(542,563,o),
(346,563,cs),
(40,563,l),
(40,510,l),
(118,510,l),
(118,53,l),
(40,53,l),
(40,0,l)
);
},
{
closed = 1;
nodes = (
(200,510,l),
(342,510,ls),
(487,510,o),
(551,399,o),
(551,285,cs),
(551,156,o),
(489,53,o),
(339,53,cs),
(200,53,l)
);
}
);
width = 684;
},
{
anchors = (
{
name = bottom;
pos = (350,0);
},
{
name = top;
pos = (354,583);
}
);
background = {
anchors = (
{
name = bottom;
pos = (350,0);
},
{
name = top;
pos = (354,583);
}
);
shapes = (
{
closed = 1;
nodes = (
(350,0,ls),
(573,0,o),
(670,117,o),
(670,292,cs),
(670,465,o),
(571,583,o),
(348,583,cs),
(34,583,l),
(34,512,l),
(102,512,l),
(102,71,l),
(34,71,l),
(34,0,l)
);
},
{
closed = 1;
nodes = (
(217,512,l),
(338,512,ls),
(494,512,o),
(551,426,o),
(551,291,cs),
(551,156,o),
(496,71,o),
(338,71,cs),
(217,71,l)
);
}
);
};
layerId = "086393EE-48A8-42B6-AE05-10B6A30445E6";
shapes = (
{
closed = 1;
nodes = (
(350,0,ls),
(573,0,o),
(670,114,o),
(670,292,cs),
(670,467,o),
(571,583,o),
(348,583,cs),
(35,583,l),
(35,500,l),
(102,500,l),
(102,83,l),
(35,83,l),
(35,0,l)
);
},
{
closed = 1;
nodes = (
(217,500,l),
(338,500,ls),
(494,500,o),
(551,422,o),
(551,292,cs),
(551,161,o),
(496,83,o),
(338,83,cs),
(217,83,l)
);
}
);
width = 710;
}
);
metricLeft = H;
metricRight = O;
unicode = 68;
userData = {
com.typemytype.robofont.layerData = {
b = {
anchors = (
);
components = (
);
contours = (
);
lib = {
};
name = D;
unicodes = (
);
width = 1434;
};
};
org.robofab.postScriptHintData = {
};
};
},
{
color = 3;
glyphname = E;
kernLeft = H;
kernRight = E;
layers = (
{
anchors = (
{
name = bottom;
pos = (311,0);
},
{
name = ogonek;
pos = (471,0);
},
{
name = top;
pos = (303,583);
}
);
background = {
anchors = (
{
name = bottom;
pos = (311,0);
},
{
name = ogonek;
pos = (471,0);
},
{
name = top;
pos = (303,583);
}
);
shapes = (
{
closed = 1;
nodes = (
(521,0,l),
(521,165,l),
(495,165,l),
(495,22,l),
(155,22,l),
(155,286,l),
(371,286,l),
(371,196,l),
(396,196,l),
(396,393,l),
(370,393,l),
(370,308,l),
(155,308,l),
(155,561,l),
(480,561,l),
(480,423,l),
(506,423,l),
(506,583,l),
(40,583,l),
(40,561,l),
(125,561,l),
(125,22,l),
(40,22,l),
(40,0,l)
);
}
);
};
layerId = "98C086B7-81AA-4491-8494-0C6A76849168";
shapes = (
{
closed = 1;
nodes = (
(521,0,l),
(521,165,l),
(495,165,l),
(495,22,l),
(155,22,l),
(155,286,l),
(371,286,l),
(371,196,l),
(396,196,l),
(396,393,l),
(370,393,l),
(370,308,l),
(155,308,l),
(155,561,l),
(480,561,l),
(480,423,l),
(506,423,l),
(506,583,l),
(40,583,l),
(40,561,l),
(125,561,l),
(125,22,l),
(40,22,l),
(40,0,l)
);
}
);
width = 578;
},
{
anchors = (
{
name = bottom;
pos = (317,0);
},
{
name = ogonek;
pos = (534,0);
},
{
name = top;
pos = (337,583);
}
);
background = {
anchors = (
{
name = bottom;
pos = (316,0);
},
{
name = ogonek;
pos = (532,0);
},
{
name = top;
pos = (336,583);
}
);
shapes = (
{
closed = 1;
nodes = (
(1501,0,l),
(1501,224,l),
(1381,224,l),
(1381,121,l),
(1181,121,l),
(1181,242,l),
(1241,242,l),
(1241,187,l),
(1340,187,l),
(1340,407,l),
(1240,407,l),
(1240,352,l),
(1181,352,l),
(1181,463,l),
(1377,463,l),
(1377,372,l),
(1497,372,l),
(1497,583,l),
(930,583,l),
(930,463,l),
(980,463,l),
(980,120,l),
(930,120,l),
(930,0,l)
);
},
{
closed = 1;
nodes = (
(330,0,l),
(330,120,l),
(280,120,l),
(280,233,l),
(446,233,l),
(446,120,l),
(396,120,l),
(396,0,l),
(696,0,l),
(696,120,l),
(646,120,l),
(646,463,l),
(696,463,l),
(696,583,l),
(396,583,l),
(396,463,l),
(446,463,l),
(446,357,l),
(280,357,l),
(280,463,l),
(330,463,l),
(330,583,l),
(30,583,l),
(30,463,l),
(80,463,l),
(80,120,l),
(30,120,l),
(30,0,l)
);
}
);
};
layerId = "EFCDB4D9-E20B-4A8D-9DB5-150AD166B0AE";
shapes = (
{
closed = 1;
nodes = (
(603,0,l),
(603,215,l),
(478,215,l),
(478,120,l),
(280,120,l),
(280,235,l),
(328,235,l),
(328,185,l),
(428,185,l),
(428,400,l),
(328,400,l),
(328,355,l),
(280,355,l),
(280,463,l),
(458,463,l),
(458,373,l),
(583,373,l),
(583,583,l),
(30,583,l),
(30,463,l),
(80,463,l),
(80,120,l),
(30,120,l),
(30,0,l)
);
}
);
width = 619;
},
{
anchors = (
{
name = bottom;
pos = (327,0);
},
{
name = ogonek;
pos = (474,0);
},
{
name = top;
pos = (310,563);
}
);
associatedMasterId = "98C086B7-81AA-4491-8494-0C6A76849168";
layerId = "9EEB2C1A-797D-4FB3-8155-69A4852E2A17";
name = "Original Regular";
shapes = (
{
closed = 1;
nodes = (
(534,0,l),
(534,170,l),
(471,170,l),
(471,53,l),
(199,53,l),
(199,264,l),
(374,264,l),
(374,197,l),
(415,197,l),
(415,385,l),
(374,385,l),
(374,319,l),
(199,319,l),
(199,510,l),
(466,510,l),
(466,396,l),
(529,396,l),
(529,563,l),
(39,563,l),
(39,510,l),
(117,510,l),
(117,53,l),
(39,53,l),
(39,0,l)
);
}
);
width = 582;
},
{
anchors = (
{
name = bottom;
pos = (313,0);
},
{
name = ogonek;
pos = (502,0);
},
{
name = top;
pos = (319,583);
}
);
background = {
anchors = (
{
name = bottom;
pos = (313,0);
},
{
name = ogonek;
pos = (502,0);
},
{
name = top;
pos = (319,583);
}
);
shapes = (
{
closed = 1;
nodes = (
(561,0,l),
(561,190,l),
(486,190,l),
(486,71,l),
(217,71,l),
(217,261,l),
(349,261,l),
(349,191,l),
(411,191,l),
(411,397,l),
(348,397,l),
(348,332,l),
(217,332,l),
(217,512,l),
(468,512,l),
(468,398,l),
(544,398,l),
(544,583,l),
(34,583,l),
(34,512,l),
(102,512,l),
(102,71,l),
(34,71,l),
(34,0,l)
);
}
);
};
layerId = "086393EE-48A8-42B6-AE05-10B6A30445E6";
shapes = (
{
closed = 1;
nodes = (
(561,0,l),
(561,196,l),
(485,196,l),
(485,83,l),
(217,83,l),
(217,254,l),
(344,254,l),
(344,189,l),
(414,189,l),
(414,397,l),
(344,397,l),
(344,337,l),
(217,337,l),
(217,500,l),
(468,500,l),
(468,392,l),
(544,392,l),
(544,583,l),
(35,583,l),
(35,500,l),
(102,500,l),
(102,83,l),
(35,83,l),
(35,0,l)
);
}
);
width = 598;
}
);
metricLeft = H;
unicode = 69;
userData = {
com.typemytype.robofont.layerData = {
b = {
anchors = (
);
components = (
);
contours = (
);
lib = {
};
name = E;
unicodes = (
);
width = 1227;
};
};
org.robofab.postScriptHintData = {
};
};
},
{
color = 3;
glyphname = Eth;
kernLeft = H;
kernRight = O;
layers = (
{
background = {
shapes = (
{
closed = 1;
nodes = (
(125,286,l),
(125,22,l),
(40,22,l),
(40,0,l),
(328,0,ls),
(558,0,o),
(637,126,o),
(637,290,cs),
(637,456,o),
(557,583,o),
(325,583,cs),
(40,583,l),
(40,561,l),
(125,561,l),
(125,308,l),
(40,308,l),
(40,286,l)
);
},
{
closed = 1;
nodes = (
(155,286,l),
(295,286,l),
(295,308,l),
(155,308,l),
(155,561,l),
(323,561,ls),
(538,561,o),
(605,443,o),
(605,289,cs),
(605,136,o),
(542,22,o),
(323,22,cs),
(155,22,l)
);
}
);
};
layerId = "98C086B7-81AA-4491-8494-0C6A76849168";
shapes = (
{
closed = 1;
nodes = (
(125,286,l),
(125,22,l),
(40,22,l),
(40,0,l),
(328,0,ls),
(558,0,o),
(637,126,o),
(637,290,cs),
(637,456,o),
(557,583,o),
(325,583,cs),
(40,583,l),
(40,561,l),
(125,561,l),
(125,308,l),
(40,308,l),
(40,286,l)
);
},
{
closed = 1;
nodes = (
(155,286,l),
(295,286,l),
(295,308,l),
(155,308,l),
(155,561,l),
(323,561,ls),
(538,561,o),
(605,443,o),
(605,289,cs),
(605,136,o),
(542,22,o),
(323,22,cs),
(155,22,l)
);
}
);
width = 687;
},
{
background = {
anchors = (
{
name = bottom;
pos = (355,0);
},
{
name = top;
pos = (363,583);
}
);
shapes = (
{
closed = 1;
nodes = (
(373,0,ls),
(590,0,o),
(704,107,o),
(704,293,cs),
(704,473,o),
(586,583,o),
(373,583,cs),
(30,583,l),
(30,463,l),
(80,463,l),
(80,120,l),
(30,120,l),
(30,0,l)
);
},
{
closed = 1;
nodes = (
(280,463,l),
(355,463,ls),
(452,463,o),
(498,409,o),
(498,293,cs),
(498,176,o),
(452,120,o),
(355,120,cs),
(280,120,l)
);
},
{
closed = 1;
nodes = (
(326,216,l),
(326,319,l),
(50,319,l),
(50,216,l)
);
}
);
};
layerId = "EFCDB4D9-E20B-4A8D-9DB5-150AD166B0AE";
shapes = (
{
closed = 1;
nodes = (
(80,240,l),
(80,120,l),
(30,120,l),
(30,0,l),
(373,0,ls),
(590,0,o),
(704,107,o),
(704,293,cs),
(704,473,o),
(586,583,o),
(373,583,cs),
(30,583,l),
(30,463,l),
(80,463,l),
(80,350,l),
(30,350,l),
(30,240,l)
);
},
{
closed = 1;
nodes = (
(280,240,l),
(410,240,l),
(410,350,l),
(280,350,l),
(280,463,l),
(355,463,ls),
(452,463,o),
(498,409,o),
(498,293,cs),
(498,176,o),
(452,120,o),
(355,120,cs),
(280,120,l)
);
}
);
width = 733;
},
{
associatedMasterId = "98C086B7-81AA-4491-8494-0C6A76849168";
layerId = "FE6F75BE-BA8E-4612-82C9-B5719FDC318C";
name = "Original Regular";
shapes = (
{
ref = D;
},
{
pos = (-14,55);
ref = hyphen;
}
);
width = 687;
},
{
background = {
shapes = (
{
closed = 1;
nodes = (
(102,263,l),
(102,71,l),
(34,71,l),
(34,0,l),
(350,0,ls),
(573,0,o),
(670,117,o),
(670,292,cs),
(670,465,o),
(571,583,o),
(348,583,cs),
(34,583,l),
(34,512,l),
(102,512,l),
(102,329,l),
(34,329,l),
(34,263,l)
);
},
{
closed = 1;
nodes = (
(217,263,l),
(352,263,l),
(352,329,l),
(217,329,l),
(217,512,l),
(338,512,ls),
(494,512,o),
(551,426,o),
(551,291,cs),
(551,156,o),
(496,71,o),
(338,71,cs),
(217,71,l)
);
}
);
};
layerId = "086393EE-48A8-42B6-AE05-10B6A30445E6";
shapes = (
{
closed = 1;
nodes = (
(102,257,l),
(102,83,l),
(35,83,l),
(35,0,l),
(350,0,ls),
(573,0,o),
(670,114,o),
(670,292,cs),
(670,467,o),
(571,583,o),
(348,583,cs),
(35,583,l),
(35,500,l),
(102,500,l),
(102,334,l),
(35,334,l),
(35,257,l)
);
},
{
closed = 1;
nodes = (
(217,257,l),
(352,257,l),
(352,334,l),
(217,334,l),
(217,500,l),
(338,500,ls),
(494,500,o),
(551,422,o),
(551,292,cs),
(551,161,o),
(496,83,o),
(338,83,cs),
(217,83,l)
);
}
);
width = 710;
}
);
metricLeft = H;
metricRight = O;
unicode = 208;
userData = {
com.typemytype.robofont.layerData = {
b = {
anchors = (
);
components = (
);
contours = (
);
lib = {
};
name = Eth;
unicodes = (
);
width = 1434;
};
};
org.robofab.postScriptHintData = {
};
};
},
{
color = 3;
glyphname = F;
kernLeft = H;
kernRight = F;
layers = (
{
anchors = (
{
name = top;
pos = (299,583);
}
);
background = {
anchors = (
{
name = top;
pos = (299,583);
}
);
shapes = (
{
closed = 1;
nodes = (
(260,0,l),
(260,22,l),
(155,22,l),
(155,291,l),
(370,291,l),
(370,201,l),
(396,201,l),
(396,399,l),
(370,399,l),
(370,314,l),
(155,314,l),
(155,561,l),
(480,561,l),
(480,423,l),
(506,423,l),
(506,583,l),
(40,583,l),
(40,561,l),
(125,561,l),
(125,22,l),
(40,22,l),
(40,0,l)
);
}
);
};
layerId = "98C086B7-81AA-4491-8494-0C6A76849168";
shapes = (
{
closed = 1;
nodes = (
(260,0,l),
(260,22,l),
(155,22,l),
(155,291,l),
(370,291,l),
(370,201,l),
(396,201,l),
(396,399,l),
(370,399,l),
(370,314,l),
(155,314,l),
(155,561,l),
(480,561,l),
(480,423,l),
(506,423,l),
(506,583,l),
(40,583,l),
(40,561,l),
(125,561,l),
(125,22,l),
(40,22,l),
(40,0,l)
);
}
);
width = 551;
},
{
anchors = (
{
name = top;
pos = (323,583);
}
);
background = {
anchors = (
{
name = top;
pos = (323,583);
}
);
shapes = (
{
closed = 1;
nodes = (
(1250,0,l),
(1250,120,l),
(1190,120,l),
(1190,242,l),
(1250,242,l),
(1250,187,l),
(1349,187,l),
(1349,407,l),
(1249,407,l),
(1249,352,l),
(1190,352,l),
(1190,463,l),
(1386,463,l),
(1386,368,l),
(1506,368,l),
(1506,583,l),
(940,583,l),
(940,463,l),
(990,463,l),
(990,120,l),
(940,120,l),
(940,0,l)
);
},
{
closed = 1;
nodes = (
(603,0,l),
(603,215,l),
(478,215,l),
(478,121,l),
(280,121,l),
(280,235,l),
(328,235,l),
(328,185,l),
(428,185,l),
(428,400,l),
(328,400,l),
(328,355,l),
(280,355,l),
(280,463,l),
(458,463,l),
(458,373,l),
(583,373,l),
(583,583,l),
(30,583,l),
(30,463,l),
(80,463,l),
(80,120,l),
(30,120,l),
(30,0,l)
);
}
);
};
layerId = "EFCDB4D9-E20B-4A8D-9DB5-150AD166B0AE";
shapes = (
{
closed = 1;
nodes = (
(360,0,l),
(360,120,l),
(280,120,l),
(280,245,l),
(328,245,l),
(328,195,l),
(428,195,l),
(428,410,l),
(328,410,l),
(328,365,l),
(280,365,l),
(280,463,l),
(458,463,l),
(458,373,l),
(583,373,l),
(583,583,l),
(30,583,l),
(30,463,l),
(80,463,l),
(80,120,l),
(30,120,l),
(30,0,l)
);
}
);
width = 593;
},
{
anchors = (
{
name = top;
pos = (299,563);
}
);
associatedMasterId = "98C086B7-81AA-4491-8494-0C6A76849168";
layerId = "7270DE1B-929D-4EC3-B937-79F80D1AA7E3";
name = "Original Regular";
shapes = (
{
closed = 1;
nodes = (
(277,0,l),
(277,53,l),
(199,53,l),
(199,264,l),
(369,264,l),
(369,199,l),
(411,199,l),
(411,382,l),
(369,382,l),
(369,321,l),
(199,321,l),
(199,510,l),
(457,510,l),
(457,392,l),
(520,392,l),
(520,563,l),
(39,563,l),
(39,510,l),
(117,510,l),
(117,53,l),
(39,53,l),
(39,0,l)
);
}
);
width = 542;
},
{
anchors = (
{
name = top;
pos = (310,583);
}
);
background = {
anchors = (
{
name = top;
pos = (310,583);
}
);
shapes = (
{
closed = 1;
nodes = (
(309,0,l),
(309,71,l),
(217,71,l),
(217,268,l),
(348,268,l),
(348,198,l),
(411,198,l),
(411,405,l),
(348,405,l),
(348,340,l),
(217,340,l),
(217,512,l),
(468,512,l),
(468,398,l),
(544,398,l),
(544,583,l),
(34,583,l),
(34,512,l),
(102,512,l),
(102,71,l),
(34,71,l),
(34,0,l)
);
}
);
};
layerId = "086393EE-48A8-42B6-AE05-10B6A30445E6";
shapes = (
{
closed = 1;
nodes = (
(309,0,l),
(309,83,l),
(217,83,l),
(217,262,l),
(344,262,l),
(344,197,l),
(414,197,l),
(414,406,l),
(344,406,l),
(344,346,l),
(217,346,l),
(217,500,l),
(468,500,l),
(468,392,l),
(544,392,l),
(544,583,l),
(35,583,l),
(35,500,l),
(102,500,l),
(102,83,l),
(35,83,l),
(35,0,l)
);
}
);
width = 571;
}
);
metricLeft = H;
unicode = 70;
userData = {
com.typemytype.robofont.layerData = {
b = {
anchors = (
);
components = (
);
contours = (
{
points = (
{
segmentType = line;
smooth = 0;
x = 990;
y = 1086;
},
{
segmentType = line;
smooth = 0;
x = 990;
y = 802;
},
{
segmentType = line;
smooth = 0;
x = 1062;
y = 802;
},
{
segmentType = line;
smooth = 0;
x = 1062;
y = 1152;
},
{
segmentType = line;
smooth = 0;
x = 122;
y = 1152;
},
{
segmentType = line;
smooth = 0;
x = 122;
y = 1086;
},
{
segmentType = line;
smooth = 0;
x = 286;
y = 1086;
},
{
segmentType = line;
smooth = 0;
x = 286;
y = 1039;
},
{
segmentType = line;
smooth = 0;
x = 363;
y = 1039;
},
{
segmentType = line;
smooth = 0;
x = 363;
y = 1086;
}
);
},
{
points = (
{
segmentType = line;
smooth = 0;
x = 286;
y = 1039;
},
{
segmentType = line;
smooth = 0;
x = 286;
y = 677;
},
{
segmentType = line;
smooth = 0;
x = 363;
y = 677;
},
{
segmentType = line;
smooth = 0;
x = 363;
y = 1039;
}
);
},
{
points = (
{
segmentType = line;
smooth = 0;
x = 286;
y = 677;
},
{
segmentType = line;
smooth = 0;
x = 286;
y = 65;
},
{
segmentType = line;
smooth = 0;
x = 122;
y = 65;
},
{
segmentType = line;
smooth = 0;
x = 122;
y = 0;
},
{
segmentType = line;
smooth = 0;
x = 552;
y = 0;
},
{
segmentType = line;
smooth = 0;
x = 552;
y = 65;
},
{
segmentType = line;
smooth = 0;
x = 363;
y = 65;
},
{
segmentType = line;
smooth = 0;
x = 363;
y = 539;
},
{
segmentType = line;
smooth = 0;
x = 824;
y = 539;
},
{
segmentType = line;
smooth = 0;
x = 824;
y = 378;
},
{
segmentType = line;
smooth = 0;
x = 886;
y = 378;
},
{
segmentType = line;
smooth = 0;
x = 886;
y = 764;
},
{
segmentType = line;
smooth = 0;
x = 824;
y = 764;
},
{
segmentType = line;
smooth = 0;
x = 824;
y = 601;
},
{
segmentType = line;
smooth = 0;
x = 363;
y = 601;
},
{
segmentType = line;
smooth = 0;
x = 363;
y = 677;
}
);
}
);
lib = {
};
name = F;
unicodes = (
);
width = 1177;
};
};
org.robofab.postScriptHintData = {
};
};
},
{
color = 3;
glyphname = G;
kernLeft = O;
kernRight = G;
layers = (
{
anchors = (
{
name = bottom;
pos = (355,0);
},
{
name = top;
pos = (353,583);
}
);
background = {
anchors = (
{
name = bottom;
pos = (355,0);
},
{
name = top;
pos = (353,583);
}
);
shapes = (
{
closed = 1;
nodes = (
(528,-11,o),
(633,98,o),
(633,264,cs),
(633,268,l),
(458,268,l),
(458,246,l),
(611,246,l),
(603,256,l),
(600,107,o),
(510,14,o),
(355,14,cs),
(182,14,o),
(82,124,o),
(82,290,cs),
(82,454,o),
(191,569,o),
(353,569,cs),
(467,569,o),
(550,525,o),
(594,423,c),
(617,423,l),
(617,583,l),
(591,583,l),
(591,445,l),
(604,445,l),
(567,537,o),
(482,594,o),
(353,594,cs),
(175,594,o),
(50,468,o),
(50,291,cs),
(50,112,o),
(166,-11,o),
(355,-11,cs)
);
}
);
};
layerId = "98C086B7-81AA-4491-8494-0C6A76849168";
shapes = (
{
closed = 1;
nodes = (
(528,-11,o),
(633,98,o),
(633,264,cs),
(633,268,l),
(458,268,l),
(458,246,l),
(611,246,l),
(603,256,l),
(600,107,o),
(510,14,o),
(355,14,cs),
(182,14,o),
(82,124,o),
(82,290,cs),
(82,454,o),
(191,569,o),
(353,569,cs),
(467,569,o),
(550,525,o),
(594,423,c),
(617,423,l),
(617,583,l),
(591,583,l),
(591,445,l),
(604,445,l),
(567,537,o),
(482,594,o),
(353,594,cs),
(175,594,o),
(50,468,o),
(50,291,cs),
(50,112,o),
(166,-11,o),
(355,-11,cs)
);
}
);
width = 693;
},
{
anchors = (
{
name = bottom;
pos = (357,0);
},
{
name = top;
pos = (340,583);
}
);
background = {
anchors = (
{
name = bottom;
pos = (391,0);
},
{
name = top;
pos = (399,583);
}
);
shapes = (
{
closed = 1;
nodes = (
(569,-10,o),
(701,110,o),
(701,292,cs),
(701,474,o),
(569,594,o),
(365,594,cs),
(161,594,o),
(29,474,o),
(29,292,cs),
(29,110,o),
(161,-10,o),
(365,-10,cs)
);
},
{
closed = 1;
nodes = (
(284,130,o),
(235,189,o),
(235,292,cs),
(235,395,o),
(284,454,o),
(365,454,cs),
(446,454,o),
(495,395,o),
(495,292,cs),
(495,189,o),
(446,130,o),
(365,130,cs)
);
}
);
};
layerId = "EFCDB4D9-E20B-4A8D-9DB5-150AD166B0AE";
shapes = (
{
closed = 1;
nodes = (
(540,-10,o),
(666,97,o),
(666,291,cs),
(666,326,l),
(404,326,l),
(404,206,l),
(558,206,l),
(496,296,l),
(494,178,o),
(469,130,o),
(373,130,cs),
(282,130,o),
(235,189,o),
(235,292,cs),
(235,392,o),
(291,454,o),
(384,454,cs),
(453,454,o),
(499,424,o),
(526,365,c),
(651,365,l),
(651,583,l),
(521,583,l),
(521,478,l),
(567,448,l),
(532,546,o),
(456,594,o),
(340,594,cs),
(156,594,o),
(29,474,o),
(29,290,cs),
(29,110,o),
(151,-10,o),
(356,-10,cs)
);
}
);
width = 700;
},
{
anchors = (
{
name = bottom;
pos = (347,0);
},
{
name = top;
pos = (351,563);
}
);
associatedMasterId = "98C086B7-81AA-4491-8494-0C6A76849168";
layerId = "3CA074FB-0A5B-4540-BB45-1EFB1721D41D";
name = "Original Regular";
shapes = (
{
closed = 1;
nodes = (
(538,-10,o),
(639,93,o),
(639,254,cs),
(639,284,l),
(440,284,l),
(440,228,l),
(604,228,l),
(559,235,l),
(559,106,o),
(470,52,o),
(359,50,cs),
(222,50,o),
(136,142,o),
(136,288,cs),
(136,427,o),
(221,514,o),
(357,514,cs),
(447,514,o),
(518,470,o),
(554,389,c),
(612,389,l),
(612,563,l),
(547,563,l),
(547,447,l),
(577,447,l),
(538,522,o),
(464,573,o),
(354,573,cs),
(174,573,o),
(48,457,o),
(48,283,cs),
(48,112,o),
(161,-10,o),
(356,-10,cs)
);
}
);
width = 684;
},
{
anchors = (
{
name = bottom;
pos = (356,0);
},
{
name = top;
pos = (347,583);
}
);
background = {
anchors = (
{
name = bottom;
pos = (356,0);
},
{
name = top;
pos = (347,583);
}
);
shapes = (
{
closed = 1;
nodes = (
(1334,-10,o),
(1450,98,o),
(1450,278,cs),
(1450,297,l),
(1231,297,l),
(1231,226,l),
(1385,226,l),
(1350,276,l),
(1347,143,o),
(1290,72,o),
(1164,72,cs),
(1032,72,o),
(959,157,o),
(959,291,cs),
(959,423,o),
(1041,512,o),
(1169,512,cs),
(1260,512,o),
(1325,475,o),
(1360,394,c),
(1434,394,l),
(1434,583,l),
(1356,583,l),
(1356,462,l),
(1386,447,l),
(1350,542,o),
(1269,594,o),
(1147,594,cs),
(967,594,o),
(840,471,o),
(840,291,cs),
(840,111,o),
(959,-10,o),
(1156,-10,cs)
);
},
{
closed = 1;
nodes = (
(552,-10,o),
(679,117,o),
(679,292,cs),
(679,467,o),
(552,594,o),
(359,594,cs),
(166,594,o),
(40,467,o),
(40,292,cs),
(40,117,o),
(166,-10,o),
(359,-10,cs)
);
},
{
closed = 1;
nodes = (
(237,89,o),
(159,168,o),
(159,291,cs),
(159,414,o),
(237,495,o),
(359,495,cs),
(481,495,o),
(560,414,o),
(560,291,cs),
(560,168,o),
(481,89,o),
(359,89,cs)
);
}
);
};
layerId = "086393EE-48A8-42B6-AE05-10B6A30445E6";
shapes = (
{
closed = 1;
nodes = (
(537,-10,o),
(650,97,o),
(650,281,cs),
(650,304,l),
(431,304,l),
(431,221,l),
(585,221,l),
(530,281,l),
(537,151,o),
(477,87,o),
(359,87,cs),
(237,87,o),
(159,168,o),
(159,291,cs),
(159,414,o),
(237,497,o),
(369,497,cs),
(460,497,o),
(525,462,o),
(560,387,c),
(634,387,l),
(634,583,l),
(556,583,l),
(556,466,l),
(586,447,l),
(556,547,o),
(469,594,o),
(350,594,cs),
(166,594,o),
(40,467,o),
(40,290,cs),
(40,117,o),
(166,-10,o),
(356,-10,cs)
);
}
);
width = 696.5;
}
);
metricLeft = O;
unicode = 71;
userData = {
com.typemytype.robofont.layerData = {
b = {
anchors = (
);
components = (
);
contours = (
);
lib = {
};
name = G;
unicodes = (
);
width = 1394;
};
};
org.robofab.postScriptHintData = {
};
};
},
{
color = 3;
glyphname = H;
kernLeft = H;
kernRight = H;
layers = (
{
anchors = (
{
name = bottom;
pos = (345,0);
},
{
name = top;
pos = (345,583);
}
);
background = {
anchors = (
{
name = bottom;
pos = (345,0);
},
{
name = top;
pos = (345,583);
}
);
shapes = (
{
closed = 1;
nodes = (
(240,0,l),
(240,22,l),
(155,22,l),
(155,286,l),
(535,286,l),
(535,22,l),
(450,22,l),
(450,0,l),
(650,0,l),
(650,22,l),
(565,22,l),
(565,561,l),
(650,561,l),
(650,583,l),
(450,583,l),
(450,561,l),
(535,561,l),
(535,308,l),
(155,308,l),
(155,561,l),
(240,561,l),
(240,583,l),
(40,583,l),
(40,561,l),
(125,561,l),
(125,22,l),
(40,22,l),
(40,0,l)
);
}
);
};
layerId = "98C086B7-81AA-4491-8494-0C6A76849168";
shapes = (
{
closed = 1;
nodes = (
(240,0,l),
(240,22,l),
(155,22,l),
(155,286,l),
(535,286,l),
(535,22,l),
(450,22,l),
(450,0,l),
(650,0,l),
(650,22,l),
(565,22,l),
(565,561,l),
(650,561,l),
(650,583,l),
(450,583,l),
(450,561,l),
(535,561,l),
(535,308,l),
(155,308,l),
(155,561,l),
(240,561,l),
(240,583,l),
(40,583,l),
(40,561,l),
(125,561,l),
(125,22,l),
(40,22,l),
(40,0,l)
);
}
);
width = 690;
},
{
anchors = (
{
name = bottom;
pos = (363,0);
},
{
name = top;
pos = (363,583);
}
);
background = {
anchors = (
{
name = bottom;
pos = (387,0);
},
{
name = top;
pos = (363,583);
}
);
shapes = (
{
closed = 1;
nodes = (
(330,0,l),
(330,120,l),
(280,120,l),
(280,240,l),
(446,240,l),
(446,120,l),
(396,120,l),
(396,0,l),
(696,0,l),
(696,120,l),
(646,120,l),
(646,463,l),
(696,463,l),
(696,583,l),
(396,583,l),
(396,463,l),
(446,463,l),
(446,350,l),
(280,350,l),
(280,463,l),
(330,463,l),
(330,583,l),
(30,583,l),
(30,463,l),
(80,463,l),
(80,120,l),
(30,120,l),
(30,0,l)
);
}
);
};
layerId = "EFCDB4D9-E20B-4A8D-9DB5-150AD166B0AE";
shapes = (
{
closed = 1;
nodes = (
(330,0,l),
(330,120,l),
(280,120,l),
(280,233,l),
(446,233,l),
(446,120,l),
(396,120,l),
(396,0,l),
(696,0,l),
(696,120,l),
(646,120,l),
(646,463,l),
(696,463,l),
(696,583,l),
(396,583,l),
(396,463,l),
(446,463,l),
(446,357,l),
(280,357,l),
(280,463,l),
(330,463,l),
(330,583,l),
(30,583,l),
(30,463,l),
(80,463,l),
(80,120,l),
(30,120,l),
(30,0,l)
);
}
);
width = 726;
},
{
anchors = (
{
name = bottom;
pos = (347,0);
},
{
name = top;
pos = (352,563);
}
);
associatedMasterId = "98C086B7-81AA-4491-8494-0C6A76849168";
layerId = "79CB94FA-515B-4E31-BA89-5E24653B377A";
name = "Original Regular";
shapes = (
{
closed = 1;
nodes = (
(277,0,l),
(277,53,l),
(199,53,l),
(199,261,l),
(499,261,l),
(499,53,l),
(420,53,l),
(420,0,l),
(658,0,l),
(658,53,l),
(580,53,l),
(580,510,l),
(658,510,l),
(658,563,l),
(420,563,l),
(420,510,l),
(499,510,l),
(499,318,l),
(199,318,l),
(199,510,l),
(277,510,l),
(277,563,l),
(39,563,l),
(39,510,l),
(117,510,l),
(117,53,l),
(39,53,l),
(39,0,l)
);
}
);
width = 697;
},
{
anchors = (
{
name = bottom;
pos = (353,0);
},
{
name = top;
pos = (353,583);
}
);
background = {
anchors = (
{
name = bottom;
pos = (353,0);
},
{
name = top;
pos = (353,583);
}
);
shapes = (
{
closed = 1;
nodes = (
(284,0,l),
(284,71,l),
(217,71,l),
(217,260,l),
(490,260,l),
(490,71,l),
(422,71,l),
(422,0,l),
(672,0,l),
(672,71,l),
(605,71,l),
(605,512,l),
(672,512,l),
(672,583,l),
(422,583,l),
(422,512,l),
(490,512,l),
(490,333,l),
(217,333,l),
(217,512,l),
(284,512,l),
(284,583,l),
(34,583,l),
(34,512,l),
(102,512,l),
(102,71,l),
(34,71,l),
(34,0,l)
);
}
);
};
layerId = "086393EE-48A8-42B6-AE05-10B6A30445E6";
shapes = (
{
closed = 1;
nodes = (
(284,0,l),
(284,83,l),
(217,83,l),
(217,256,l),
(490,256,l),
(490,83,l),
(422,83,l),
(422,0,l),
(672,0,l),
(672,83,l),
(605,83,l),
(605,500,l),
(672,500,l),
(672,583,l),
(422,583,l),
(422,500,l),
(490,500,l),
(490,336,l),
(217,336,l),
(217,500,l),
(284,500,l),
(284,583,l),
(35,583,l),
(35,500,l),
(102,500,l),
(102,83,l),
(35,83,l),
(35,0,l)
);
}
);
width = 707;
}
);
unicode = 72;
userData = {
com.typemytype.robofont.layerData = {
b = {
anchors = (
);
components = (
);
contours = (
);
lib = {
};
name = H;
unicodes = (
);
width = 1506;
};
};
org.robofab.postScriptHintData = {
};
};
},
{
color = 3;
glyphname = I;
kernLeft = H;
kernRight = H;
layers = (
{
anchors = (
{
name = bottom;
pos = (141,0);
},
{
name = ogonek;
pos = (170,0);
},
{
name = top;
pos = (142,583);
}
);
background = {
anchors = (
{
name = bottom;
pos = (141,0);
},
{
name = ogonek;
pos = (170,0);
},
{
name = top;
pos = (142,583);
}
);
shapes = (
{
closed = 1;
nodes = (
(240,0,l),
(240,22,l),
(155,22,l),
(155,561,l),
(240,561,l),
(240,583,l),
(40,583,l),
(40,561,l),
(125,561,l),
(125,22,l),
(40,22,l),
(40,0,l)
);
}
);
};
layerId = "98C086B7-81AA-4491-8494-0C6A76849168";
shapes = (
{
closed = 1;
nodes = (
(240,0,l),
(240,22,l),
(155,22,l),
(155,561,l),
(240,561,l),
(240,583,l),
(40,583,l),
(40,561,l),
(125,561,l),
(125,22,l),
(40,22,l),
(40,0,l)
);
}
);
width = 280;
},
{
anchors = (
{
name = bottom;
pos = (180,0);
},
{
name = ogonek;
pos = (230,0);
},
{
name = top;
pos = (180,583);
}
);
background = {
anchors = (
{
name = bottom;
pos = (180,0);
},
{
name = ogonek;
pos = (200,0);
},
{
name = top;
pos = (180,583);
}
);
shapes = (
{
closed = 1;
nodes = (
(330,0,l),
(330,119,l),
(280,119,l),
(280,463,l),
(330,463,l),
(330,583,l),
(30,583,l),
(30,463,l),
(80,463,l),
(80,119,l),
(30,119,l),
(30,0,l)
);
}
);
};
layerId = "EFCDB4D9-E20B-4A8D-9DB5-150AD166B0AE";
shapes = (
{
closed = 1;
nodes = (
(330,0,l),
(330,120,l),
(280,120,l),
(280,463,l),
(330,463,l),
(330,583,l),
(30,583,l),
(30,463,l),
(80,463,l),
(80,120,l),
(30,120,l),
(30,0,l)
);
}
);
width = 360;
},
{
anchors = (
{
name = bottom;
pos = (169,0);
},
{
name = ogonek;
pos = (189,0);
},
{
name = top;
pos = (170,563);
}
);
associatedMasterId = "98C086B7-81AA-4491-8494-0C6A76849168";
layerId = "7983CBBB-DC3A-4CA9-B5B1-40AC9BBCD8AC";
name = "Original Regular";
shapes = (
{
closed = 1;
nodes = (
(289,0,l),
(289,53,l),
(210,53,l),
(210,510,l),
(289,510,l),
(289,563,l),
(50,563,l),
(50,510,l),
(128,510,l),
(128,53,l),
(50,53,l),
(50,0,l)
);
}
);
width = 339;
},
{
anchors = (
{
name = bottom;
pos = (160,0);
},
{
name = ogonek;
pos = (199,0);
},
{
name = top;
pos = (160,583);
}
);
background = {
anchors = (
{
name = bottom;
pos = (160,0);
},
{
name = ogonek;
pos = (199,0);
},
{
name = top;
pos = (160,583);
}
);
shapes = (
{
closed = 1;
nodes = (
(284,0,l),
(284,71,l),
(217,71,l),
(217,512,l),
(284,512,l),
(284,583,l),
(34,583,l),
(34,512,l),
(102,512,l),
(102,71,l),
(34,71,l),
(34,0,l)
);
}
);
};
layerId = "086393EE-48A8-42B6-AE05-10B6A30445E6";
shapes = (
{
closed = 1;
nodes = (
(284,0,l),
(284,83,l),
(217,83,l),
(217,500,l),
(284,500,l),
(284,583,l),
(35,583,l),
(35,500,l),
(102,500,l),
(102,83,l),
(35,83,l),
(35,0,l)
);
}
);
width = 319;
}
);
metricLeft = H;
metricRight = H;
unicode = 73;
userData = {
com.typemytype.robofont.layerData = {
b = {
anchors = (
);
components = (
);
contours = (
);
lib = {
};
name = I;
unicodes = (
);
width = 626;
};
};
org.robofab.postScriptHintData = {
};
};
},
{
color = 3;
glyphname = J;
kernLeft = J;
kernRight = J;
layers = (
{
anchors = (
{
name = top;
pos = (135,583);
}
);
background = {
anchors = (
{
name = top;
pos = (135,583);
}
);
shapes = (
{
closed = 1;
nodes = (
(117,-171,o),
(150,-139,o),
(150,-74,cs),
(150,561,l),
(235,561,l),
(235,583,l),
(25,583,l),
(25,561,l),
(120,561,l),
(120,-77,ls),
(120,-128,o),
(97,-149,o),
(47,-149,cs),
(2,-149,l),
(2,-171,l),
(49,-171,ls)
);
}
);
};
layerId = "98C086B7-81AA-4491-8494-0C6A76849168";
shapes = (
{
closed = 1;
nodes = (
(117,-171,o),
(150,-139,o),
(150,-74,cs),
(150,561,l),
(235,561,l),
(235,583,l),
(25,583,l),
(25,561,l),
(120,561,l),
(120,-77,ls),
(120,-128,o),
(97,-149,o),
(47,-149,cs),
(2,-149,l),
(2,-171,l),
(49,-171,ls)
);
}
);
width = 270;
},
{
anchors = (
{
name = top;
pos = (185,583);
}
);
background = {
anchors = (
{
name = top;
pos = (185,583);
}
);
shapes = (
{
closed = 1;
nodes = (
(205,-171,o),
(285,-94,o),
(285,45,cs),
(285,463,l),
(335,463,l),
(335,583,l),
(25,583,l),
(25,463,l),
(85,463,l),
(85,42,ls),
(85,-4,o),
(60,-31,o),
(9,-31,cs),
(-35,-31,l),
(-35,-171,l),
(50,-171,ls)
);
}
);
};
layerId = "EFCDB4D9-E20B-4A8D-9DB5-150AD166B0AE";
shapes = (
{
closed = 1;
nodes = (
(205,-171,o),
(285,-94,o),
(285,45,cs),
(285,463,l),
(335,463,l),
(335,583,l),
(25,583,l),
(25,463,l),
(85,463,l),
(85,42,ls),
(85,-4,o),
(60,-31,o),
(9,-31,cs),
(-35,-31,l),
(-35,-171,l),
(50,-171,ls)
);
}
);
width = 360;
},
{
anchors = (
{
name = top;
pos = (191,563);
}
);
associatedMasterId = "98C086B7-81AA-4491-8494-0C6A76849168";
layerId = "10C0E7FF-24D5-4BB4-B357-ACB1CAACDB4A";
name = "Original Regular";
shapes = (
{
closed = 1;
nodes = (
(106,-106,l),
(198,-106,o),
(231,-57,o),
(231,41,cs),
(231,510,l),
(304,510,l),
(304,563,l),
(73,563,l),
(73,510,l),
(150,510,l),
(150,40,ls),
(150,-10,o),
(142,-42,o),
(93,-42,cs),
(33,-42,l),
(33,-106,l)
);
}
);
width = 326;
},
{
anchors = (
{
name = top;
pos = (160,583);
}
);
background = {
anchors = (
{
name = top;
pos = (160,583);
}
);
shapes = (
{
closed = 1;
nodes = (
(161,-171,o),
(218,-116,o),
(218,-14,cs),
(218,512,l),
(285,512,l),
(285,583,l),
(25,583,l),
(25,512,l),
(103,512,l),
(103,-17,ls),
(103,-66,o),
(79,-90,o),
(28,-90,cs),
(-16,-90,l),
(-16,-171,l),
(50,-171,ls)
);
}
);
};
layerId = "086393EE-48A8-42B6-AE05-10B6A30445E6";
shapes = (
{
closed = 1;
nodes = (
(161,-171,o),
(218,-111,o),
(218,0,cs),
(218,500,l),
(285,500,l),
(285,583,l),
(25,583,l),
(25,500,l),
(103,500,l),
(103,-3,ls),
(103,-50,o),
(79,-75,o),
(28,-75,cs),
(-16,-75,l),
(-16,-171,l),
(50,-171,ls)
);
}
);
width = 315;
}
);
unicode = 74;
userData = {
com.typemytype.robofont.layerData = {
b = {
anchors = (
);
components = (
);
contours = (
);
lib = {
};
name = J;
unicodes = (
);
width = 551;
};
};
org.robofab.postScriptHintData = {
};
};
},
{
color = 3;
glyphname = I_J.loclNLD;
kernLeft = IJ;
kernRight = U;
layers = (
{
anchors = (
{
name = top;
pos = (288,583);
}
);
background = {
anchors = (
{
name = top;
pos = (288,583);
}
);
shapes = (
{
closed = 1;
nodes = (
(419,-11,o),
(491,54,o),
(491,181,cs),
(491,561,l),
(576,561,l),
(576,583,l),
(376,583,l),
(376,561,l),
(461,561,l),
(461,358,ls),
(461,243,o),
(405,180,o),
(287,180,cs),
(168,180,o),
(115,241,o),
(115,358,cs),
(115,561,l),
(200,561,l),
(200,583,l),
(0,583,l),
(0,561,l),
(85,561,l),
(85,355,ls),
(85,230,o),
(149,156,o),
(287,156,cs),
(386,156,o),
(449,203,o),
(474,286,c),
(461,287,l),
(461,182,ls),
(461,65,o),
(402,13,o),
(274,13,cs),
(202,13,o),
(142,27,o),
(104,58,c),
(90,33,l),
(138,3,o),
(194,-11,o),
(274,-11,cs)
);
}
);
};
layerId = "98C086B7-81AA-4491-8494-0C6A76849168";
shapes = (
{
closed = 1;
nodes = (
(419,-11,o),
(491,54,o),
(491,181,cs),
(491,561,l),
(576,561,l),
(576,583,l),
(376,583,l),
(376,561,l),
(461,561,l),
(461,358,ls),
(461,243,o),
(405,180,o),
(287,180,cs),
(168,180,o),
(115,241,o),
(115,358,cs),
(115,561,l),
(200,561,l),
(200,583,l),
(0,583,l),
(0,561,l),
(85,561,l),
(85,355,ls),
(85,230,o),
(149,156,o),
(287,156,cs),
(386,156,o),
(449,203,o),
(474,286,c),
(461,287,l),
(461,182,ls),
(461,65,o),
(402,13,o),
(274,13,cs),
(202,13,o),
(142,27,o),
(104,58,c),
(90,33,l),
(138,3,o),
(194,-11,o),
(274,-11,cs)
);
}
);
width = 611;
},
{
anchors = (
{
name = top;
pos = (349,583);
}
);
background = {
anchors = (
{
name = top;
pos = (349,583);
}
);
shapes = (
{
closed = 1;
nodes = (
(505,-9,o),
(626,86,o),
(626,254,cs),
(626,463,l),
(676,463,l),
(676,583,l),
(376,583,l),
(376,463,l),
(426,463,l),
(426,406,ls),
(426,347,o),
(401,315,o),
(349,315,cs),
(297,315,o),
(272,347,o),
(272,406,cs),
(272,463,l),
(322,463,l),
(322,583,l),
(22,583,l),
(22,463,l),
(72,463,l),
(72,404,ls),
(72,256,o),
(166,180,o),
(292,180,cs),
(367,180,o),
(408,195,o),
(451,248,c),
(426,307,l),
(426,240,ls),
(426,170,o),
(391,131,o),
(318,131,cs),
(251,131,o),
(194,153,o),
(149,176,c),
(90,49,l),
(136,19,o),
(222,-9,o),
(327,-9,cs)
);
}
);
};
layerId = "EFCDB4D9-E20B-4A8D-9DB5-150AD166B0AE";
shapes = (
{
closed = 1;
nodes = (
(498,-10,o),
(626,85,o),
(626,243,cs),
(626,463,l),
(676,463,l),
(676,583,l),
(376,583,l),
(376,463,l),
(426,463,l),
(426,386,ls),
(426,343,o),
(401,315,o),
(349,315,cs),
(297,315,o),
(272,343,o),
(272,386,cs),
(272,463,l),
(322,463,l),
(322,583,l),
(22,583,l),
(22,463,l),
(72,463,l),
(72,384,ls),
(72,246,o),
(166,180,o),
(292,180,cs),
(367,180,o),
(408,197,o),
(451,251,c),
(426,307,l),
(426,219,ls),
(426,169,o),
(387,130,o),
(306,130,cs),
(232,130,o),
(169,152,o),
(119,175,c),
(60,48,l),
(109,18,o),
(199,-10,o),
(310,-10,cs)
);
}
);
width = 698;
},
{
associatedMasterId = "98C086B7-81AA-4491-8494-0C6A76849168";
layerId = "0AE5DACE-51A0-4C81-9ABA-F81E2D7B3764";
name = "Original Regular";
shapes = (
{
ref = I;
},
{
pos = (280,0);
ref = J;
}
);
width = 550;
},
{
anchors = (
{
name = top;
pos = (319,583);
}
);
background = {
anchors = (
{
name = top;
pos = (319,583);
}
);
shapes = (
{
closed = 1;
nodes = (
(459,-10,o),
(559,70,o),
(559,212,cs),
(559,512,l),
(626,512,l),
(626,583,l),
(376,583,l),
(376,512,l),
(444,512,l),
(444,372,ls),
(444,293,o),
(403,248,o),
(318,248,cs),
(233,248,o),
(194,292,o),
(194,372,cs),
(194,512,l),
(261,512,l),
(261,583,l),
(11,583,l),
(11,512,l),
(79,512,l),
(79,370,ls),
(79,238,o),
(158,168,o),
(290,168,cs),
(377,168,o),
(429,200,o),
(463,269,c),
(444,297,l),
(444,201,ls),
(444,117,o),
(395,72,o),
(290,72,cs),
(217,72,o),
(156,90,o),
(112,117,c),
(75,41,l),
(124,11,o),
(197,-10,o),
(292,-10,cs)
);
}
);
};
layerId = "086393EE-48A8-42B6-AE05-10B6A30445E6";
shapes = (
{
closed = 1;
nodes = (
(459,-10,o),
(559,73,o),
(559,220,cs),
(559,500,l),
(626,500,l),
(626,583,l),
(376,583,l),
(376,500,l),
(444,500,l),
(444,386,ls),
(444,306,o),
(399,266,o),
(318,266,cs),
(236,266,o),
(194,305,o),
(194,386,cs),
(194,500,l),
(261,500,l),
(261,583,l),
(12,583,l),
(12,500,l),
(79,500,l),
(79,373,ls),
(79,250,o),
(158,171,o),
(293,171,cs),
(377,171,o),
(429,199,o),
(463,264,c),
(444,300,l),
(444,205,ls),
(444,130,o),
(395,89,o),
(290,89,cs),
(217,89,o),
(156,110,o),
(115,136,c),
(75,42,l),
(124,12,o),
(197,-10,o),
(292,-10,cs)
);
}
);
width = 655;
}
);
metricRight = U;
userData = {
com.typemytype.robofont.layerData = {
b = {
anchors = (
);
components = (
);
contours = (
);
lib = {
};
name = IJ;
unicodes = (
);
width = 1177;
};
};
org.robofab.postScriptHintData = {
};
};
},
{
color = 3;
glyphname = K;
kernLeft = H;
kernRight = K;
layers = (
{
anchors = (
{
name = bottom;
pos = (312,0);
},
{
name = top;
pos = (303,583);
}
);
background = {
anchors = (
{
name = bottom;
pos = (312,0);
},
{
name = top;
pos = (303,583);
}
);
shapes = (
{
closed = 1;
nodes = (
(240,0,l),
(240,22,l),
(155,22,l),
(155,304,l),
(459,22,l),
(384,22,l),
(384,0,l),
(579,0,l),
(579,22,l),
(499,22,l),
(180,318,l),
(179,297,l),
(478,561,l),
(558,561,l),
(558,583,l),
(366,583,l),
(366,561,l),
(441,561,l),
(155,309,l),
(155,561,l),
(240,561,l),
(240,583,l),
(40,583,l),
(40,561,l),
(125,561,l),
(125,22,l),
(40,22,l),
(40,0,l)
);
}
);
};
guides = (
{
pos = (208,290);
}
);
layerId = "98C086B7-81AA-4491-8494-0C6A76849168";
shapes = (
{
closed = 1;
nodes = (
(240,0,l),
(240,22,l),
(155,22,l),
(155,304,l),
(459,22,l),
(384,22,l),
(384,0,l),
(579,0,l),
(579,22,l),
(499,22,l),
(180,318,l),
(179,297,l),
(478,561,l),
(558,561,l),
(558,583,l),
(366,583,l),
(366,561,l),
(441,561,l),
(155,309,l),
(155,561,l),
(240,561,l),
(240,583,l),
(40,583,l),
(40,561,l),
(125,561,l),
(125,22,l),
(40,22,l),
(40,0,l)
);
}
);
width = 579;
},
{
anchors = (
{
name = bottom;
pos = (357,0);
},
{
name = top;
pos = (359,583);
}
);
background = {
anchors = (
{
name = bottom;
pos = (357,0);
},
{
name = top;
pos = (359,583);
}
);
shapes = (
{
closed = 1;
nodes = (
(330,0,l),
(330,120,l),
(280,120,l),
(280,287,l),
(418,120,l),
(383,120,l),
(383,0,l),
(694,0,l),
(694,120,l),
(649,120,l),
(454,346,l),
(454,284,l),
(630,463,l),
(675,463,l),
(675,583,l),
(381,583,l),
(381,463,l),
(416,463,l),
(280,323,l),
(280,463,l),
(330,463,l),
(330,583,l),
(30,583,l),
(30,463,l),
(80,463,l),
(80,120,l),
(30,120,l),
(30,0,l)
);
}
);
};
guides = (
{
pos = (202,290);
}
);
layerId = "EFCDB4D9-E20B-4A8D-9DB5-150AD166B0AE";
shapes = (
{
closed = 1;
nodes = (
(330,0,l),
(330,120,l),
(280,120,l),
(280,287,l),
(418,120,l),
(383,120,l),
(383,0,l),
(694,0,l),
(694,120,l),
(649,120,l),
(454,346,l),
(454,284,l),
(630,463,l),
(675,463,l),
(675,583,l),
(381,583,l),
(381,463,l),
(416,463,l),
(280,323,l),
(280,463,l),
(330,463,l),
(330,583,l),
(30,583,l),
(30,463,l),
(80,463,l),
(80,120,l),
(30,120,l),
(30,0,l)
);
}
);
width = 694;
},
{
anchors = (
{
name = bottom;
pos = (317,0);
},
{
name = top;
pos = (317,563);
}
);
associatedMasterId = "98C086B7-81AA-4491-8494-0C6A76849168";
layerId = "376E0CF9-7B05-46CD-AC7F-F4C0FF4F1752";
name = "Original Regular";
shapes = (
{
closed = 1;
nodes = (
(277,0,l),
(277,53,l),
(199,53,l),
(199,267,l),
(430,53,l),
(364,53,l),
(364,0,l),
(605,0,l),
(605,53,l),
(530,53,l),
(282,284,l),
(526,510,l),
(600,510,l),
(600,563,l),
(367,563,l),
(367,510,l),
(431,510,l),
(199,295,l),
(199,510,l),
(277,510,l),
(277,563,l),
(39,563,l),
(39,510,l),
(117,510,l),
(117,53,l),
(39,53,l),
(39,0,l)
);
}
);
width = 633;
},
{
anchors = (
{
name = bottom;
pos = (334,0);
},
{
name = top;
pos = (330,583);
}
);
background = {
anchors = (
{
name = bottom;
pos = (334,0);
},
{
name = top;
pos = (330,583);
}
);
shapes = (
{
closed = 1;
nodes = (
(284,0,l),
(284,71,l),
(217,71,l),
(217,296,l),
(438,71,l),
(383,71,l),
(383,0,l),
(636,0,l),
(636,71,l),
(573,71,l),
(316,332,l),
(316,291,l),
(553,512,l),
(616,512,l),
(616,583,l),
(373,583,l),
(373,512,l),
(428,512,l),
(217,316,l),
(217,512,l),
(284,512,l),
(284,583,l),
(34,583,l),
(34,512,l),
(102,512,l),
(102,71,l),
(34,71,l),
(34,0,l)
);
}
);
};
layerId = "086393EE-48A8-42B6-AE05-10B6A30445E6";
shapes = (
{
closed = 1;
nodes = (
(284,0,l),
(284,83,l),
(217,83,l),
(217,293,l),
(435,83,l),
(380,83,l),
(380,0,l),
(636,0,l),
(636,83,l),
(573,83,l),
(311,336,l),
(312,289,l),
(555,500,l),
(618,500,l),
(618,583,l),
(373,583,l),
(373,500,l),
(428,500,l),
(217,318,l),
(217,500,l),
(284,500,l),
(284,583,l),
(35,583,l),
(35,500,l),
(102,500,l),
(102,83,l),
(35,83,l),
(35,0,l)
);
}
);
width = 636;
}
);
metricLeft = H;
unicode = 75;
userData = {
com.typemytype.robofont.guides = (
{
angle = 0;
isGlobal = 0;
magnetic = 5;
x = 467;
y = 593;
}
);
com.typemytype.robofont.layerData = {
b = {
anchors = (
);
components = (
);
contours = (
);
lib = {
};
name = K;
unicodes = (
);
width = 1304;
};
};
org.robofab.postScriptHintData = {
};
};
},
{
color = 3;
glyphname = L;
kernLeft = H;
kernRight = L;
layers = (
{
anchors = (
{
name = bottom;
pos = (293,0);
},
{
name = dot;
pos = (458,393);
},
{
name = top;
pos = (140,583);
},
{
name = topright;
pos = (303,583);
}
);
background = {
anchors = (
{
name = bottom;
pos = (293,0);
},
{
name = dot;
pos = (458,393);
},
{
name = top;
pos = (140,583);
},
{
name = topright;
pos = (303,583);
}
);
shapes = (
{
closed = 1;
nodes = (
(471,0,l),
(471,180,l),
(445,180,l),
(445,22,l),
(155,22,l),
(155,561,l),
(240,561,l),
(240,583,l),
(40,583,l),
(40,561,l),
(125,561,l),
(125,22,l),
(40,22,l),
(40,0,l)
);
}
);
};
guides = (
{
angle = 90;
pos = (988,182);
}
);
layerId = "98C086B7-81AA-4491-8494-0C6A76849168";
shapes = (
{
closed = 1;
nodes = (
(471,0,l),
(471,180,l),
(445,180,l),
(445,22,l),
(155,22,l),
(155,561,l),
(240,561,l),
(240,583,l),
(40,583,l),
(40,561,l),
(125,561,l),
(125,22,l),
(40,22,l),
(40,0,l)
);
}
);
width = 501;
},
{
anchors = (
{
name = bottom;
pos = (286,0);
},
{
name = dot;
pos = (493,402);
},
{
name = top;
pos = (180,583);
},
{
name = topright;
pos = (366,583);
}
);
background = {
anchors = (
{
name = bottom;
pos = (286,0);
},
{
name = top;
pos = (180,583);
},
{
name = topright;
pos = (384,583);
}
);
shapes = (
{
closed = 1;
nodes = (
(555,0,l),
(555,265,l),
(430,265,l),
(430,120,l),
(280,120,l),
(280,473,l),
(330,473,l),
(330,583,l),
(30,583,l),
(30,473,l),
(80,473,l),
(80,120,l),
(30,120,l),
(30,0,l)
);
}
);
};
layerId = "EFCDB4D9-E20B-4A8D-9DB5-150AD166B0AE";
shapes = (
{
closed = 1;
nodes = (
(555,0,l),
(555,265,l),
(430,265,l),
(430,120,l),
(280,120,l),
(280,463,l),
(330,463,l),
(330,583,l),
(30,583,l),
(30,463,l),
(80,463,l),
(80,120,l),
(30,120,l),
(30,0,l)
);
}
);
width = 575;
},
{
anchors = (
{
name = bottom;
pos = (276,0);
},
{
name = top;
pos = (158,563);
},
{
name = topright;
pos = (403,563);
}
);
associatedMasterId = "98C086B7-81AA-4491-8494-0C6A76849168";
layerId = "B563AFB4-62B7-4AD9-A50C-F8C410E31337";
name = "Original Regular";
shapes = (
{
closed = 1;
nodes = (
(499,0,l),
(499,226,l),
(433,226,l),
(433,53,l),
(199,53,l),
(199,510,l),
(277,510,l),
(277,563,l),
(39,563,l),
(39,510,l),
(117,510,l),
(117,53,l),
(39,53,l),
(39,0,l)
);
}
);
width = 525;
},
{
anchors = (
{
name = bottom;
pos = (289,0);
},
{
name = dot;
pos = (475,399);
},
{
name = top;
pos = (159,583);
},
{
name = topright;
pos = (334,583);
}
);
background = {
anchors = (
{
name = bottom;
pos = (289,0);
},
{
name = dot;
pos = (475,398);
},
{
name = top;
pos = (159,583);
},
{
name = topright;
pos = (334,583);
}
);
shapes = (
{
closed = 1;
nodes = (
(512,0,l),
(512,223,l),
(437,223,l),
(437,71,l),
(217,71,l),
(217,512,l),
(284,512,l),
(284,583,l),
(34,583,l),
(34,512,l),
(102,512,l),
(102,71,l),
(34,71,l),
(34,0,l)
);
}
);
};
layerId = "086393EE-48A8-42B6-AE05-10B6A30445E6";
shapes = (
{
closed = 1;
nodes = (
(512,0,l),
(512,233,l),
(427,233,l),
(427,83,l),
(217,83,l),
(217,500,l),
(284,500,l),
(284,583,l),
(35,583,l),
(35,500,l),
(102,500,l),
(102,83,l),
(35,83,l),
(35,0,l)
);
}
);
width = 537;
}
);
metricLeft = H;
unicode = 76;
userData = {
com.typemytype.robofont.layerData = {
b = {
anchors = (
);
components = (
);
contours = (
);
lib = {
};
name = L;
unicodes = (
);
width = 1055;
};
};
org.robofab.postScriptHintData = {
};
};
},
{
color = 3;
glyphname = Lslash;
kernLeft = H;
kernRight = L;
layers = (
{
background = {
shapes = (
{
closed = 1;
nodes = (
(125,260,l),
(125,22,l),
(40,22,l),
(40,0,l),
(471,0,l),
(471,180,l),
(445,180,l),
(445,22,l),
(155,22,l),
(155,277,l),
(283,351,l),
(272,370,l),
(155,302,l),
(155,561,l),
(240,561,l),
(240,583,l),
(40,583,l),
(40,561,l),
(125,561,l),
(125,285,l),
(52,243,l),
(63,224,l)
);
}
);
};
layerId = "98C086B7-81AA-4491-8494-0C6A76849168";
shapes = (
{
closed = 1;
nodes = (
(125,260,l),
(125,22,l),
(40,22,l),
(40,0,l),
(471,0,l),
(471,180,l),
(445,180,l),
(445,22,l),
(155,22,l),
(155,277,l),
(283,351,l),
(272,370,l),
(155,302,l),
(155,561,l),
(240,561,l),
(240,583,l),
(40,583,l),
(40,561,l),
(125,561,l),
(125,285,l),
(52,243,l),
(63,224,l)
);
}
);
width = 501;
},
{
background = {
shapes = (
{
closed = 1;
nodes = (
(417,315,l),
(380,419,l),
(3,282,l),
(40,178,l)
);
},
{
closed = 1;
nodes = (
(555,0,l),
(555,265,l),
(430,265,l),
(430,120,l),
(280,120,l),
(280,463,l),
(330,463,l),
(330,583,l),
(30,583,l),
(30,463,l),
(80,463,l),
(80,120,l),
(30,120,l),
(30,0,l)
);
}
);
};
layerId = "EFCDB4D9-E20B-4A8D-9DB5-150AD166B0AE";
shapes = (
{
closed = 1;
nodes = (
(80,193,l),
(80,120,l),
(30,120,l),
(30,0,l),
(555,0,l),
(555,265,l),
(430,265,l),
(430,120,l),
(280,120,l),
(280,265,l),
(417,315,l),
(380,419,l),
(280,383,l),
(280,463,l),
(330,463,l),
(330,583,l),
(30,583,l),
(30,463,l),
(80,463,l),
(80,310,l),
(3,282,l),
(40,178,l)
);
}
);
width = 575;
},
{
associatedMasterId = "98C086B7-81AA-4491-8494-0C6A76849168";
layerId = "24A688CE-A1DE-40D3-808C-095F4491B900";
name = "Original Regular";
shapes = (
{
closed = 1;
nodes = (
(338,347,l),
(338,401,l),
(39,250,l),
(39,199,l)
);
},
{
ref = L;
}
);
width = 525;
},
{
background = {
shapes = (
{
closed = 1;
nodes = (
(102,218,l),
(102,83,l),
(34,83,l),
(34,0,l),
(512,0,l),
(512,233,l),
(427,233,l),
(427,83,l),
(217,83,l),
(217,270,l),
(349,329,l),
(325,401,l),
(217,353,l),
(217,500,l),
(284,500,l),
(284,583,l),
(34,583,l),
(34,500,l),
(102,500,l),
(102,301,l),
(27,267,l),
(51,195,l)
);
}
);
};
layerId = "086393EE-48A8-42B6-AE05-10B6A30445E6";
shapes = (
{
closed = 1;
nodes = (
(102,218,l),
(102,83,l),
(35,83,l),
(35,0,l),
(512,0,l),
(512,233,l),
(427,233,l),
(427,83,l),
(217,83,l),
(217,270,l),
(354,331,l),
(325,401,l),
(217,353,l),
(217,500,l),
(284,500,l),
(284,583,l),
(35,583,l),
(35,500,l),
(102,500,l),
(102,301,l),
(22,265,l),
(51,195,l)
);
}
);
width = 537;
}
);
metricRight = L;
metricWidth = L;
unicode = 321;
userData = {
com.typemytype.robofont.layerData = {
b = {
anchors = (
);
components = (
);
contours = (
);
lib = {
};
name = Lslash;
unicodes = (
);
width = 1243;
};
};
org.robofab.postScriptHintData = {
};
};
},
{
color = 3;
glyphname = M;
kernLeft = H;
kernRight = H;
layers = (
{
anchors = (
{
name = bottom;
pos = (391,0);
},
{
name = top;
pos = (391,583);
}
);
background = {
anchors = (
{
name = bottom;
pos = (391,0);
},
{
name = top;
pos = (391,583);
}
);
shapes = (
{
closed = 1;
nodes = (
(228,0,l),
(228,22,l),
(153,22,l),
(153,534,l),
(389,68,l),
(395,68,l),
(629,534,l),
(629,22,l),
(554,22,l),
(554,0,l),
(742,0,l),
(742,22,l),
(657,22,l),
(657,561,l),
(742,561,l),
(742,583,l),
(626,583,l),
(387,107,l),
(398,107,l),
(156,583,l),
(40,583,l),
(40,561,l),
(125,561,l),
(125,22,l),
(40,22,l),
(40,0,l)
);
}
);
};
layerId = "98C086B7-81AA-4491-8494-0C6A76849168";
shapes = (
{
closed = 1;
nodes = (
(228,0,l),
(228,22,l),
(153,22,l),
(153,534,l),
(389,68,l),
(395,68,l),
(629,534,l),
(629,22,l),
(554,22,l),
(554,0,l),
(742,0,l),
(742,22,l),
(657,22,l),
(657,561,l),
(742,561,l),
(742,583,l),
(626,583,l),
(387,107,l),
(398,107,l),
(156,583,l),
(40,583,l),
(40,561,l),
(125,561,l),
(125,22,l),
(40,22,l),
(40,0,l)
);
}
);
width = 782;
},
{
anchors = (
{
name = bottom;
pos = (416,0);
},
{
name = top;
pos = (418,583);
}
);
background = {
anchors = (
{
name = bottom;
pos = (416,0);
},
{
name = top;
pos = (418,583);
}
);
shapes = (
{
closed = 1;
nodes = (
(290,0,l),
(290,120,l),
(245,120,l),
(245,386,l),
(346,90,l),
(489,90,l),
(586,386,l),
(586,120,l),
(541,120,l),
(541,0,l),
(816,0,l),
(816,120,l),
(766,120,l),
(766,463,l),
(816,463,l),
(816,583,l),
(499,583,l),
(407,306,l),
(428,306,l),
(338,583,l),
(30,583,l),
(30,463,l),
(80,463,l),
(80,120,l),
(30,120,l),
(30,0,l)
);
}
);
};
guides = (
{
angle = 250.475;
pos = (589,373);
}
);
layerId = "EFCDB4D9-E20B-4A8D-9DB5-150AD166B0AE";
shapes = (
{
closed = 1;
nodes = (
(290,0,l),
(290,120,l),
(245,120,l),
(245,386,l),
(346,90,l),
(489,90,l),
(586,386,l),
(586,120,l),
(541,120,l),
(541,0,l),
(816,0,l),
(816,120,l),
(766,120,l),
(766,463,l),
(816,463,l),
(816,583,l),
(499,583,l),
(407,306,l),
(428,306,l),
(338,583,l),
(30,583,l),
(30,463,l),
(80,463,l),
(80,120,l),
(30,120,l),
(30,0,l)
);
}
);
width = 846;
},
{
anchors = (
{
name = bottom;
pos = (405,0);
},
{
name = top;
pos = (409,563);
}
);
associatedMasterId = "98C086B7-81AA-4491-8494-0C6A76849168";
layerId = "2012C5ED-A144-4D03-87CE-8E6D9650C3C9";
name = "Original Regular";
shapes = (
{
closed = 1;
nodes = (
(250,0,l),
(250,53,l),
(177,53,l),
(177,496,l),
(392,29,l),
(418,29,l),
(630,496,l),
(630,53,l),
(557,53,l),
(557,0,l),
(784,0,l),
(784,53,l),
(708,53,l),
(708,510,l),
(784,510,l),
(784,563,l),
(590,563,l),
(415,168,l),
(231,563,l),
(40,563,l),
(40,510,l),
(116,510,l),
(116,53,l),
(40,53,l),
(40,0,l)
);
}
);
width = 824;
},
{
anchors = (
{
name = bottom;
pos = (404,0);
},
{
name = top;
pos = (405,583);
}
);
background = {
shapes = (
{
closed = 1;
nodes = (
(259,0,l),
(259,83,l),
(199,83,l),
(199,442,l),
(368,82,l),
(442,82,l),
(608,442,l),
(608,83,l),
(548,83,l),
(548,0,l),
(779,0,l),
(779,83,l),
(712,83,l),
(712,500,l),
(779,500,l),
(779,583,l),
(563,583,l),
(397,231,l),
(413,231,l),
(247,583,l),
(35,583,l),
(35,500,l),
(103,500,l),
(103,83,l),
(35,83,l),
(35,0,l)
);
}
);
};
layerId = "086393EE-48A8-42B6-AE05-10B6A30445E6";
shapes = (
{
closed = 1;
nodes = (
(259,0,l),
(259,83,l),
(199,83,l),
(199,442,l),
(368,82,l),
(442,82,l),
(608,442,l),
(608,83,l),
(548,83,l),
(548,0,l),
(779,0,l),
(779,83,l),
(712,83,l),
(712,500,l),
(779,500,l),
(779,583,l),
(563,583,l),
(397,231,l),
(413,231,l),
(247,583,l),
(35,583,l),
(35,500,l),
(102,500,l),
(102,83,l),
(35,83,l),
(35,0,l)
);
}
);
width = 814;
}
);
metricLeft = H;
metricRight = H;
unicode = 77;
userData = {
com.typemytype.robofont.layerData = {
b = {
anchors = (
);
components = (
);
contours = (
);
lib = {
};
name = M;
unicodes = (
);
width = 1606;
};
};
org.robofab.postScriptHintData = {
};
};
},
{
color = 3;
glyphname = N;
kernLeft = H;
kernRight = N;
layers = (
{
anchors = (
{
name = bottom;
pos = (352,0);
},
{
name = top;
pos = (352,583);
}
);
background = {
anchors = (
{
name = bottom;
pos = (352,0);
},
{
name = top;
pos = (352,583);
}
);
shapes = (
{
closed = 1;
nodes = (
(238,0,l),
(238,22,l),
(153,22,l),
(153,535,l),
(551,0,l),
(578,0,l),
(578,561,l),
(663,561,l),
(663,583,l),
(465,583,l),
(465,561,l),
(550,561,l),
(550,44,l),
(149,583,l),
(40,583,l),
(40,561,l),
(125,561,l),
(125,22,l),
(40,22,l),
(40,0,l)
);
}
);
};
layerId = "98C086B7-81AA-4491-8494-0C6A76849168";
shapes = (
{
closed = 1;
nodes = (
(238,0,l),
(238,22,l),
(153,22,l),
(153,535,l),
(551,0,l),
(578,0,l),
(578,561,l),
(663,561,l),
(663,583,l),
(465,583,l),
(465,561,l),
(550,561,l),
(550,44,l),
(149,583,l),
(40,583,l),
(40,561,l),
(125,561,l),
(125,22,l),
(40,22,l),
(40,0,l)
);
}
);
width = 698;
},
{
anchors = (
{
name = bottom;
pos = (360,0);
},
{
name = top;
pos = (360,583);
}
);
background = {
anchors = (
{
name = bottom;
pos = (360,0);
},
{
name = top;
pos = (360,583);
}
);
shapes = (
{
closed = 1;
nodes = (
(295,0,l),
(295,120,l),
(245,120,l),
(245,340,l),
(427,0,l),
(639,0,l),
(639,463,l),
(689,463,l),
(689,583,l),
(424,583,l),
(424,463,l),
(474,463,l),
(474,273,l),
(307,583,l),
(30,583,l),
(30,463,l),
(80,463,l),
(80,120,l),
(30,120,l),
(30,0,l)
);
}
);
};
guides = (
{
angle = -61.631;
pos = (250,330);
}
);
layerId = "EFCDB4D9-E20B-4A8D-9DB5-150AD166B0AE";
shapes = (
{
closed = 1;
nodes = (
(295,0,l),
(295,120,l),
(245,120,l),
(245,340,l),
(427,0,l),
(639,0,l),
(639,463,l),
(689,463,l),
(689,583,l),
(424,583,l),
(424,463,l),
(474,463,l),
(474,273,l),
(307,583,l),
(30,583,l),
(30,463,l),
(80,463,l),
(80,120,l),
(30,120,l),
(30,0,l)
);
}
);
width = 714;
},
{
anchors = (
{
name = bottom;
pos = (368,0);
},
{
name = top;
pos = (351,563);
}
);
associatedMasterId = "98C086B7-81AA-4491-8494-0C6A76849168";
layerId = "BCE52C97-2249-4D6A-B1EB-67EA5C5455E9";
name = "Original Regular";
shapes = (
{
closed = 1;
nodes = (
(263,0,l),
(263,53,l),
(183,53,l),
(183,479,l),
(519,0,l),
(600,0,l),
(600,510,l),
(678,510,l),
(678,563,l),
(457,563,l),
(457,510,l),
(537,510,l),
(537,108,l),
(215,563,l),
(41,563,l),
(41,510,l),
(121,510,l),
(121,53,l),
(41,53,l),
(41,0,l)
);
}
);
width = 704;
},
{
anchors = (
{
name = bottom;
pos = (356,0);
},
{
name = top;
pos = (356,583);
}
);
background = {
anchors = (
{
name = bottom;
pos = (356,0);
},
{
name = top;
pos = (356,583);
}
);
shapes = (
{
closed = 1;
nodes = (
(267,0,l),
(267,71,l),
(199,71,l),
(199,438,l),
(489,0,l),
(609,0,l),
(609,512,l),
(676,512,l),
(676,583,l),
(445,583,l),
(445,512,l),
(512,512,l),
(512,159,l),
(228,583,l),
(35,583,l),
(35,512,l),
(103,512,l),
(103,71,l),
(35,71,l),
(35,0,l)
);
}
);
};
layerId = "086393EE-48A8-42B6-AE05-10B6A30445E6";
shapes = (
{
closed = 1;
nodes = (
(267,0,l),
(267,83,l),
(199,83,l),
(199,413,l),
(489,0,l),
(609,0,l),
(609,500,l),
(676,500,l),
(676,583,l),
(445,583,l),
(445,500,l),
(512,500,l),
(512,187,l),
(228,583,l),
(35,583,l),
(35,500,l),
(102,500,l),
(102,83,l),
(35,83,l),
(35,0,l)
);
}
);
width = 706;
}
);
metricLeft = H;
unicode = 78;
userData = {
com.typemytype.robofont.layerData = {
b = {
anchors = (
);
components = (
);
contours = (
);
lib = {
};
name = N;
unicodes = (
);
width = 1444;
};
};
org.robofab.postScriptHintData = {
};
};
},
{
color = 3;
glyphname = Eng;
kernLeft = H;
kernRight = N;
layers = (
{
background = {
shapes = (
{
closed = 1;
nodes = (
(551,-181,o),
(578,-147,o),
(578,-74,cs),
(578,561,l),
(663,561,l),
(663,583,l),
(465,583,l),
(465,561,l),
(550,561,l),
(550,44,l),
(149,583,l),
(40,583,l),
(40,561,l),
(125,561,l),
(125,22,l),
(40,22,l),
(40,0,l),
(238,0,l),
(238,22,l),
(153,22,l),
(153,535,l),
(563,-17,l),
(550,25,l),
(550,-77,ls),
(550,-139,o),
(531,-159,o),
(477,-159,cs),
(465,-159,o),
(454,-157,o),
(444,-154,c),
(440,-176,l),
(453,-179,o),
(464,-181,o),
(479,-181,cs)
);
}
);
};
layerId = "98C086B7-81AA-4491-8494-0C6A76849168";
shapes = (
{
closed = 1;
nodes = (
(551,-181,o),
(578,-147,o),
(578,-74,cs),
(578,561,l),
(663,561,l),
(663,583,l),
(465,583,l),
(465,561,l),
(550,561,l),
(550,44,l),
(149,583,l),
(40,583,l),
(40,561,l),
(125,561,l),
(125,22,l),
(40,22,l),
(40,0,l),
(238,0,l),
(238,22,l),
(153,22,l),
(153,535,l),
(563,-17,l),
(550,25,l),
(550,-77,ls),
(550,-139,o),
(531,-159,o),
(477,-159,cs),
(465,-159,o),
(454,-157,o),
(444,-154,c),
(440,-176,l),
(453,-179,o),
(464,-181,o),
(479,-181,cs)
);
}
);
width = 698;
},
{
background = {
shapes = (
{
closed = 1;
nodes = (
(295,0,l),
(295,120,l),
(245,120,l),
(245,340,l),
(427,0,l),
(639,0,l),
(639,463,l),
(689,463,l),
(689,583,l),
(424,583,l),
(424,463,l),
(474,463,l),
(474,273,l),
(307,583,l),
(30,583,l),
(30,463,l),
(80,463,l),
(80,120,l),
(30,120,l),
(30,0,l)
);
}
);
};
guides = (
{
angle = -55.4456;
pos = (307,583);
}
);
layerId = "EFCDB4D9-E20B-4A8D-9DB5-150AD166B0AE";
shapes = (
{
closed = 1;
nodes = (
(563,-181,o),
(639,-109,o),
(639,18,cs),
(639,463,l),
(689,463,l),
(689,583,l),
(424,583,l),
(424,463,l),
(474,463,l),
(474,348,l),
(307,583,l),
(30,583,l),
(30,463,l),
(80,463,l),
(80,120,l),
(30,120,l),
(30,0,l),
(295,0,l),
(295,120,l),
(245,120,l),
(245,330,l),
(489,-13,l),
(474,86,l),
(474,4,ls),
(474,-37,o),
(432,-51,o),
(405,-51,cs),
(384,-51,o),
(369,-47,o),
(357,-42,c),
(327,-157,l),
(351,-169,o),
(390,-181,o),
(442,-181,cs)
);
}
);
width = 714;
},
{
associatedMasterId = "98C086B7-81AA-4491-8494-0C6A76849168";
layerId = "EE831355-60BD-4A42-99EF-A17A304F08CC";
name = "Original Regular";
shapes = (
{
closed = 1;
nodes = (
(411,-184,ls),
(516,-184,o),
(598,-128,o),
(598,-1,cs),
(598,510,l),
(676,510,l),
(676,563,l),
(455,563,l),
(455,510,l),
(535,510,l),
(535,108,l),
(213,563,l),
(39,563,l),
(39,510,l),
(119,510,l),
(119,53,l),
(39,53,l),
(39,0,l),
(261,0,l),
(261,53,l),
(181,53,l),
(181,479,l),
(535,-14,l),
(536,-88,o),
(492,-130,o),
(409,-130,cs),
(391,-130,l),
(391,-184,l)
);
}
);
width = 702;
},
{
background = {
shapes = (
{
closed = 1;
nodes = (
(557,-181,o),
(609,-128,o),
(609,-28,cs),
(609,512,l),
(676,512,l),
(676,583,l),
(445,583,l),
(445,512,l),
(512,512,l),
(512,196,l),
(228,583,l),
(35,583,l),
(35,512,l),
(103,512,l),
(103,71,l),
(35,71,l),
(35,0,l),
(267,0,l),
(267,71,l),
(199,71,l),
(199,433,l),
(526,-15,l),
(512,56,l),
(512,-36,ls),
(512,-88,o),
(482,-105,o),
(441,-105,cs),
(425,-105,o),
(412,-102,o),
(401,-98,c),
(384,-166,l),
(402,-174,o),
(427,-181,o),
(461,-181,cs)
);
}
);
};
layerId = "086393EE-48A8-42B6-AE05-10B6A30445E6";
shapes = (
{
closed = 1;
nodes = (
(557,-181,o),
(609,-123,o),
(609,-16,cs),
(609,500,l),
(676,500,l),
(676,583,l),
(445,583,l),
(445,500,l),
(512,500,l),
(512,234,l),
(228,583,l),
(35,583,l),
(35,500,l),
(102,500,l),
(102,83,l),
(35,83,l),
(35,0,l),
(267,0,l),
(267,83,l),
(199,83,l),
(199,407,l),
(526,-14,l),
(512,63,l),
(512,-26,ls),
(512,-75,o),
(482,-93,o),
(445,-93,cs),
(425,-93,o),
(412,-88,o),
(401,-84,c),
(384,-164,l),
(402,-173,o),
(427,-181,o),
(461,-181,cs)
);
}
);
width = 706;
}
);
metricLeft = H;
metricRight = N;
unicode = 330;
userData = {
org.robofab.postScriptHintData = {
};
};
},
{
color = 3;
glyphname = O;
kernLeft = O;
kernRight = O;
layers = (
{
anchors = (
{
name = bottom;
pos = (352,0);
},
{
name = ogonek;
pos = (374,0);
},
{
name = top;
pos = (351,583);
},
{
name = topright;
pos = (447,583);
}
);
background = {
anchors = (
{
name = bottom;
pos = (352,0);
},
{
name = ogonek;
pos = (374,0);
},
{
name = top;
pos = (351,583);
},
{
name = topright;
pos = (447,583);
}
);
shapes = (
{
closed = 1;
nodes = (
(534,-10,o),
(656,112,o),
(656,291,cs),
(656,468,o),
(534,594,o),
(353,594,cs),
(172,594,o),
(50,468,o),
(50,291,cs),
(50,112,o),
(172,-10,o),
(353,-10,cs)
);
},
{
closed = 1;
nodes = (
(190,15,o),
(82,124,o),
(82,290,cs),
(82,454,o),
(190,569,o),
(353,569,cs),
(516,569,o),
(624,454,o),
(624,290,cs),
(624,124,o),
(516,15,o),
(353,15,cs)
);
}
);
};
layerId = "98C086B7-81AA-4491-8494-0C6A76849168";
shapes = (
{
closed = 1;
nodes = (
(534,-10,o),
(656,112,o),
(656,291,cs),
(656,468,o),
(534,594,o),
(353,594,cs),
(172,594,o),
(50,468,o),
(50,291,cs),
(50,112,o),
(172,-10,o),
(353,-10,cs)
);
},
{
closed = 1;
nodes = (
(190,15,o),
(82,124,o),
(82,290,cs),
(82,454,o),
(190,569,o),
(353,569,cs),
(516,569,o),
(624,454,o),
(624,290,cs),
(624,124,o),
(516,15,o),
(353,15,cs)
);
}
);
width = 706;
},
{
anchors = (
{
name = bottom;
pos = (365,0);
},
{
name = ogonek;
pos = (409,0);
},
{
name = top;
pos = (365,583);
},
{
name = topright;
pos = (483,583);
}
);
background = {
anchors = (
{
name = bottom;
pos = (365,0);
},
{
name = ogonek;
pos = (409,0);
},
{
name = top;
pos = (365,583);
},
{
name = topright;
pos = (443,583);
}
);
shapes = (
{
closed = 1;
nodes = (
(569,-10,o),
(701,110,o),
(701,292,cs),
(701,474,o),
(569,594,o),
(365,594,cs),
(161,594,o),
(29,474,o),
(29,292,cs),
(29,110,o),
(161,-10,o),
(365,-10,cs)
);
},
{
closed = 1;
nodes = (
(284,130,o),
(235,189,o),
(235,292,cs),
(235,395,o),
(284,454,o),
(365,454,cs),
(446,454,o),
(495,395,o),
(495,292,cs),
(495,189,o),
(446,130,o),
(365,130,cs)
);
}
);
};
layerId = "EFCDB4D9-E20B-4A8D-9DB5-150AD166B0AE";
shapes = (
{
closed = 1;
nodes = (
(569,-10,o),
(701,110,o),
(701,292,cs),
(701,474,o),
(569,594,o),
(365,594,cs),
(161,594,o),
(29,474,o),
(29,292,cs),
(29,110,o),
(161,-10,o),
(365,-10,cs)
);
},
{
closed = 1;
nodes = (
(284,130,o),
(235,189,o),
(235,292,cs),
(235,395,o),
(284,454,o),
(365,454,cs),
(446,454,o),
(495,395,o),
(495,292,cs),
(495,189,o),
(446,130,o),
(365,130,cs)
);
}
);
width = 730;
},
{
anchors = (
{
name = bottom;
pos = (354.5,0);
},
{
name = ogonek;
pos = (388,0);
},
{
name = top;
pos = (353,563);
},
{
name = topright;
pos = (430,563);
}
);
associatedMasterId = "98C086B7-81AA-4491-8494-0C6A76849168";
layerId = "2219C52B-9581-4C19-BE43-EAC56884D0AC";
name = "Original Regular";
shapes = (
{
closed = 1;
nodes = (
(540,-11,o),
(659,122,o),
(659,280,cs),
(659,438,o),
(539,573,o),
(354,573,cs),
(169,573,o),
(49,438,o),
(49,280,cs),
(49,123,o),
(169,-11,o),
(354,-11,cs)
);
},
{
closed = 1;
nodes = (
(216,49,o),
(137,151,o),
(137,279,cs),
(137,408,o),
(216,514,o),
(354,514,cs),
(491,514,o),
(572,408,o),
(572,280,cs),
(572,153,o),
(491,49,o),
(354,49,cs)
);
}
);
width = 709;
},
{
anchors = (
{
name = bottom;
pos = (359,0);
},
{
name = ogonek;
pos = (392,0);
},
{
name = top;
pos = (358,583);
},
{
name = topright;
pos = (465,583);
}
);
background = {
shapes = (
{
closed = 1;
nodes = (
(552,-10,o),
(679,111,o),
(679,292,cs),
(679,472,o),
(552,594,o),
(359,594,cs),
(167,594,o),
(40,472,o),
(40,292,cs),
(40,111,o),
(167,-10,o),
(359,-10,cs)
);
},
{
closed = 1;
nodes = (
(237,87,o),
(159,165,o),
(159,291,cs),
(159,417,o),
(237,497,o),
(359,497,cs),
(481,497,o),
(560,417,o),
(560,291,cs),
(560,165,o),
(481,87,o),
(359,87,cs)
);
}
);
};
layerId = "086393EE-48A8-42B6-AE05-10B6A30445E6";
shapes = (
{
closed = 1;
nodes = (
(552,-10,o),
(679,117,o),
(679,292,cs),
(679,467,o),
(552,594,o),
(359,594,cs),
(166,594,o),
(40,467,o),
(40,292,cs),
(40,117,o),
(166,-10,o),
(359,-10,cs)
);
},
{
closed = 1;
nodes = (
(237,87,o),
(159,167,o),
(159,291,cs),
(159,415,o),
(237,497,o),
(359,497,cs),
(481,497,o),
(560,415,o),
(560,291,cs),
(560,167,o),
(481,87,o),
(359,87,cs)
);
}
);
width = 719;
}
);
metricRight = "=|";
unicode = 79;
userData = {
com.typemytype.robofont.layerData = {
b = {
anchors = (
);
components = (
);
contours = (
);
lib = {
};
name = O;
unicodes = (
);
width = 1456;
};
};
org.robofab.postScriptHintData = {
};
};
},
{
color = 3;
glyphname = Oslash;
kernLeft = O;
kernRight = O;
layers = (
{
anchors = (
{
name = top;
pos = (351,583);
}
);
background = {
anchors = (
{
name = top;
pos = (351,583);
}
);
shapes = (
{
closed = 1;
nodes = (
(173,41,l),
(222,8,o),
(283,-10,o),
(353,-10,cs),
(534,-10,o),
(656,112,o),
(656,291,cs),
(656,389,o),
(619,472,o),
(554,526,c),
(605,590,l),
(585,606,l),
(534,541,l),
(485,575,o),
(424,594,o),
(353,594,cs),
(172,594,o),
(50,468,o),
(50,291,cs),
(50,191,o),
(88,109,o),
(153,56,c),
(105,-5,l),
(125,-21,l)
);
},
{
closed = 1;
nodes = (
(82,454,o),
(190,569,o),
(353,569,cs),
(428,569,o),
(486,544,o),
(524,514,c),
(524,528,l),
(163,69,l),
(173,75,l),
(115,122,o),
(82,198,o),
(82,290,cs)
);
},
{
closed = 1;
nodes = (
(543,511,l),
(530,509,l),
(585,463,o),
(624,390,o),
(624,290,cs),
(624,124,o),
(516,15,o),
(353,15,cs),
(288,15,o),
(232,32,o),
(187,64,c),
(184,54,l)
);
}
);
};
layerId = "98C086B7-81AA-4491-8494-0C6A76849168";
shapes = (
{
closed = 1;
nodes = (
(173,41,l),
(222,8,o),
(283,-10,o),
(353,-10,cs),
(534,-10,o),
(656,112,o),
(656,291,cs),
(656,389,o),
(619,472,o),
(554,526,c),
(605,590,l),
(585,606,l),
(534,541,l),
(485,575,o),
(424,594,o),
(353,594,cs),
(172,594,o),
(50,468,o),
(50,291,cs),
(50,191,o),
(88,109,o),
(153,56,c),
(105,-5,l),
(125,-21,l)
);
},
{
closed = 1;
nodes = (
(82,454,o),
(190,569,o),
(353,569,cs),
(428,569,o),
(486,544,o),
(524,514,c),
(524,528,l),
(163,69,l),
(173,75,l),
(115,122,o),
(82,198,o),
(82,290,cs)
);
},
{
closed = 1;
nodes = (
(543,511,l),
(530,509,l),
(585,463,o),
(624,390,o),
(624,290,cs),
(624,124,o),
(516,15,o),
(353,15,cs),
(288,15,o),
(232,32,o),
(187,64,c),
(184,54,l)
);
}
);
width = 706;
},
{
anchors = (
{
name = top;
pos = (365,583);
}
);
background = {
shapes = (
{
closed = 1;
nodes = (
(656,554,l),
(563,629,l),
(74,30,l),
(167,-45,l)
);
},
{
closed = 1;
nodes = (
(569,-10,o),
(701,110,o),
(701,292,cs),
(701,474,o),
(569,594,o),
(365,594,cs),
(161,594,o),
(29,474,o),
(29,292,cs),
(29,110,o),
(161,-10,o),
(365,-10,cs)
);
},
{
closed = 1;
nodes = (
(284,130,o),
(235,189,o),
(235,292,cs),
(235,395,o),
(284,454,o),
(365,454,cs),
(446,454,o),
(495,395,o),
(495,292,cs),
(495,189,o),
(446,130,o),
(365,130,cs)
);
}
);
};
layerId = "EFCDB4D9-E20B-4A8D-9DB5-150AD166B0AE";
shapes = (
{
closed = 1;
nodes = (
(216,15,l),
(260,-1,o),
(310,-10,o),
(365,-10,cs),
(569,-10,o),
(701,110,o),
(701,292,cs),
(701,380,o),
(670,453,o),
(616,505,c),
(656,554,l),
(563,629,l),
(514,569,l),
(470,585,o),
(420,594,o),
(365,594,cs),
(161,594,o),
(29,474,o),
(29,292,cs),
(29,204,o),
(60,131,o),
(114,79,c),
(74,30,l),
(167,-45,l)
);
},
{
closed = 1;
nodes = (
(235,395,o),
(284,454,o),
(365,454,cs),
(394,454,o),
(418,446,o),
(437,435,c),
(441,476,l),
(213,195,l),
(249,210,l),
(240,233,o),
(235,260,o),
(235,292,cs)
);
},
{
closed = 1;
nodes = (
(517,389,l),
(481,374,l),
(490,351,o),
(495,324,o),
(495,292,cs),
(495,189,o),
(446,130,o),
(365,130,cs),
(336,130,o),
(312,138,o),
(293,149,c),
(289,108,l)
);
}
);
width = 730;
},
{
anchors = (
{
name = bottom;
pos = (330,0);
},
{
name = top;
pos = (330,563);
}
);
associatedMasterId = "98C086B7-81AA-4491-8494-0C6A76849168";
layerId = "F4F2E133-D625-464A-A719-B49823668E45";
name = "Original Regular";
shapes = (
{
closed = 1;
nodes = (
(592,569,l),
(554,595,l),
(79,-10,l),
(117,-37,l)
);
},
{
pos = (-24,-1);
ref = O;
}
);
width = 660;
},
{
anchors = (
{
name = top;
pos = (358,583);
}
);
background = {
anchors = (
{
name = top;
pos = (358,583);
}
);
shapes = (
{
closed = 1;
nodes = (
(552,-10,o),
(679,117,o),
(679,292,cs),
(679,467,o),
(552,594,o),
(359,594,cs),
(166,594,o),
(40,467,o),
(40,292,cs),
(40,117,o),
(166,-10,o),
(359,-10,cs)
);
},
{
closed = 1;
nodes = (
(237,89,o),
(159,168,o),
(159,291,cs),
(159,414,o),
(237,495,o),
(359,495,cs),
(481,495,o),
(560,414,o),
(560,291,cs),
(560,168,o),
(481,89,o),
(359,89,cs)
);
}
);
};
guides = (
{
angle = 231.2476;
pos = (332,319);
},
{
angle = 231.2362;
pos = (389,266);
}
);
layerId = "086393EE-48A8-42B6-AE05-10B6A30445E6";
shapes = (
{
closed = 1;
nodes = (
(195,25,l),
(241,2,o),
(297,-10,o),
(359,-10,cs),
(552,-10,o),
(679,111,o),
(679,292,cs),
(679,383,o),
(645,460,o),
(587,513,c),
(634,571,l),
(574,620,l),
(523,557,l),
(478,581,o),
(422,594,o),
(359,594,cs),
(167,594,o),
(40,472,o),
(40,292,cs),
(40,199,o),
(74,123,o),
(134,70,c),
(87,14,l),
(147,-35,l)
);
},
{
closed = 1;
nodes = (
(159,414,o),
(237,497,o),
(359,497,cs),
(408,497,o),
(445,485,o),
(472,467,c),
(463,482,l),
(191,144,l),
(209,148,l),
(172,191,o),
(159,237,o),
(159,291,cs)
);
},
{
closed = 1;
nodes = (
(525,435,l),
(512,435,l),
(543,393,o),
(560,349,o),
(560,291,cs),
(560,168,o),
(481,87,o),
(359,87,cs),
(312,87,o),
(275,99,o),
(247,115,c),
(254,98,l)
);
}
);
width = 719;
}
);
metricLeft = O;
metricRight = O;
unicode = 216;
userData = {
com.typemytype.robofont.layerData = {
b = {
anchors = (
);
components = (
);
contours = (
);
lib = {
};
name = Oslash;
unicodes = (
);
width = 1598;
};
};
org.robofab.postScriptHintData = {
};
};
},
{
color = 3;
glyphname = OE;
kernLeft = O;
kernRight = E;
layers = (
{
background = {
shapes = (
{
closed = 1;
nodes = (
(908,0,l),
(908,165,l),
(882,165,l),
(882,22,l),
(542,22,l),
(542,286,l),
(758,286,l),
(758,196,l),
(783,196,l),
(783,393,l),
(757,393,l),
(757,308,l),
(542,308,l),
(542,561,l),
(867,561,l),
(867,423,l),
(893,423,l),
(893,583,l),
(359,583,ls),
(129,583,o),
(50,457,o),
(50,293,cs),
(50,127,o),
(130,0,o),
(362,0,cs)
);
},
{
closed = 1;
nodes = (
(149,22,o),
(82,140,o),
(82,294,cs),
(82,447,o),
(148,561,o),
(367,561,cs),
(512,561,l),
(512,22,l),
(364,22,ls)
);
}
);
};
layerId = "98C086B7-81AA-4491-8494-0C6A76849168";
shapes = (
{
closed = 1;
nodes = (
(908,0,l),
(908,165,l),
(882,165,l),
(882,22,l),
(542,22,l),
(542,286,l),
(758,286,l),
(758,196,l),
(783,196,l),
(783,393,l),
(757,393,l),
(757,308,l),
(542,308,l),
(542,561,l),
(867,561,l),
(867,423,l),
(893,423,l),
(893,583,l),
(359,583,ls),
(129,583,o),
(50,457,o),
(50,293,cs),
(50,127,o),
(130,0,o),
(362,0,cs)
);
},
{
closed = 1;
nodes = (
(149,22,o),
(82,140,o),
(82,294,cs),
(82,447,o),
(148,561,o),
(367,561,cs),
(512,561,l),
(512,22,l),
(364,22,ls)
);
}
);
width = 965;
},
{
background = {
shapes = (
{
closed = 1;
nodes = (
(976,0,l),
(976,215,l),
(851,215,l),
(851,120,l),
(653,120,l),
(653,235,l),
(701,235,l),
(701,185,l),
(801,185,l),
(801,400,l),
(701,400,l),
(701,355,l),
(653,355,l),
(653,463,l),
(831,463,l),
(831,373,l),
(956,373,l),
(956,583,l),
(360,583,ls),
(147,583,o),
(29,473,o),
(29,293,cs),
(29,107,o),
(143,0,o),
(360,0,cs)
);
},
{
closed = 1;
nodes = (
(281,120,o),
(235,176,o),
(235,293,cs),
(235,409,o),
(281,463,o),
(378,463,cs),
(453,463,l),
(453,120,l),
(378,120,ls)
);
}
);
};
layerId = "EFCDB4D9-E20B-4A8D-9DB5-150AD166B0AE";
shapes = (
{
closed = 1;
nodes = (
(966,0,l),
(966,215,l),
(841,215,l),
(841,120,l),
(643,120,l),
(643,235,l),
(691,235,l),
(691,185,l),
(791,185,l),
(791,400,l),
(691,400,l),
(691,355,l),
(643,355,l),
(643,463,l),
(821,463,l),
(821,373,l),
(946,373,l),
(946,583,l),
(360,583,ls),
(147,583,o),
(29,473,o),
(29,293,cs),
(29,107,o),
(143,0,o),
(360,0,cs)
);
},
{
closed = 1;
nodes = (
(281,120,o),
(235,176,o),
(235,293,cs),
(235,409,o),
(281,463,o),
(378,463,cs),
(443,463,l),
(443,120,l),
(378,120,ls)
);
}
);
width = 982;
},
{
associatedMasterId = "98C086B7-81AA-4491-8494-0C6A76849168";
layerId = "03DB3F77-D83D-4F1B-B3F9-8483E42A0E1D";
name = "Original Regular";
shapes = (
{
closed = 1;
nodes = (
(904,0,l),
(904,174,l),
(841,174,l),
(841,52,l),
(570,52,l),
(570,259,l),
(747,259,l),
(747,193,l),
(788,193,l),
(788,378,l),
(747,378,l),
(747,313,l),
(570,313,l),
(570,510,l),
(836,510,l),
(836,394,l),
(899,394,l),
(899,563,l),
(362,563,ls),
(169,563,o),
(49,456,o),
(49,283,cs),
(49,108,o),
(169,0,o),
(363,0,cs)
);
},
{
closed = 1;
nodes = (
(225,52,o),
(136,141,o),
(136,282,cs),
(136,424,o),
(226,510,o),
(368,510,cs),
(489,510,l),
(489,52,l),
(369,52,l)
);
}
);
width = 952;
},
{
background = {
shapes = (
{
closed = 1;
nodes = (
(937,0,l),
(937,190,l),
(862,190,l),
(862,71,l),
(593,71,l),
(593,261,l),
(725,261,l),
(725,191,l),
(787,191,l),
(787,397,l),
(724,397,l),
(724,332,l),
(593,332,l),
(593,512,l),
(844,512,l),
(844,398,l),
(920,398,l),
(920,583,l),
(360,583,ls),
(138,583,o),
(40,465,o),
(40,293,cs),
(40,117,o),
(137,0,o),
(361,0,cs)
);
},
{
closed = 1;
nodes = (
(215,71,o),
(159,158,o),
(159,294,cs),
(159,428,o),
(215,512,o),
(373,512,cs),
(478,512,l),
(478,71,l),
(371,71,ls)
);
}
);
};
layerId = "086393EE-48A8-42B6-AE05-10B6A30445E6";
shapes = (
{
closed = 1;
nodes = (
(937,0,l),
(937,196,l),
(862,196,l),
(862,83,l),
(593,83,l),
(593,254,l),
(721,254,l),
(721,189,l),
(790,189,l),
(790,397,l),
(720,397,l),
(720,337,l),
(593,337,l),
(593,500,l),
(844,500,l),
(844,392,l),
(920,392,l),
(920,583,l),
(360,583,ls),
(138,583,o),
(40,467,o),
(40,293,cs),
(40,115,o),
(137,0,o),
(361,0,cs)
);
},
{
closed = 1;
nodes = (
(215,83,o),
(159,163,o),
(159,293,cs),
(159,423,o),
(215,500,o),
(373,500,cs),
(478,500,l),
(478,83,l),
(371,83,ls)
);
}
);
width = 973.5;
}
);
metricLeft = O;
metricRight = E;
unicode = 338;
userData = {
com.typemytype.robofont.layerData = {
b = {
anchors = (
);
components = (
);
contours = (
);
lib = {
};
name = OE;
unicodes = (
);
width = 1953;
};
};
org.robofab.postScriptHintData = {
};
};
},
{
color = 3;
glyphname = P;
kernLeft = H;
kernRight = P;
layers = (
{
anchors = (
{
name = top;
pos = (306,583);
}
);
background = {
anchors = (
{
name = top;
pos = (306,583);
}
);
shapes = (
{
closed = 1;
nodes = (
(260,0,l),
(260,22,l),
(155,22,l),
(155,561,l),
(328,561,ls),
(436,561,o),
(473,507,o),
(473,424,cs),
(473,341,o),
(436,287,o),
(328,287,cs),
(205,287,l),
(205,265,l),
(336,265,ls),
(449,265,o),
(505,323,o),
(505,424,cs),
(505,525,o),
(449,583,o),
(336,583,cs),
(40,583,l),
(40,561,l),
(125,561,l),
(125,22,l),
(40,22,l),
(40,0,l)
);
}
);
};
layerId = "98C086B7-81AA-4491-8494-0C6A76849168";
shapes = (
{
closed = 1;
nodes = (
(260,0,l),
(260,22,l),
(155,22,l),
(155,561,l),
(328,561,ls),
(436,561,o),
(473,507,o),
(473,424,cs),
(473,341,o),
(436,287,o),
(328,287,cs),
(205,287,l),
(205,265,l),
(336,265,ls),
(449,265,o),
(505,323,o),
(505,424,cs),
(505,525,o),
(449,583,o),
(336,583,cs),
(40,583,l),
(40,561,l),
(125,561,l),
(125,22,l),
(40,22,l),
(40,0,l)
);
}
);
width = 561;
},
{
anchors = (
{
name = top;
pos = (314,583);
}
);
background = {
anchors = (
{
name = top;
pos = (314,583);
}
);
shapes = (
{
closed = 1;
nodes = (
(360,0,l),
(360,120,l),
(280,120,l),
(280,463,l),
(351,463,ls),
(397,463,o),
(423,442,o),
(423,400,cs),
(423,360,o),
(391,338,o),
(351,338,cs),
(320,338,l),
(320,218,l),
(389,218,ls),
(547,218,o),
(629,274,o),
(629,400,cs),
(629,526,o),
(547,583,o),
(389,583,cs),
(30,583,l),
(30,463,l),
(80,463,l),
(80,120,l),
(30,120,l),
(30,0,l)
);
}
);
};
layerId = "EFCDB4D9-E20B-4A8D-9DB5-150AD166B0AE";
shapes = (
{
closed = 1;
nodes = (
(360,0,l),
(360,120,l),
(280,120,l),
(280,463,l),
(351,463,ls),
(402,463,o),
(423,442,o),
(423,400,cs),
(423,360,o),
(396,338,o),
(351,338,cs),
(320,338,l),
(320,218,l),
(389,218,ls),
(539,218,o),
(629,274,o),
(629,400,cs),
(629,526,o),
(539,583,o),
(389,583,cs),
(30,583,l),
(30,463,l),
(80,463,l),
(80,120,l),
(30,120,l),
(30,0,l)
);
}
);
width = 639;
},
{
anchors = (
{
name = top;
pos = (291,563);
}
);
associatedMasterId = "98C086B7-81AA-4491-8494-0C6A76849168";
layerId = "5D237D83-DE0E-420D-A04A-415F41D6FB95";
name = "Original Regular";
shapes = (
{
closed = 1;
nodes = (
(277,0,l),
(277,53,l),
(199,53,l),
(199,510,l),
(326,510,ls),
(402,510,o),
(444,472,o),
(444,402,cs),
(444,327,o),
(396,286,o),
(309,286,cs),
(237,286,l),
(237,233,l),
(312,233,ls),
(452,233,o),
(528,293,o),
(528,403,cs),
(528,507,o),
(454,563,o),
(317,563,cs),
(39,563,l),
(39,510,l),
(117,510,l),
(117,53,l),
(39,53,l),
(39,0,l)
);
}
);
width = 563;
},
{
anchors = (
{
name = top;
pos = (309,583);
}
);
background = {
anchors = (
{
name = top;
pos = (309,583);
}
);
shapes = (
{
closed = 1;
nodes = (
(309,0,l),
(309,71,l),
(217,71,l),
(217,512,l),
(339,512,ls),
(418,512,o),
(447,475,o),
(447,412,cs),
(447,351,o),
(415,313,o),
(339,313,cs),
(262,313,l),
(262,242,l),
(362,242,ls),
(493,242,o),
(566,299,o),
(566,412,cs),
(566,526,o),
(493,583,o),
(362,583,cs),
(34,583,l),
(34,512,l),
(102,512,l),
(102,71,l),
(34,71,l),
(34,0,l)
);
}
);
};
layerId = "086393EE-48A8-42B6-AE05-10B6A30445E6";
shapes = (
{
closed = 1;
nodes = (
(309,0,l),
(309,83,l),
(217,83,l),
(217,500,l),
(338,500,ls),
(409,500,o),
(447,471,o),
(447,409,cs),
(447,349,o),
(407,319,o),
(338,319,cs),
(262,319,l),
(262,236,l),
(352,236,ls),
(493,236,o),
(566,292,o),
(566,409,cs),
(566,526,o),
(493,583,o),
(352,583,cs),
(35,583,l),
(35,500,l),
(102,500,l),
(102,83,l),
(35,83,l),
(35,0,l)
);
}
);
width = 599;
}
);
metricLeft = H;
unicode = 80;
userData = {
com.typemytype.robofont.layerData = {
b = {
anchors = (
);
components = (
);
contours = (
{
points = (
{
segmentType = line;
smooth = 0;
x = 353;
y = 1095;
},
{
segmentType = line;
smooth = 1;
x = 759;
y = 1095;
},
{
smooth = 0;
x = 936;
y = 1095;
},
{
smooth = 0;
x = 1024;
y = 960;
},
{
segmentType = curve;
smooth = 1;
x = 1024;
y = 823;
},
{
smooth = 0;
x = 1024;
y = 683;
},
{
smooth = 0;
x = 934;
y = 544;
},
{
segmentType = curve;
smooth = 1;
x = 759;
y = 544;
},
{
segmentType = line;
smooth = 0;
x = 353;
y = 544;
}
);
},
{
points = (
{
segmentType = line;
smooth = 0;
x = 135;
y = 0;
},
{
segmentType = line;
smooth = 0;
x = 512;
y = 0;
},
{
segmentType = line;
smooth = 0;
x = 512;
y = 58;
},
{
segmentType = line;
smooth = 0;
x = 353;
y = 58;
},
{
segmentType = line;
smooth = 0;
x = 353;
y = 483;
},
{
segmentType = line;
smooth = 1;
x = 759;
y = 483;
},
{
smooth = 0;
x = 984;
y = 483;
},
{
smooth = 0;
x = 1098;
y = 656;
},
{
segmentType = curve;
smooth = 1;
x = 1098;
y = 826;
},
{
smooth = 0;
x = 1098;
y = 989;
},
{
smooth = 0;
x = 984;
y = 1154;
},
{
segmentType = curve;
smooth = 1;
x = 759;
y = 1154;
},
{
segmentType = line;
smooth = 0;
x = 122;
y = 1154;
},
{
segmentType = line;
smooth = 0;
x = 122;
y = 1095;
},
{
segmentType = line;
smooth = 0;
x = 278;
y = 1095;
},
{
segmentType = line;
smooth = 0;
x = 278;
y = 58;
},
{
segmentType = line;
smooth = 0;
x = 135;
y = 58;
}
);
}
);
lib = {
};
name = P;
unicodes = (
);
width = 1226;
};
};
org.robofab.postScriptHintData = {
};
};
},
{
color = 3;
glyphname = Thorn;
kernLeft = H;
kernRight = Thorn;
layers = (
{
background = {
shapes = (
{
closed = 1;
nodes = (
(260,0,l),
(260,22,l),
(155,22,l),
(155,441,l),
(328,441,ls),
(436,441,o),
(473,385,o),
(473,304,cs),
(473,221,o),
(436,167,o),
(328,167,cs),
(205,167,l),
(205,145,l),
(336,145,ls),
(449,145,o),
(505,203,o),
(505,304,cs),
(505,405,o),
(449,463,o),
(336,463,cs),
(155,463,l),
(155,561,l),
(240,561,l),
(240,583,l),
(40,583,l),
(40,561,l),
(125,561,l),
(125,22,l),
(40,22,l),
(40,0,l)
);
}
);
};
layerId = "98C086B7-81AA-4491-8494-0C6A76849168";
shapes = (
{
closed = 1;
nodes = (
(260,0,l),
(260,22,l),
(155,22,l),
(155,441,l),
(328,441,ls),
(436,441,o),
(473,385,o),
(473,304,cs),
(473,221,o),
(436,167,o),
(328,167,cs),
(205,167,l),
(205,145,l),
(336,145,ls),
(449,145,o),
(505,203,o),
(505,304,cs),
(505,405,o),
(449,463,o),
(336,463,cs),
(155,463,l),
(155,561,l),
(240,561,l),
(240,583,l),
(40,583,l),
(40,561,l),
(125,561,l),
(125,22,l),
(40,22,l),
(40,0,l)
);
}
);
width = 561;
},
{
background = {
shapes = (
{
closed = 1;
nodes = (
(360,0,l),
(360,120,l),
(280,120,l),
(280,319,l),
(392,319,ls),
(412,319,o),
(423,310,o),
(423,291,cs),
(423,274,o),
(406,264,o),
(392,264,cs),
(320,264,l),
(320,149,l),
(449,149,ls),
(567,149,o),
(629,199,o),
(629,291,cs),
(629,383,o),
(567,434,o),
(449,434,cs),
(280,434,l),
(280,463,l),
(360,463,l),
(360,583,l),
(30,583,l),
(30,463,l),
(80,463,l),
(80,120,l),
(30,120,l),
(30,0,l)
);
}
);
};
layerId = "EFCDB4D9-E20B-4A8D-9DB5-150AD166B0AE";
shapes = (
{
closed = 1;
nodes = (
(360,0,l),
(360,120,l),
(280,120,l),
(280,319,l),
(392,319,ls),
(412,319,o),
(423,310,o),
(423,291,cs),
(423,274,o),
(406,264,o),
(392,264,cs),
(320,264,l),
(320,149,l),
(449,149,ls),
(567,149,o),
(629,199,o),
(629,291,cs),
(629,383,o),
(567,434,o),
(449,434,cs),
(280,434,l),
(280,463,l),
(360,463,l),
(360,583,l),
(30,583,l),
(30,463,l),
(80,463,l),
(80,120,l),
(30,120,l),
(30,0,l)
);
}
);
width = 639;
},
{
associatedMasterId = "98C086B7-81AA-4491-8494-0C6A76849168";
layerId = "9F63CA76-080A-4669-955C-461E0C5E0A7F";
name = "Original Regular";
shapes = (
{
closed = 1;
nodes = (
(289,0,l),
(289,53,l),
(210,53,l),
(210,407,l),
(194,394,l),
(331,394,ls),
(400,394,o),
(442,361,o),
(442,306,cs),
(442,241,o),
(401,208,o),
(333,208,cs),
(240,208,l),
(240,160,l),
(333,160,ls),
(453,160,o),
(520,211,o),
(520,306,cs),
(520,394,o),
(452,446,o),
(331,446,cs),
(194,446,l),
(210,436,l),
(210,510,l),
(289,510,l),
(289,563,l),
(50,563,l),
(50,510,l),
(128,510,l),
(128,53,l),
(50,53,l),
(50,0,l)
);
}
);
width = 555;
},
{
background = {
shapes = (
{
closed = 1;
nodes = (
(309,0,l),
(309,83,l),
(217,83,l),
(217,365,l),
(359,365,ls),
(423,365,o),
(447,338,o),
(447,296,cs),
(447,254,o),
(420,228,o),
(359,228,cs),
(262,228,l),
(262,148,l),
(392,148,ls),
(507,148,o),
(566,201,o),
(566,296,cs),
(566,391,o),
(507,445,o),
(392,445,cs),
(217,445,l),
(217,500,l),
(299,500,l),
(299,583,l),
(34,583,l),
(34,500,l),
(102,500,l),
(102,83,l),
(34,83,l),
(34,0,l)
);
}
);
};
layerId = "086393EE-48A8-42B6-AE05-10B6A30445E6";
shapes = (
{
closed = 1;
nodes = (
(309,0,l),
(309,83,l),
(217,83,l),
(217,365,l),
(349,365,ls),
(418,365,o),
(447,342,o),
(447,296,cs),
(447,251,o),
(417,228,o),
(349,228,cs),
(262,228,l),
(262,148,l),
(382,148,ls),
(507,148,o),
(566,201,o),
(566,296,cs),
(566,391,o),
(507,445,o),
(382,445,cs),
(217,445,l),
(217,500,l),
(299,500,l),
(299,583,l),
(35,583,l),
(35,500,l),
(102,500,l),
(102,83,l),
(35,83,l),
(35,0,l)
);
}
);
width = 599;
}
);
metricLeft = H;
metricRight = P;
unicode = 222;
userData = {
com.typemytype.robofont.layerData = {
b = {
anchors = (
);
components = (
);
contours = (
);
lib = {
};
name = Thorn;
unicodes = (
);
width = 1226;
};
};
org.robofab.postScriptHintData = {
};
};
},
{
color = 3;
glyphname = Q;
kernLeft = O;
kernRight = O;
layers = (
{
background = {
shapes = (
{
closed = 1;
nodes = (
(526,-102,o),
(546,-99,o),
(570,-90,c),
(565,-69,l),
(545,-77,o),
(526,-81,o),
(507,-81,cs),
(445,-81,o),
(405,-52,o),
(369,-10,c),
(541,-3,o),
(656,117,o),
(656,291,cs),
(656,468,o),
(534,594,o),
(353,594,cs),
(172,594,o),
(50,468,o),
(50,291,cs),
(50,118,o),
(164,-2,o),
(337,-10,c),
(383,-64,o),
(432,-102,o),
(506,-102,cs)
);
},
{
closed = 1;
nodes = (
(190,15,o),
(82,124,o),
(82,290,cs),
(82,454,o),
(190,569,o),
(353,569,cs),
(516,569,o),
(624,454,o),
(624,290,cs),
(624,124,o),
(516,15,o),
(353,15,cs)
);
}
);
};
layerId = "98C086B7-81AA-4491-8494-0C6A76849168";
shapes = (
{
closed = 1;
nodes = (
(526,-102,o),
(546,-99,o),
(570,-90,c),
(565,-69,l),
(545,-77,o),
(526,-81,o),
(507,-81,cs),
(445,-81,o),
(405,-52,o),
(369,-10,c),
(541,-3,o),
(656,117,o),
(656,291,cs),
(656,468,o),
(534,594,o),
(353,594,cs),
(172,594,o),
(50,468,o),
(50,291,cs),
(50,118,o),
(164,-2,o),
(337,-10,c),
(383,-64,o),
(432,-102,o),
(506,-102,cs)
);
},
{
closed = 1;
nodes = (
(190,15,o),
(82,124,o),
(82,290,cs),
(82,454,o),
(190,569,o),
(353,569,cs),
(516,569,o),
(624,454,o),
(624,290,cs),
(624,124,o),
(516,15,o),
(353,15,cs)
);
}
);
width = 706;
},
{
background = {
shapes = (
{
closed = 1;
nodes = (
(569,-10,o),
(701,110,o),
(701,292,cs),
(701,474,o),
(569,594,o),
(365,594,cs),
(161,594,o),
(29,474,o),
(29,292,cs),
(29,110,o),
(161,-10,o),
(365,-10,cs)
);
},
{
closed = 1;
nodes = (
(284,130,o),
(235,189,o),
(235,292,cs),
(235,395,o),
(284,454,o),
(365,454,cs),
(446,454,o),
(495,395,o),
(495,292,cs),
(495,189,o),
(446,130,o),
(365,130,cs)
);
}
);
};
layerId = "EFCDB4D9-E20B-4A8D-9DB5-150AD166B0AE";
shapes = (
{
closed = 1;
nodes = (
(608,-181,o),
(643,-172,o),
(676,-158,c),
(646,-40,l),
(622,-50,o),
(590,-56,o),
(559,-56,cs),
(505,-56,o),
(468,-32,o),
(457,-1,c),
(604,29,o),
(701,136,o),
(701,292,cs),
(701,474,o),
(569,594,o),
(365,594,cs),
(161,594,o),
(29,474,o),
(29,292,cs),
(29,137,o),
(123,29,o),
(274,-1,c),
(318,-120,o),
(426,-181,o),
(551,-181,cs)
);
},
{
closed = 1;
nodes = (
(284,130,o),
(235,189,o),
(235,292,cs),
(235,395,o),
(284,454,o),
(365,454,cs),
(446,454,o),
(495,395,o),
(495,292,cs),
(495,189,o),
(446,130,o),
(365,130,cs)
);
}
);
width = 730;
},
{
associatedMasterId = "98C086B7-81AA-4491-8494-0C6A76849168";
layerId = "571E8BA3-27FF-4BCF-A329-DEBC395B7AC5";
name = "Original Regular";
shapes = (
{
closed = 1;
nodes = (
(543,-134,o),
(563,-131,o),
(583,-125,c),
(582,-72,l),
(561,-77,o),
(542,-80,o),
(525,-80,cs),
(466,-80,o),
(432,-48,o),
(398,-8,c),
(560,11,o),
(659,135,o),
(659,280,cs),
(659,438,o),
(539,573,o),
(354,573,cs),
(169,573,o),
(49,438,o),
(49,280,cs),
(49,131,o),
(156,2,o),
(327,-9,c),
(378,-86,o),
(443,-134,o),
(525,-134,cs)
);
},
{
closed = 1;
nodes = (
(216,49,o),
(137,151,o),
(137,279,cs),
(137,408,o),
(216,514,o),
(354,514,cs),
(491,514,o),
(572,408,o),
(572,280,cs),
(572,153,o),
(491,49,o),
(354,49,cs)
);
}
);
width = 706;
},
{
background = {
shapes = (
{
closed = 1;
nodes = (
(552,-10,o),
(679,117,o),
(679,292,cs),
(679,467,o),
(552,594,o),
(359,594,cs),
(166,594,o),
(40,467,o),
(40,292,cs),
(40,117,o),
(166,-10,o),
(359,-10,cs)
);
},
{
closed = 1;
nodes = (
(237,89,o),
(159,168,o),
(159,291,cs),
(159,414,o),
(237,495,o),
(359,495,cs),
(481,495,o),
(560,414,o),
(560,291,cs),
(560,168,o),
(481,89,o),
(359,89,cs)
);
}
);
};
layerId = "086393EE-48A8-42B6-AE05-10B6A30445E6";
shapes = (
{
closed = 1;
nodes = (
(563,-151,o),
(597,-145,o),
(625,-130,c),
(606,-51,l),
(584,-62,o),
(563,-67,o),
(533,-67,cs),
(475,-67,o),
(437,-38,o),
(423,-5,c),
(571,18,o),
(679,129,o),
(679,292,cs),
(679,467,o),
(552,594,o),
(359,594,cs),
(166,594,o),
(40,467,o),
(40,292,cs),
(40,130,o),
(144,17,o),
(306,-7,c),
(351,-99,o),
(429,-151,o),
(529,-151,cs)
);
},
{
closed = 1;
nodes = (
(237,87,o),
(159,164,o),
(159,291,cs),
(159,415,o),
(237,497,o),
(359,497,cs),
(481,497,o),
(560,415,o),
(560,291,cs),
(560,164,o),
(481,87,o),
(359,87,cs)
);
}
);
width = 719;
}
);
metricLeft = O;
metricWidth = O;
unicode = 81;
userData = {
com.typemytype.robofont.layerData = {
b = {
anchors = (
);
components = (
);
contours = (
);
lib = {
};
name = Q;
unicodes = (
);
width = 1438;
};
};
org.robofab.postScriptHintData = {
};
};
},
{
color = 3;
glyphname = R;
kernLeft = H;
kernRight = R;
layers = (
{
anchors = (
{
name = bottom;
pos = (327,0);
},
{
name = top;
pos = (297,583);
}
);
background = {
anchors = (
{
name = bottom;
pos = (327,0);
},
{
name = top;
pos = (297,583);
}
);
shapes = (
{
closed = 1;
nodes = (
(240,0,l),
(240,22,l),
(155,22,l),
(155,561,l),
(328,561,ls),
(436,561,o),
(473,507,o),
(473,424,cs),
(473,341,o),
(436,287,o),
(328,287,cs),
(205,287,l),
(205,265,l),
(299,265,l),
(463,0,l),
(568,0,l),
(568,22,l),
(483,22,l),
(327,273,l),
(321,265,l),
(336,265,ls),
(449,265,o),
(505,323,o),
(505,424,cs),
(505,525,o),
(449,583,o),
(336,583,cs),
(40,583,l),
(40,561,l),
(125,561,l),
(125,22,l),
(40,22,l),
(40,0,l)
);
}
);
};
layerId = "98C086B7-81AA-4491-8494-0C6A76849168";
shapes = (
{
closed = 1;
nodes = (
(240,0,l),
(240,22,l),
(155,22,l),
(155,561,l),
(328,561,ls),
(436,561,o),
(473,507,o),
(473,424,cs),
(473,341,o),
(436,287,o),
(328,287,cs),
(205,287,l),
(205,265,l),
(299,265,l),
(463,0,l),
(568,0,l),
(568,22,l),
(483,22,l),
(327,273,l),
(321,265,l),
(336,265,ls),
(449,265,o),
(505,323,o),
(505,424,cs),
(505,525,o),
(449,583,o),
(336,583,cs),
(40,583,l),
(40,561,l),
(125,561,l),
(125,22,l),
(40,22,l),
(40,0,l)
);
}
);
width = 599;
},
{
anchors = (
{
name = bottom;
pos = (355,0);
},
{
name = top;
pos = (353,583);
}
);
background = {
anchors = (
{
name = bottom;
pos = (355,0);
},
{
name = top;
pos = (353,583);
}
);
shapes = (
{
closed = 1;
nodes = (
(1130,0,l),
(1130,120,l),
(1080,120,l),
(1080,463,l),
(1151,463,ls),
(1197,463,o),
(1223,442,o),
(1223,400,cs),
(1223,360,o),
(1191,338,o),
(1151,338,cs),
(1120,338,l),
(1120,218,l),
(1141,218,l),
(1268,0,l),
(1483,0,l),
(1483,121,l),
(1423,121,l),
(1329,278,l),
(1168,218,l),
(1189,218,ls),
(1347,218,o),
(1429,274,o),
(1429,400,cs),
(1429,526,o),
(1347,583,o),
(1189,583,cs),
(830,583,l),
(830,463,l),
(880,463,l),
(880,120,l),
(830,120,l),
(830,0,l)
);
},
{
closed = 1;
nodes = (
(360,0,l),
(360,120,l),
(280,120,l),
(280,463,l),
(351,463,ls),
(402,463,o),
(423,442,o),
(423,400,cs),
(423,360,o),
(396,338,o),
(351,338,cs),
(320,338,l),
(320,218,l),
(389,218,ls),
(539,218,o),
(629,274,o),
(629,400,cs),
(629,526,o),
(539,583,o),
(389,583,cs),
(30,583,l),
(30,463,l),
(80,463,l),
(80,120,l),
(30,120,l),
(30,0,l)
);
}
);
};
guides = (
{
angle = 90;
pos = (409,506);
}
);
layerId = "EFCDB4D9-E20B-4A8D-9DB5-150AD166B0AE";
shapes = (
{
closed = 1;
nodes = (
(330,0,l),
(330,120,l),
(280,120,l),
(280,463,l),
(351,463,ls),
(402,463,o),
(423,442,o),
(423,400,cs),
(423,360,o),
(396,338,o),
(351,338,cs),
(320,338,l),
(320,218,l),
(341,218,l),
(468,0,l),
(683,0,l),
(683,120,l),
(623,120,l),
(529,278,l),
(368,218,l),
(389,218,ls),
(539,218,o),
(629,274,o),
(629,400,cs),
(629,526,o),
(539,583,o),
(389,583,cs),
(30,583,l),
(30,463,l),
(80,463,l),
(80,120,l),
(30,120,l),
(30,0,l)
);
}
);
width = 683;
},
{
anchors = (
{
name = bottom;
pos = (324,0);
},
{
name = top;
pos = (292,563);
}
);
associatedMasterId = "98C086B7-81AA-4491-8494-0C6A76849168";
layerId = "28200B5C-4679-434C-8ACD-AE1A4DB6EF88";
name = "Original Regular";
shapes = (
{
closed = 1;
nodes = (
(277,0,l),
(277,53,l),
(199,53,l),
(199,510,l),
(336,510,ls),
(412,510,o),
(445,467,o),
(445,415,cs),
(445,366,o),
(420,313,o),
(322,313,cs),
(234,313,l),
(234,258,l),
(303,258,l),
(454,0,l),
(593,0,l),
(593,53,l),
(510,53,l),
(381,266,l),
(485,282,o),
(526,338,o),
(526,416,cs),
(526,514,o),
(453,563,o),
(335,563,cs),
(39,563,l),
(39,510,l),
(117,510,l),
(117,53,l),
(39,53,l),
(39,0,l)
);
}
);
width = 619;
},
{
anchors = (
{
name = bottom;
pos = (340,0);
},
{
name = top;
pos = (324,583);
}
);
background = {
anchors = (
{
name = bottom;
pos = (340,0);
},
{
name = top;
pos = (324,583);
}
);
shapes = (
{
closed = 1;
nodes = (
(284,0,l),
(284,71,l),
(217,71,l),
(217,512,l),
(339,512,ls),
(418,512,o),
(447,475,o),
(447,412,cs),
(447,351,o),
(415,313,o),
(339,313,cs),
(262,313,l),
(262,242,l),
(319,242,l),
(465,0,l),
(625,0,l),
(625,71,l),
(552,71,l),
(427,276,l),
(344,242,l),
(362,242,ls),
(493,242,o),
(566,299,o),
(566,412,cs),
(566,526,o),
(493,583,o),
(362,583,cs),
(34,583,l),
(34,512,l),
(102,512,l),
(102,71,l),
(34,71,l),
(34,0,l)
);
}
);
};
layerId = "086393EE-48A8-42B6-AE05-10B6A30445E6";
shapes = (
{
closed = 1;
nodes = (
(284,0,l),
(284,83,l),
(217,83,l),
(217,500,l),
(333,500,ls),
(418,500,o),
(447,466,o),
(447,409,cs),
(447,353,o),
(415,319,o),
(333,319,cs),
(262,319,l),
(262,236,l),
(319,236,l),
(465,0,l),
(623,0,l),
(623,83,l),
(550,83,l),
(430,276,l),
(344,236,l),
(362,236,ls),
(489,236,o),
(566,292,o),
(566,409,cs),
(566,526,o),
(493,583,o),
(352,583,cs),
(35,583,l),
(35,500,l),
(102,500,l),
(102,83,l),
(35,83,l),
(35,0,l)
);
}
);
width = 640;
}
);
metricLeft = H;
unicode = 82;
userData = {
com.typemytype.robofont.layerData = {
b = {
anchors = (
);
components = (
);
contours = (
{
points = (
{
segmentType = line;
smooth = 0;
x = 135;
y = 0;
},
{
segmentType = line;
smooth = 0;
x = 512;
y = 0;
},
{
segmentType = line;
smooth = 0;
x = 512;
y = 58;
},
{
segmentType = line;
smooth = 0;
x = 353;
y = 58;
},
{
segmentType = line;
smooth = 0;
x = 353;
y = 539;
},
{
segmentType = line;
smooth = 0;
x = 641;
y = 539;
},
{
segmentType = line;
smooth = 0;
x = 961;
y = 0;
},
{
segmentType = line;
smooth = 0;
x = 1178;
y = 0;
},
{
segmentType = line;
smooth = 0;
x = 1178;
y = 58;
},
{
segmentType = line;
smooth = 0;
x = 1015;
y = 58;
},
{
segmentType = line;
smooth = 0;
x = 721;
y = 539;
},
{
smooth = 0;
x = 945;
y = 539;
},
{
smooth = 0;
x = 1059;
y = 696;
},
{
segmentType = curve;
smooth = 1;
x = 1059;
y = 848;
},
{
smooth = 0;
x = 1059;
y = 1000;
},
{
smooth = 0;
x = 945;
y = 1154;
},
{
segmentType = curve;
smooth = 1;
x = 721;
y = 1154;
},
{
segmentType = line;
smooth = 0;
x = 122;
y = 1154;
},
{
segmentType = line;
smooth = 0;
x = 122;
y = 1095;
},
{
segmentType = line;
smooth = 0;
x = 278;
y = 1095;
},
{
segmentType = line;
smooth = 0;
x = 278;
y = 58;
},
{
segmentType = line;
smooth = 0;
x = 135;
y = 58;
}
);
},
{
points = (
{
segmentType = line;
smooth = 0;
x = 353;
y = 1095;
},
{
segmentType = line;
smooth = 1;
x = 721;
y = 1095;
},
{
smooth = 0;
x = 898;
y = 1095;
},
{
smooth = 0;
x = 985;
y = 971;
},
{
segmentType = curve;
smooth = 1;
x = 985;
y = 845;
},
{
smooth = 0;
x = 985;
y = 723;
},
{
smooth = 0;
x = 896;
y = 600;
},
{
segmentType = curve;
smooth = 1;
x = 721;
y = 600;
},
{
segmentType = line;
smooth = 0;
x = 353;
y = 600;
}
);
}
);
lib = {
};
name = R;
unicodes = (
);
width = 1296;
};
};
org.robofab.postScriptHintData = {
};
};
},
{
color = 3;
glyphname = S;
kernLeft = S;
kernRight = S;
layers = (
{
anchors = (
{
name = bottom;
pos = (282,0);
},
{
name = top;
pos = (280,583);
}
);
background = {
anchors = (
{
name = bottom;
pos = (282,0);
},
{
name = top;
pos = (280,583);
}
);
shapes = (
{
closed = 1;
nodes = (
(426,-11,o),
(488,53,o),
(488,148,cs),
(488,241,o),
(444,285,o),
(329,303,cs),
(234,318,ls),
(151,331,o),
(111,370,o),
(111,440,cs),
(111,510,o),
(153,569,o),
(264,569,cs),
(378,569,o),
(438,509,o),
(438,424,c),
(464,424,l),
(464,584,l),
(438,584,l),
(438,485,l),
(443,485,l),
(424,549,o),
(363,594,o),
(263,594,cs),
(134,594,o),
(81,521,o),
(81,441,cs),
(81,353,o),
(131,305,o),
(240,288,cs),
(335,273,ls),
(425,259,o),
(458,227,o),
(458,145,cs),
(458,66,o),
(409,14,o),
(298,14,cs),
(159,14,o),
(109,85,o),
(109,190,c),
(83,190,l),
(83,0,l),
(109,0,l),
(109,102,l),
(106,102,l),
(126,34,o),
(193,-11,o),
(298,-11,cs)
);
}
);
};
layerId = "98C086B7-81AA-4491-8494-0C6A76849168";
shapes = (
{
closed = 1;
nodes = (
(426,-11,o),
(488,53,o),
(488,148,cs),
(488,241,o),
(444,285,o),
(329,303,cs),
(234,318,ls),
(151,331,o),
(111,370,o),
(111,440,cs),
(111,510,o),
(153,569,o),
(264,569,cs),
(378,569,o),
(438,509,o),
(438,424,c),
(464,424,l),
(464,584,l),
(438,584,l),
(438,485,l),
(443,485,l),
(424,549,o),
(363,594,o),
(263,594,cs),
(134,594,o),
(81,521,o),
(81,441,cs),
(81,353,o),
(131,305,o),
(240,288,cs),
(335,273,ls),
(425,259,o),
(458,227,o),
(458,145,cs),
(458,66,o),
(409,14,o),
(298,14,cs),
(159,14,o),
(109,85,o),
(109,190,c),
(83,190,l),
(83,0,l),
(109,0,l),
(109,102,l),
(106,102,l),
(126,34,o),
(193,-11,o),
(298,-11,cs)
);
}
);
width = 556;
},
{
anchors = (
{
name = bottom;
pos = (287,0);
},
{
name = top;
pos = (287,583);
}
);
background = {
anchors = (
{
name = bottom;
pos = (308,0);
},
{
name = top;
pos = (279,583);
}
);
shapes = (
{
closed = 1;
nodes = (
(467,-10,o),
(566,64,o),
(566,187,cs),
(566,285,o),
(509,343,o),
(400,366,cs),
(285,390,ls),
(246,398,o),
(236,416,o),
(236,434,cs),
(236,461,o),
(259,484,o),
(306,484,cs),
(365,484,o),
(399,456,o),
(407,403,c),
(532,403,l),
(532,583,l),
(402,583,l),
(402,518,l),
(436,518,l),
(395,565,o),
(337,593,o),
(258,593,cs),
(120,593,o),
(30,519,o),
(30,404,cs),
(30,308,o),
(87,244,o),
(186,223,cs),
(301,199,ls),
(340,191,o),
(360,179,o),
(360,152,cs),
(360,122,o),
(337,99,o),
(288,99,cs),
(208,99,o),
(168,134,o),
(159,200,c),
(34,200,l),
(34,0,l),
(164,0,l),
(164,61,l),
(130,81,l),
(174,24,o),
(234,-10,o),
(327,-10,cs)
);
}
);
};
layerId = "EFCDB4D9-E20B-4A8D-9DB5-150AD166B0AE";
shapes = (
{
closed = 1;
nodes = (
(467,-10,o),
(566,64,o),
(566,187,cs),
(566,285,o),
(509,343,o),
(400,366,cs),
(285,390,ls),
(246,398,o),
(236,416,o),
(236,434,cs),
(236,461,o),
(259,484,o),
(306,484,cs),
(365,484,o),
(399,456,o),
(407,403,c),
(532,403,l),
(532,583,l),
(402,583,l),
(402,516,l),
(436,516,l),
(395,570,o),
(337,593,o),
(258,593,cs),
(120,593,o),
(30,519,o),
(30,399,cs),
(30,308,o),
(87,244,o),
(186,223,cs),
(301,199,ls),
(340,191,o),
(360,179,o),
(360,152,cs),
(360,122,o),
(337,99,o),
(288,99,cs),
(208,99,o),
(168,134,o),
(159,200,c),
(34,200,l),
(34,0,l),
(164,0,l),
(164,61,l),
(130,81,l),
(174,24,o),
(234,-10,o),
(336,-10,cs)
);
}
);
width = 574;
},
{
anchors = (
{
name = bottom;
pos = (295,0);
},
{
name = top;
pos = (273,563);
}
);
associatedMasterId = "98C086B7-81AA-4491-8494-0C6A76849168";
layerId = "F23EAAE2-23F5-4464-80B4-90DDBC59E8AB";
name = "Original Regular";
shapes = (
{
closed = 1;
nodes = (
(416,-10,o),
(480,67,o),
(480,155,cs),
(480,263,o),
(416,301,o),
(285,324,cs),
(262,328,ls),
(183,342,o),
(141,370,o),
(141,428,cs),
(141,480,o),
(180,516,o),
(249,516,cs),
(358,516,o),
(386,452,o),
(394,404,c),
(453,404,l),
(453,563,l),
(389,563,l),
(389,477,l),
(410,477,l),
(389,537,o),
(324,574,o),
(245,574,cs),
(139,574,o),
(68,519,o),
(68,420,cs),
(68,325,o),
(139,274,o),
(247,256,cs),
(271,252,ls),
(371,235,o),
(407,216,o),
(407,143,cs),
(407,82,o),
(366,48,o),
(297,48,cs),
(201,48,o),
(139,108,o),
(131,190,c),
(71,190,l),
(71,0,l),
(136,0,l),
(136,90,l),
(123,90,l),
(155,29,o),
(219,-10,o),
(300,-10,cs)
);
}
);
width = 522;
},
{
anchors = (
{
name = bottom;
pos = (286,0);
},
{
name = top;
pos = (286,583);
}
);
background = {
shapes = (
{
closed = 1;
nodes = (
(1147,-10,o),
(1227,60,o),
(1227,172,cs),
(1227,269,o),
(1177,321,o),
(1065,342,cs),
(960,363,ls),
(899,373,o),
(874,399,o),
(874,436,cs),
(874,479,o),
(906,516,o),
(985,516,cs),
(1072,516,o),
(1119,476,o),
(1123,411,c),
(1198,411,l),
(1198,583,l),
(1120,583,l),
(1120,504,l),
(1140,504,l),
(1110,562,o),
(1050,593,o),
(961,593,cs),
(827,593,o),
(756,520,o),
(756,415,cs),
(756,325,o),
(809,267,o),
(913,247,cs),
(1018,227,ls),
(1083,217,o),
(1109,197,o),
(1109,149,cs),
(1109,101,o),
(1073,67,o),
(993,67,cs),
(884,67,o),
(839,116,o),
(834,196,c),
(759,196,l),
(759,0,l),
(837,0,l),
(837,76,l),
(818,89,l),
(850,28,o),
(914,-10,o),
(1017,-10,cs)
);
},
{
closed = 1;
nodes = (
(136,593,o),
(56,523,o),
(56,411,cs),
(56,314,o),
(114,264,o),
(218,243,cs),
(323,222,ls),
(385,210,o),
(408,187,o),
(408,151,cs),
(408,111,o),
(374,76,o),
(286,76,cs),
(190,76,o),
(141,116,o),
(134,172,c),
(85,172,l),
(85,0,l),
(163,0,l),
(163,85,l),
(117,85,l),
(149,21,o),
(213,-10,o),
(304,-10,cs),
(453,-10,o),
(527,70,o),
(527,168,cs),
(527,258,o),
(469,315,o),
(370,335,cs),
(265,356,ls),
(200,369,o),
(174,386,o),
(174,434,cs),
(174,482,o),
(210,516,o),
(290,516,cs),
(399,516,o),
(444,467,o),
(449,387,c),
(524,387,l),
(524,583,l),
(446,583,l),
(446,507,l),
(465,494,l),
(433,555,o),
(369,593,o),
(266,593,cs)
);
}
);
};
layerId = "086393EE-48A8-42B6-AE05-10B6A30445E6";
shapes = (
{
closed = 1;
nodes = (
(450,-10,o),
(527,70,o),
(527,172,cs),
(527,269,o),
(469,319,o),
(365,340,cs),
(260,361,ls),
(198,373,o),
(175,396,o),
(175,432,cs),
(175,472,o),
(206,507,o),
(285,507,cs),
(372,507,o),
(417,467,o),
(423,411,c),
(498,411,l),
(498,583,l),
(420,583,l),
(420,498,l),
(440,498,l),
(410,562,o),
(350,593,o),
(265,593,cs),
(128,593,o),
(56,513,o),
(56,415,cs),
(56,325,o),
(114,268,o),
(213,248,cs),
(318,227,ls),
(385,214,o),
(408,191,o),
(408,154,cs),
(408,111,o),
(374,76,o),
(286,76,cs),
(177,76,o),
(139,116,o),
(134,196,c),
(59,196,l),
(59,0,l),
(137,0,l),
(137,76,l),
(117,85,l),
(149,21,o),
(213,-10,o),
(311,-10,cs)
);
}
);
width = 565;
}
);
unicode = 83;
userData = {
com.typemytype.robofont.layerData = {
b = {
anchors = (
);
components = (
);
contours = (
{
points = (
{
segmentType = curve;
smooth = 1;
x = 636;
y = "-23";
},
{
smooth = 0;
x = 930;
y = "-23";
},
{
smooth = 0;
x = 1026;
y = 171;
},
{
segmentType = curve;
smooth = 1;
x = 1026;
y = 295;
},
{
smooth = 0;
x = 1026;
y = 543;
},
{
smooth = 0;
x = 829;
y = 599;
},
{
segmentType = curve;
smooth = 1;
x = 606;
y = 622;
},
{
smooth = 0;
x = 405;
y = 643;
},
{
smooth = 0;
x = 269;
y = 667;
},
{
segmentType = curve;
smooth = 1;
x = 269;
y = 851;
},
{
smooth = 0;
x = 269;
y = 998;
},
{
smooth = 0;
x = 360;
y = 1104;
},
{
segmentType = curve;
smooth = 1;
x = 573;
y = 1104;
},
{
smooth = 0;
x = 719;
y = 1104;
},
{
smooth = 0;
x = 885;
y = 1024;
},
{
segmentType = curve;
smooth = 1;
x = 885;
y = 941;
},
{
segmentType = line;
smooth = 0;
x = 885;
y = 839;
},
{
segmentType = line;
smooth = 0;
x = 959;
y = 839;
},
{
segmentType = line;
smooth = 0;
x = 959;
y = 1152;
},
{
segmentType = line;
smooth = 0;
x = 885;
y = 1152;
},
{
segmentType = line;
smooth = 0;
x = 885;
y = 1049;
},
{
smooth = 0;
x = 828;
y = 1131;
},
{
smooth = 0;
x = 673;
y = 1172;
},
{
segmentType = curve;
smooth = 1;
x = 561;
y = 1172;
},
{
smooth = 0;
x = 360;
y = 1172;
},
{
smooth = 0;
x = 184;
y = 1066;
},
{
segmentType = curve;
smooth = 1;
x = 184;
y = 863;
},
{
smooth = 0;
x = 184;
y = 635;
},
{
smooth = 0;
x = 332;
y = 579;
},
{
segmentType = curve;
smooth = 1;
x = 584;
y = 553;
},
{
smooth = 0;
x = 805;
y = 531;
},
{
smooth = 0;
x = 942;
y = 488;
},
{
segmentType = curve;
smooth = 1;
x = 942;
y = 300;
},
{
smooth = 0;
x = 942;
y = 169;
},
{
smooth = 0;
x = 831;
y = 47;
},
{
segmentType = curve;
smooth = 1;
x = 644;
y = 47;
},
{
smooth = 0;
x = 448;
y = 47;
},
{
smooth = 0;
x = 261;
y = 118;
},
{
segmentType = curve;
smooth = 1;
x = 261;
y = 247;
},
{
segmentType = line;
smooth = 0;
x = 261;
y = 387;
},
{
segmentType = line;
smooth = 0;
x = 187;
y = 387;
},
{
segmentType = line;
smooth = 0;
x = 187;
y = "-1";
},
{
segmentType = line;
smooth = 0;
x = 261;
y = "-1";
},
{
segmentType = line;
smooth = 0;
x = 261;
y = 122;
},
{
smooth = 0;
x = 335;
y = 22;
},
{
smooth = 0;
x = 496;
y = "-23";
}
);
}
);
lib = {
};
name = S;
unicodes = (
);
width = 1143;
};
};
org.robofab.postScriptHintData = {
};
};
},
{
color = 3;
glyphname = Germandbls;
layers = (
{
background = {
shapes = (
{
closed = 1;
nodes = (
(215,0,l),
(215,23,l),
(150,23,l),
(150,376,ls),
(150,511,o),
(224,570,o),
(341,570,cs),
(413,570,o),
(461,553,o),
(503,525,c),
(508,537,l),
(327,332,l),
(327,310,l),
(369,310,ls),
(479,310,o),
(533,262,o),
(533,166,cs),
(533,77,o),
(489,22,o),
(373,22,cs),
(314,22,l),
(314,0,l),
(374,0,ls),
(507,0,o),
(565,64,o),
(565,166,cs),
(565,281,o),
(488,335,o),
(353,332,c),
(354,327,l),
(523,519,l),
(523,538,l),
(478,571,o),
(420,594,o),
(340,594,cs),
(206,594,o),
(120,524,o),
(120,374,cs),
(120,23,l),
(35,23,l),
(35,0,l)
);
}
);
};
layerId = "98C086B7-81AA-4491-8494-0C6A76849168";
shapes = (
{
closed = 1;
nodes = (
(215,0,l),
(215,23,l),
(150,23,l),
(150,376,ls),
(150,511,o),
(224,570,o),
(341,570,cs),
(413,570,o),
(461,553,o),
(503,525,c),
(508,537,l),
(327,332,l),
(327,310,l),
(369,310,ls),
(479,310,o),
(533,262,o),
(533,166,cs),
(533,77,o),
(489,22,o),
(373,22,cs),
(314,22,l),
(314,0,l),
(374,0,ls),
(507,0,o),
(565,64,o),
(565,166,cs),
(565,281,o),
(488,335,o),
(353,332,c),
(354,327,l),
(523,519,l),
(523,538,l),
(478,571,o),
(420,594,o),
(340,594,cs),
(206,594,o),
(120,524,o),
(120,374,cs),
(120,23,l),
(35,23,l),
(35,0,l)
);
}
);
width = 625;
},
{
background = {
shapes = (
{
closed = 1;
nodes = (
(302,0,l),
(302,120,l),
(272,120,l),
(272,357,ls),
(272,420,o),
(303,453,o),
(360,453,cs),
(398,453,o),
(425,447,o),
(450,433,c),
(437,509,l),
(350,365,l),
(350,251,l),
(371,251,ls),
(418,251,o),
(435,230,o),
(435,193,cs),
(435,162,o),
(414,140,o),
(376,140,cs),
(350,140,l),
(350,0,l),
(436,0,ls),
(564,0,o),
(641,61,o),
(641,180,cs),
(641,300,o),
(560,369,o),
(409,359,c),
(465,279,l),
(563,429,l),
(563,546,l),
(500,576,o),
(419,593,o),
(335,593,cs),
(161,593,o),
(72,520,o),
(72,377,cs),
(72,120,l),
(22,120,l),
(22,0,l)
);
}
);
};
layerId = "EFCDB4D9-E20B-4A8D-9DB5-150AD166B0AE";
shapes = (
{
closed = 1;
nodes = (
(302,0,l),
(302,120,l),
(272,120,l),
(272,357,ls),
(272,420,o),
(298,453,o),
(360,453,cs),
(398,453,o),
(425,447,o),
(450,433,c),
(437,509,l),
(350,365,l),
(350,251,l),
(371,251,ls),
(418,251,o),
(435,230,o),
(435,193,cs),
(435,162,o),
(414,140,o),
(376,140,cs),
(350,140,l),
(350,0,l),
(436,0,ls),
(564,0,o),
(641,61,o),
(641,180,cs),
(641,300,o),
(560,369,o),
(409,359,c),
(465,279,l),
(563,429,l),
(563,546,l),
(500,576,o),
(419,593,o),
(335,593,cs),
(161,593,o),
(72,510,o),
(72,367,cs),
(72,120,l),
(22,120,l),
(22,0,l)
);
}
);
width = 661;
},
{
associatedMasterId = "98C086B7-81AA-4491-8494-0C6A76849168";
layerId = "32E77C1A-CED5-45BD-ADCC-46833B82A638";
name = "Original Regular";
shapes = (
{
closed = 1;
nodes = (
(478,-10,o),
(560,49,o),
(560,161,cs),
(560,254,o),
(499,309,o),
(388,321,c),
(499,474,l),
(499,530,l),
(451,554,o),
(396,573,o),
(316,573,cs),
(167,573,o),
(86,498,o),
(86,371,cs),
(86,53,l),
(36,53,l),
(36,0,l),
(224,0,l),
(224,53,l),
(168,53,l),
(168,373,ls),
(168,469,o),
(225,513,o),
(317,513,cs),
(368,513,o),
(405,506,o),
(439,493,c),
(316,323,l),
(316,267,l),
(417,267,o),
(472,232,o),
(472,158,cs),
(472,86,o),
(425,50,o),
(326,50,c),
(326,-10,l)
);
}
);
width = 600;
},
{
background = {
shapes = (
{
closed = 1;
nodes = (
(259,0,l),
(259,72,l),
(211,72,l),
(211,367,ls),
(211,466,o),
(261,512,o),
(351,512,cs),
(406,512,o),
(443,500,o),
(477,479,c),
(473,523,l),
(339,349,l),
(339,281,l),
(370,281,ls),
(449,281,o),
(484,246,o),
(484,180,cs),
(484,120,o),
(452,81,o),
(375,81,cs),
(332,81,l),
(332,0,l),
(405,0,ls),
(536,0,o),
(603,63,o),
(603,173,cs),
(603,291,o),
(524,352,o),
(381,346,c),
(410,303,l),
(543,474,l),
(543,542,l),
(489,574,o),
(420,594,o),
(338,594,cs),
(184,594,o),
(96,517,o),
(96,371,cs),
(96,72,l),
(29,72,l),
(29,0,l)
);
}
);
};
layerId = "086393EE-48A8-42B6-AE05-10B6A30445E6";
shapes = (
{
closed = 1;
nodes = (
(259,0,l),
(259,84,l),
(211,84,l),
(211,364,ls),
(211,454,o),
(261,494,o),
(351,494,cs),
(406,494,o),
(443,484,o),
(477,465,c),
(473,520,l),
(339,353,l),
(339,273,l),
(370,273,ls),
(449,273,o),
(484,242,o),
(484,183,cs),
(484,130,o),
(452,96,o),
(375,96,cs),
(332,96,l),
(332,0,l),
(395,0,ls),
(536,0,o),
(603,62,o),
(603,175,cs),
(603,293,o),
(524,356,o),
(381,349,c),
(410,297,l),
(543,463,l),
(543,543,l),
(489,574,o),
(420,593,o),
(338,593,cs),
(194,593,o),
(96,515,o),
(96,370,cs),
(96,84,l),
(29,84,l),
(29,0,l)
);
}
);
width = 643;
}
);
metricLeft = "=|U";
unicode = 7838;
},
{
color = 3;
glyphname = Schwa;
kernLeft = O;
kernRight = O;
layers = (
{
background = {
shapes = (
{
closed = 1;
nodes = (
(514,-11,o),
(626,105,o),
(626,291,cs),
(626,468,o),
(505,594,o),
(333,594,cs),
(235,594,o),
(145,553,o),
(99,485,c),
(123,471,l),
(165,530,o),
(240,569,o),
(333,569,cs),
(489,569,o),
(596,454,o),
(596,290,cs),
(596,117,o),
(498,14,o),
(340,14,cs),
(168,14,o),
(82,124,o),
(82,267,c),
(603,267,l),
(603,289,l),
(50,289,l),
(50,280,ls),
(50,108,o),
(152,-11,o),
(340,-11,cs)
);
}
);
};
layerId = "98C086B7-81AA-4491-8494-0C6A76849168";
shapes = (
{
closed = 1;
nodes = (
(514,-11,o),
(626,105,o),
(626,291,cs),
(626,468,o),
(505,594,o),
(333,594,cs),
(235,594,o),
(145,553,o),
(99,485,c),
(123,471,l),
(165,530,o),
(240,569,o),
(333,569,cs),
(489,569,o),
(596,454,o),
(596,290,cs),
(596,117,o),
(498,14,o),
(340,14,cs),
(168,14,o),
(82,124,o),
(82,267,c),
(603,267,l),
(603,289,l),
(50,289,l),
(50,280,ls),
(50,108,o),
(152,-11,o),
(340,-11,cs)
);
}
);
width = 676;
},
{
background = {
shapes = (
{
closed = 1;
nodes = (
(536,-10,o),
(660,119,o),
(660,294,cs),
(660,474,o),
(536,594,o),
(338,594,cs),
(218,594,o),
(131,556,o),
(64,470,c),
(195,383,l),
(224,429,o),
(266,454,o),
(320,454,cs),
(407,454,o),
(454,395,o),
(454,292,cs),
(454,184,o),
(422,125,o),
(343,125,cs),
(268,125,o),
(237,177,o),
(237,221,c),
(536,221,l),
(536,341,l),
(29,341,l),
(29,294,ls),
(29,119,o),
(136,-10,o),
(346,-10,cs)
);
}
);
};
layerId = "EFCDB4D9-E20B-4A8D-9DB5-150AD166B0AE";
shapes = (
{
closed = 1;
nodes = (
(536,-10,o),
(660,119,o),
(660,294,cs),
(660,474,o),
(536,594,o),
(338,594,cs),
(218,594,o),
(128,556,o),
(64,470,c),
(195,383,l),
(224,429,o),
(266,454,o),
(320,454,cs),
(412,454,o),
(459,395,o),
(459,292,cs),
(459,184,o),
(427,125,o),
(343,125,cs),
(268,125,o),
(237,177,o),
(237,221,c),
(536,221,l),
(536,341,l),
(29,341,l),
(29,294,ls),
(29,119,o),
(136,-10,o),
(346,-10,cs)
);
}
);
width = 689;
},
{
associatedMasterId = "98C086B7-81AA-4491-8494-0C6A76849168";
layerId = "56229F1F-BD89-44A8-8B0A-B0990D052884";
name = "Original Regular";
shapes = (
{
closed = 1;
nodes = (
(495,-11,o),
(627,102,o),
(627,283,cs),
(627,457,o),
(498,573,o),
(330,573,cs),
(206,573,o),
(115,517,o),
(54,461,c),
(86,414,l),
(152,473,o),
(230,514,o),
(327,514,cs),
(454,514,o),
(540,423,o),
(540,277,cs),
(540,136,o),
(450,51,o),
(331,51,cs),
(216,51,o),
(130,122,o),
(130,245,c),
(554,245,l),
(556,302,l),
(44,302,l),
(44,275,ls),
(44,101,o),
(152,-11,o),
(329,-11,cs)
);
}
);
width = 677;
},
{
background = {
shapes = (
{
closed = 1;
nodes = (
(1321,-10,o),
(1439,112,o),
(1439,293,cs),
(1439,471,o),
(1317,594,o),
(1132,594,cs),
(1023,594,o),
(933,555,o),
(878,478,c),
(955,427,l),
(991,480,o),
(1049,512,o),
(1123,512,cs),
(1247,512,o),
(1324,425,o),
(1324,291,cs),
(1324,151,o),
(1259,70,o),
(1138,70,cs),
(1014,70,o),
(956,151,o),
(956,244,c),
(1366,244,l),
(1366,315,l),
(836,315,l),
(836,287,ls),
(836,114,o),
(940,-10,o),
(1139,-10,cs)
);
},
{
closed = 1;
nodes = (
(187,594,o),
(95,531,o),
(51,415,c),
(140,370,l),
(177,459,o),
(239,495,o),
(324,495,cs),
(446,495,o),
(524,416,o),
(524,293,cs),
(524,170,o),
(446,89,o),
(318,89,cs),
(240,89,o),
(168,122,o),
(133,198,c),
(59,198,l),
(59,1,l),
(137,1,l),
(137,118,l),
(108,137,l),
(140,37,o),
(224,-10,o),
(340,-10,cs),
(517,-10,o),
(643,117,o),
(643,294,cs),
(643,467,o),
(517,594,o),
(325,594,cs)
);
}
);
};
layerId = "086393EE-48A8-42B6-AE05-10B6A30445E6";
shapes = (
{
closed = 1;
nodes = (
(525,-10,o),
(643,114,o),
(643,293,cs),
(643,472,o),
(521,594,o),
(336,594,cs),
(230,594,o),
(140,555,o),
(82,476,c),
(159,413,l),
(195,464,o),
(253,497,o),
(327,497,cs),
(451,497,o),
(528,417,o),
(528,291,cs),
(528,159,o),
(463,83,o),
(342,83,cs),
(218,83,o),
(160,157,o),
(160,240,c),
(570,240,l),
(570,320,l),
(40,320,l),
(40,289,ls),
(40,113,o),
(144,-10,o),
(343,-10,cs)
);
}
);
width = 682.5;
}
);
metricLeft = O;
metricRight = O;
unicode = 399;
userData = {
org.robofab.postScriptHintData = {
};
};
},
{
color = 3;
glyphname = T;
kernLeft = T;
kernRight = T;
layers = (
{
anchors = (
{
name = bottom;
pos = (283,0);
},
{
name = mid;
pos = (284,278);
},
{
name = top;
pos = (283,583);
}
);
background = {
anchors = (
{
name = bottom;
pos = (283,0);
},
{
name = mid;
pos = (284,278);
},
{
name = top;
pos = (283,583);
}
);
shapes = (
{
closed = 1;
nodes = (
(393,0,l),
(393,22,l),
(298,22,l),
(298,561,l),
(515,561,l),
(515,403,l),
(541,403,l),
(541,583,l),
(25,583,l),
(25,403,l),
(51,403,l),
(51,561,l),
(268,561,l),
(268,22,l),
(173,22,l),
(173,0,l)
);
}
);
};
layerId = "98C086B7-81AA-4491-8494-0C6A76849168";
shapes = (
{
closed = 1;
nodes = (
(393,0,l),
(393,22,l),
(298,22,l),
(298,561,l),
(515,561,l),
(515,403,l),
(541,403,l),
(541,583,l),
(25,583,l),
(25,403,l),
(51,403,l),
(51,561,l),
(268,561,l),
(268,22,l),
(173,22,l),
(173,0,l)
);
}
);
width = 566;
},
{
anchors = (
{
name = bottom;
pos = (325,0);
},
{
name = mid;
pos = (325,259);
},
{
name = top;
pos = (325,583);
}
);
background = {
anchors = (
{
name = bottom;
pos = (325,0);
},
{
name = mid;
pos = (325,279);
},
{
name = top;
pos = (325,583);
}
);
shapes = (
{
closed = 1;
nodes = (
(495,0,l),
(495,120,l),
(425,120,l),
(425,463,l),
(505,463,l),
(505,343,l),
(635,343,l),
(635,583,l),
(15,583,l),
(15,343,l),
(145,343,l),
(145,463,l),
(225,463,l),
(225,120,l),
(155,120,l),
(155,0,l)
);
}
);
};
layerId = "EFCDB4D9-E20B-4A8D-9DB5-150AD166B0AE";
shapes = (
{
closed = 1;
nodes = (
(495,0,l),
(495,120,l),
(425,120,l),
(425,463,l),
(505,463,l),
(505,343,l),
(635,343,l),
(635,583,l),
(15,583,l),
(15,343,l),
(145,343,l),
(145,463,l),
(225,463,l),
(225,120,l),
(155,120,l),
(155,0,l)
);
}
);
width = 650;
},
{
anchors = (
{
name = bottom;
pos = (281,0);
},
{
name = mid;
pos = (279,285);
},
{
name = top;
pos = (278,563);
}
);
associatedMasterId = "98C086B7-81AA-4491-8494-0C6A76849168";
layerId = "597E85D2-51C0-46BD-B39F-3CA6E86F6FCC";
name = "Original Regular";
shapes = (
{
closed = 1;
nodes = (
(399,0,l),
(399,53,l),
(321,53,l),
(321,510,l),
(472,510,l),
(472,367,l),
(533,367,l),
(533,563,l),
(25,563,l),
(25,367,l),
(86,367,l),
(86,510,l),
(240,510,l),
(240,53,l),
(162,53,l),
(162,0,l)
);
}
);
width = 559;
},
{
anchors = (
{
name = bottom;
pos = (303,0);
},
{
name = mid;
pos = (304,266);
},
{
name = top;
pos = (303,583);
}
);
background = {
anchors = (
{
name = bottom;
pos = (303,0);
},
{
name = mid;
pos = (304,269);
},
{
name = top;
pos = (303,583);
}
);
shapes = (
{
closed = 1;
nodes = (
(443,0,l),
(443,71,l),
(361,71,l),
(361,512,l),
(509,512,l),
(509,373,l),
(587,373,l),
(587,583,l),
(19,583,l),
(19,373,l),
(97,373,l),
(97,512,l),
(246,512,l),
(246,71,l),
(163,71,l),
(163,0,l)
);
}
);
};
layerId = "086393EE-48A8-42B6-AE05-10B6A30445E6";
shapes = (
{
closed = 1;
nodes = (
(443,0,l),
(443,83,l),
(361,83,l),
(361,500,l),
(506,500,l),
(506,366,l),
(587,366,l),
(587,583,l),
(20,583,l),
(20,366,l),
(101,366,l),
(101,500,l),
(246,500,l),
(246,83,l),
(164,83,l),
(164,0,l)
);
}
);
width = 607;
}
);
metricRight = "=|";
unicode = 84;
userData = {
com.typemytype.robofont.layerData = {
b = {
anchors = (
);
components = (
);
contours = (
);
lib = {
};
name = T;
unicodes = (
);
width = 1147;
};
};
org.robofab.postScriptHintData = {
};
};
},
{
color = 3;
glyphname = U;
kernLeft = U;
kernRight = U;
layers = (
{
anchors = (
{
name = bottom;
pos = (347,0);
},
{
name = ogonek;
pos = (384,0);
},
{
name = top;
pos = (348,583);
},
{
name = topright;
pos = (649,583);
}
);
background = {
anchors = (
{
name = bottom;
pos = (347,0);
},
{
name = ogonek;
pos = (384,0);
},
{
name = top;
pos = (348,583);
},
{
name = topright;
pos = (649,583);
}
);
shapes = (
{
closed = 1;
nodes = (
(484,-11,o),
(574,54,o),
(574,218,cs),
(574,561,l),
(659,561,l),
(659,583,l),
(461,583,l),
(461,561,l),
(546,561,l),
(546,218,ls),
(546,69,o),
(465,13,o),
(347,13,cs),
(229,13,o),
(150,69,o),
(150,218,cs),
(150,561,l),
(235,561,l),
(235,583,l),
(35,583,l),
(35,561,l),
(120,561,l),
(120,218,ls),
(120,54,o),
(210,-11,o),
(347,-11,cs)
);
}
);
};
layerId = "98C086B7-81AA-4491-8494-0C6A76849168";
shapes = (
{
closed = 1;
nodes = (
(484,-11,o),
(574,54,o),
(574,218,cs),
(574,561,l),
(659,561,l),
(659,583,l),
(461,583,l),
(461,561,l),
(546,561,l),
(546,218,ls),
(546,69,o),
(465,13,o),
(347,13,cs),
(229,13,o),
(150,69,o),
(150,218,cs),
(150,561,l),
(235,561,l),
(235,583,l),
(35,583,l),
(35,561,l),
(120,561,l),
(120,218,ls),
(120,54,o),
(210,-11,o),
(347,-11,cs)
);
}
);
width = 694;
},
{
anchors = (
{
name = bottom;
pos = (369,0);
},
{
name = ogonek;
pos = (424,0);
},
{
name = top;
pos = (369,583);
},
{
name = topright;
pos = (648,583);
}
);
background = {
anchors = (
{
name = bottom;
pos = (369,0);
},
{
name = ogonek;
pos = (384,0);
},
{
name = top;
pos = (369,583);
},
{
name = topright;
pos = (648,583);
}
);
shapes = (
{
closed = 1;
nodes = (
(533,-10,o),
(636,77,o),
(636,246,cs),
(636,463,l),
(686,463,l),
(686,583,l),
(416,583,l),
(416,463,l),
(466,463,l),
(466,241,ls),
(466,169,o),
(434,130,o),
(369,130,cs),
(304,130,o),
(272,169,o),
(272,241,cs),
(272,463,l),
(322,463,l),
(322,583,l),
(22,583,l),
(22,463,l),
(72,463,l),
(72,246,ls),
(72,77,o),
(173,-10,o),
(352,-10,cs)
);
}
);
};
layerId = "EFCDB4D9-E20B-4A8D-9DB5-150AD166B0AE";
shapes = (
{
closed = 1;
nodes = (
(533,-10,o),
(636,82,o),
(636,246,cs),
(636,463,l),
(686,463,l),
(686,583,l),
(416,583,l),
(416,463,l),
(466,463,l),
(466,236,ls),
(466,169,o),
(434,130,o),
(369,130,cs),
(304,130,o),
(272,169,o),
(272,236,cs),
(272,463,l),
(322,463,l),
(322,583,l),
(22,583,l),
(22,463,l),
(72,463,l),
(72,246,ls),
(72,82,o),
(173,-10,o),
(354,-10,cs)
);
}
);
width = 708;
},
{
anchors = (
{
name = bottom;
pos = (338,0);
},
{
name = ogonek;
pos = (363,0);
},
{
name = top;
pos = (344,563);
},
{
name = topright;
pos = (540,563);
}
);
associatedMasterId = "98C086B7-81AA-4491-8494-0C6A76849168";
layerId = "560BA3EF-9A8E-410C-8D3D-CDBA5F59A304";
name = "Original Regular";
shapes = (
{
closed = 1;
nodes = (
(476,-10,o),
(574,58,o),
(574,197,cs),
(574,510,l),
(650,510,l),
(650,563,l),
(431,563,l),
(431,510,l),
(505,510,l),
(505,194,ls),
(505,104,o),
(444,50,o),
(339,50,cs),
(241,50,o),
(183,104,o),
(183,193,cs),
(183,510,l),
(258,510,l),
(258,563,l),
(27,563,l),
(27,510,l),
(102,510,l),
(102,204,ls),
(102,82,o),
(169,-10,o),
(337,-10,cs)
);
}
);
width = 670;
},
{
anchors = (
{
name = bottom;
pos = (358,0);
},
{
name = ogonek;
pos = (404,0);
},
{
name = top;
pos = (359,583);
},
{
name = topright;
pos = (649,583);
}
);
background = {
anchors = (
{
name = bottom;
pos = (358,0);
},
{
name = ogonek;
pos = (404,0);
},
{
name = top;
pos = (359,583);
},
{
name = topright;
pos = (649,583);
}
);
shapes = (
{
closed = 1;
nodes = (
(509,-10,o),
(605,68,o),
(605,232,cs),
(605,512,l),
(673,512,l),
(673,583,l),
(439,583,l),
(439,512,l),
(506,512,l),
(506,227,ls),
(506,119,o),
(450,72,o),
(358,72,cs),
(267,72,o),
(211,119,o),
(211,227,cs),
(211,512,l),
(279,512,l),
(279,583,l),
(29,583,l),
(29,512,l),
(96,512,l),
(96,232,ls),
(96,68,o),
(192,-10,o),
(351,-10,cs)
);
}
);
};
layerId = "086393EE-48A8-42B6-AE05-10B6A30445E6";
shapes = (
{
closed = 1;
nodes = (
(509,-10,o),
(605,72,o),
(605,236,cs),
(605,500,l),
(672,500,l),
(672,583,l),
(439,583,l),
(439,500,l),
(506,500,l),
(506,241,ls),
(506,134,o),
(450,88,o),
(358,88,cs),
(267,88,o),
(211,134,o),
(211,241,cs),
(211,500,l),
(278,500,l),
(278,583,l),
(29,583,l),
(29,500,l),
(96,500,l),
(96,236,ls),
(96,82,o),
(192,-10,o),
(351,-10,cs)
);
}
);
width = 701;
}
);
metricRight = "=|";
unicode = 85;
userData = {
com.typemytype.robofont.layerData = {
b = {
anchors = (
);
components = (
);
contours = (
);
lib = {
};
name = U;
unicodes = (
);
width = 1514;
};
};
org.robofab.postScriptHintData = {
};
};
},
{
color = 3;
glyphname = Uhorn;
kernLeft = U;
kernRight = Uhorn;
layers = (
{
anchors = (
{
name = bottom;
pos = (347,0);
},
{
name = top;
pos = (348,583);
}
);
background = {
anchors = (
{
name = bottom;
pos = (347,0);
},
{
name = top;
pos = (348,583);
}
);
shapes = (
{
closed = 1;
nodes = (
(484,-11,o),
(574,54,o),
(574,218,cs),
(574,561,l),
(648,563,o),
(676,610,o),
(676,673,c),
(651,673,l),
(651,616,o),
(629,583,o),
(572,583,cs),
(461,583,l),
(461,561,l),
(546,561,l),
(546,218,ls),
(546,69,o),
(465,13,o),
(347,13,cs),
(229,13,o),
(150,69,o),
(150,218,cs),
(150,561,l),
(235,561,l),
(235,583,l),
(35,583,l),
(35,561,l),
(120,561,l),
(120,218,ls),
(120,54,o),
(210,-11,o),
(347,-11,cs)
);
}
);
};
layerId = "98C086B7-81AA-4491-8494-0C6A76849168";
shapes = (
{
closed = 1;
nodes = (
(484,-11,o),
(574,54,o),
(574,218,cs),
(574,561,l),
(648,563,o),
(676,610,o),
(676,673,c),
(651,673,l),
(651,616,o),
(629,583,o),
(572,583,cs),
(461,583,l),
(461,561,l),
(546,561,l),
(546,218,ls),
(546,69,o),
(465,13,o),
(347,13,cs),
(229,13,o),
(150,69,o),
(150,218,cs),
(150,561,l),
(235,561,l),
(235,583,l),
(35,583,l),
(35,561,l),
(120,561,l),
(120,218,ls),
(120,54,o),
(210,-11,o),
(347,-11,cs)
);
}
);
width = 694;
},
{
anchors = (
{
name = bottom;
pos = (369,0);
},
{
name = top;
pos = (369,583);
}
);
background = {
anchors = (
{
name = bottom;
pos = (369,0);
},
{
name = top;
pos = (369,583);
}
);
shapes = (
{
closed = 1;
nodes = (
(533,-10,o),
(636,82,o),
(636,246,cs),
(636,463,l),
(686,463,l),
(686,583,l),
(416,583,l),
(416,463,l),
(466,463,l),
(466,236,ls),
(466,169,o),
(434,130,o),
(369,130,cs),
(304,130,o),
(272,169,o),
(272,236,cs),
(272,463,l),
(322,463,l),
(322,583,l),
(22,583,l),
(22,463,l),
(72,463,l),
(72,246,ls),
(72,82,o),
(173,-10,o),
(354,-10,cs)
);
}
);
};
layerId = "EFCDB4D9-E20B-4A8D-9DB5-150AD166B0AE";
metricWidth = "=U+40";
shapes = (
{
closed = 1;
nodes = (
(533,-10,o),
(636,82,o),
(636,246,cs),
(636,463,l),
(737,468,o),
(789,540,o),
(789,683,c),
(655,683,l),
(655,607,o),
(626,583,o),
(573,583,cs),
(416,583,l),
(416,463,l),
(466,463,l),
(466,236,ls),
(466,169,o),
(434,130,o),
(369,130,cs),
(304,130,o),
(272,169,o),
(272,236,cs),
(272,463,l),
(322,463,l),
(322,583,l),
(22,583,l),
(22,463,l),
(72,463,l),
(72,246,ls),
(72,82,o),
(173,-10,o),
(354,-10,cs)
);
}
);
width = 748;
},
{
anchors = (
{
name = bottom;
pos = (338,0);
},
{
name = top;
pos = (344,563);
}
);
associatedMasterId = "98C086B7-81AA-4491-8494-0C6A76849168";
layerId = "65C35B1C-ACB2-4D53-989F-A55F6717DD0F";
name = "Original Regular";
shapes = (
{
closed = 1;
nodes = (
(476,-10,o),
(574,58,o),
(574,197,cs),
(574,563,l),
(431,563,l),
(431,510,l),
(505,510,l),
(505,194,ls),
(505,104,o),
(444,50,o),
(339,50,cs),
(241,50,o),
(183,104,o),
(183,193,cs),
(183,510,l),
(258,510,l),
(258,563,l),
(27,563,l),
(27,510,l),
(102,510,l),
(102,204,ls),
(102,82,o),
(169,-10,o),
(337,-10,cs)
);
},
{
closed = 1;
nodes = (
(532,516,ls),
(607,516,o),
(658,561,o),
(667,632,c),
(586,632,l),
(582,582,o),
(552,563,o),
(515,563,cs),
(503,563,l),
(503,516,l)
);
}
);
width = 670;
},
{
anchors = (
{
name = bottom;
pos = (358,0);
},
{
name = top;
pos = (359,583);
}
);
background = {
anchors = (
{
name = bottom;
pos = (358,0);
},
{
name = top;
pos = (359,583);
}
);
shapes = (
{
closed = 1;
nodes = (
(509,-10,o),
(605,72,o),
(605,236,cs),
(605,500,l),
(672,500,l),
(672,583,l),
(439,583,l),
(439,500,l),
(506,500,l),
(506,241,ls),
(506,134,o),
(450,88,o),
(358,88,cs),
(267,88,o),
(211,134,o),
(211,241,cs),
(211,500,l),
(279,500,l),
(279,583,l),
(29,583,l),
(29,500,l),
(96,500,l),
(96,236,ls),
(96,82,o),
(192,-10,o),
(351,-10,cs)
);
}
);
};
layerId = "086393EE-48A8-42B6-AE05-10B6A30445E6";
shapes = (
{
closed = 1;
nodes = (
(509,-10,o),
(605,72,o),
(605,236,cs),
(605,500,l),
(693,504,o),
(733,566,o),
(733,679,c),
(653,679,l),
(653,610,o),
(628,583,o),
(573,583,cs),
(439,583,l),
(439,500,l),
(506,500,l),
(506,241,ls),
(506,134,o),
(450,88,o),
(358,88,cs),
(267,88,o),
(211,134,o),
(211,241,cs),
(211,500,l),
(279,500,l),
(279,583,l),
(29,583,l),
(29,500,l),
(96,500,l),
(96,236,ls),
(96,82,o),
(192,-10,o),
(351,-10,cs)
);
}
);
width = 701;
}
);
metricLeft = U;
metricWidth = U;
unicode = 431;
},
{
color = 3;
glyphname = V;
kernLeft = V;
kernRight = V;
layers = (
{
background = {
shapes = (
{
closed = 1;
nodes = (
(314,0,l),
(520,561,l),
(595,561,l),
(595,583,l),
(411,583,l),
(411,561,l),
(491,561,l),
(294,18,l),
(309,18,l),
(112,561,l),
(192,561,l),
(192,583,l),
(6,583,l),
(6,561,l),
(81,561,l),
(287,0,l)
);
}
);
};
layerId = "98C086B7-81AA-4491-8494-0C6A76849168";
shapes = (
{
closed = 1;
nodes = (
(314,0,l),
(520,561,l),
(595,561,l),
(595,583,l),
(411,583,l),
(411,561,l),
(491,561,l),
(294,18,l),
(309,18,l),
(112,561,l),
(192,561,l),
(192,583,l),
(6,583,l),
(6,561,l),
(81,561,l),
(287,0,l)
);
}
);
width = 601;
},
{
background = {
shapes = (
{
closed = 1;
nodes = (
(456,0,l),
(627,463,l),
(677,463,l),
(677,583,l),
(375,583,l),
(375,463,l),
(430,463,l),
(332,149,l),
(358,149,l),
(260,463,l),
(315,463,l),
(315,583,l),
(0,583,l),
(0,463,l),
(50,463,l),
(221,0,l)
);
}
);
};
layerId = "EFCDB4D9-E20B-4A8D-9DB5-150AD166B0AE";
shapes = (
{
closed = 1;
nodes = (
(456,0,l),
(627,463,l),
(677,463,l),
(677,583,l),
(375,583,l),
(375,463,l),
(430,463,l),
(332,149,l),
(358,149,l),
(260,463,l),
(315,463,l),
(315,583,l),
(0,583,l),
(0,463,l),
(50,463,l),
(221,0,l)
);
}
);
width = 677;
},
{
associatedMasterId = "98C086B7-81AA-4491-8494-0C6A76849168";
layerId = "95FE4527-3059-4F20-8FF8-05C2BF1E944A";
name = "Original Regular";
shapes = (
{
closed = 1;
nodes = (
(360,0,l),
(560,510,l),
(629,510,l),
(629,563,l),
(415,563,l),
(415,510,l),
(487,510,l),
(330,89,l),
(171,510,l),
(245,510,l),
(245,563,l),
(16,563,l),
(16,510,l),
(87,510,l),
(289,0,l)
);
}
);
width = 646;
},
{
background = {
shapes = (
{
closed = 1;
nodes = (
(385,0,l),
(574,512,l),
(636,512,l),
(636,583,l),
(393,583,l),
(393,512,l),
(461,512,l),
(313,84,l),
(334,84,l),
(186,512,l),
(254,512,l),
(254,583,l),
(3,583,l),
(3,512,l),
(66,512,l),
(254,0,l)
);
}
);
};
layerId = "086393EE-48A8-42B6-AE05-10B6A30445E6";
shapes = (
{
closed = 1;
nodes = (
(385,0,l),
(574,500,l),
(637,500,l),
(637,583,l),
(393,583,l),
(393,500,l),
(461,500,l),
(313,100,l),
(334,100,l),
(186,500,l),
(254,500,l),
(254,583,l),
(3,583,l),
(3,500,l),
(66,500,l),
(254,0,l)
);
}
);
width = 640;
}
);
metricRight = "=|";
unicode = 86;
userData = {
com.typemytype.robofont.layerData = {
b = {
anchors = (
);
components = (
);
contours = (
);
lib = {
};
name = V;
unicodes = (
);
width = 1228;
};
};
org.robofab.postScriptHintData = {
};
};
},
{
color = 3;
glyphname = W;
kernLeft = V;
kernRight = V;
layers = (
{
anchors = (
{
name = top;
pos = (485,583);
}
);
background = {
anchors = (
{
name = top;
pos = (485,583);
}
);
shapes = (
{
closed = 1;
nodes = (
(296,0,l),
(490,501,l),
(477,501,l),
(671,0,l),
(697,0,l),
(873,561,l),
(948,561,l),
(948,583,l),
(764,583,l),
(764,561,l),
(844,561,l),
(678,18,l),
(692,18,l),
(495,534,l),
(473,534,l),
(276,18,l),
(291,18,l),
(124,561,l),
(204,561,l),
(204,583,l),
(18,583,l),
(18,561,l),
(93,561,l),
(269,0,l)
);
}
);
};
layerId = "98C086B7-81AA-4491-8494-0C6A76849168";
shapes = (
{
closed = 1;
nodes = (
(296,0,l),
(490,501,l),
(477,501,l),
(671,0,l),
(697,0,l),
(873,561,l),
(948,561,l),
(948,583,l),
(764,583,l),
(764,561,l),
(844,561,l),
(678,18,l),
(692,18,l),
(495,534,l),
(473,534,l),
(276,18,l),
(291,18,l),
(124,561,l),
(204,561,l),
(204,583,l),
(18,583,l),
(18,561,l),
(93,561,l),
(269,0,l)
);
}
);
width = 966;
},
{
anchors = (
{
name = top;
pos = (482,583);
}
);
background = {
anchors = (
{
name = top;
pos = (482,583);
}
);
shapes = (
{
closed = 1;
nodes = (
(405,0,l),
(497,311,l),
(462,311,l),
(564,0,l),
(775,0,l),
(899,463,l),
(950,463,l),
(950,583,l),
(653,583,l),
(653,463,l),
(708,463,l),
(651,149,l),
(677,149,l),
(566,533,l),
(397,533,l),
(285,149,l),
(311,149,l),
(255,463,l),
(310,463,l),
(310,583,l),
(0,583,l),
(0,463,l),
(50,463,l),
(174,0,l)
);
}
);
};
layerId = "EFCDB4D9-E20B-4A8D-9DB5-150AD166B0AE";
shapes = (
{
closed = 1;
nodes = (
(405,0,l),
(497,311,l),
(462,311,l),
(564,0,l),
(775,0,l),
(899,463,l),
(950,463,l),
(950,583,l),
(653,583,l),
(653,463,l),
(708,463,l),
(651,149,l),
(677,149,l),
(566,533,l),
(397,533,l),
(285,149,l),
(311,149,l),
(255,463,l),
(310,463,l),
(310,583,l),
(0,583,l),
(0,463,l),
(50,463,l),
(174,0,l)
);
}
);
width = 950;
},
{
anchors = (
{
name = top;
pos = (468,553);
}
);
associatedMasterId = "98C086B7-81AA-4491-8494-0C6A76849168";
layerId = "D075F43E-E816-42D3-8DB4-466F5CE8113E";
name = "Original Regular";
shapes = (
{
closed = 1;
nodes = (
(323,0,l),
(463,426,l),
(604,0,l),
(674,0,l),
(829,510,l),
(899,510,l),
(899,563,l),
(689,563,l),
(689,510,l),
(762,510,l),
(643,104,l),
(497,553,l),
(438,553,l),
(293,104,l),
(171,510,l),
(244,510,l),
(244,563,l),
(24,563,l),
(24,510,l),
(93,510,l),
(253,0,l)
);
}
);
width = 922;
},
{
anchors = (
{
name = top;
pos = (484,583);
}
);
background = {
anchors = (
{
name = top;
pos = (484,583);
}
);
shapes = (
{
closed = 1;
nodes = (
(351,0,l),
(494,406,l),
(470,406,l),
(618,0,l),
(736,0,l),
(886,512,l),
(949,512,l),
(949,583,l),
(709,583,l),
(709,512,l),
(776,512,l),
(665,84,l),
(685,84,l),
(531,534,l),
(435,534,l),
(281,84,l),
(301,84,l),
(190,512,l),
(257,512,l),
(257,583,l),
(9,583,l),
(9,512,l),
(72,512,l),
(222,0,l)
);
}
);
};
layerId = "086393EE-48A8-42B6-AE05-10B6A30445E6";
shapes = (
{
closed = 1;
nodes = (
(351,0,l),
(494,389,l),
(470,389,l),
(618,0,l),
(736,0,l),
(886,500,l),
(949,500,l),
(949,583,l),
(709,583,l),
(709,500,l),
(776,500,l),
(665,100,l),
(685,100,l),
(531,533,l),
(435,533,l),
(281,100,l),
(301,100,l),
(190,500,l),
(257,500,l),
(257,583,l),
(9,583,l),
(9,500,l),
(72,500,l),
(222,0,l)
);
}
);
width = 958;
}
);
metricRight = "=|";
unicode = 87;
userData = {
com.typemytype.robofont.layerData = {
b = {
anchors = (
);
components = (
);
contours = (
);
lib = {
};
name = W;
unicodes = (
);
width = 1962;
};
};
org.robofab.postScriptHintData = {
};
};
},
{
color = 3;
glyphname = X;
kernLeft = X;
kernRight = X;
layers = (
{
background = {
shapes = (
{
closed = 1;
nodes = (
(215,0,l),
(215,22,l),
(135,22,l),
(305,289,l),
(294,286,l),
(464,22,l),
(384,22,l),
(384,0,l),
(569,0,l),
(569,22,l),
(494,22,l),
(309,309,l),
(307,286,l),
(483,561,l),
(558,561,l),
(558,583,l),
(372,583,l),
(372,561,l),
(452,561,l),
(293,311,l),
(306,314,l),
(146,561,l),
(226,561,l),
(226,583,l),
(41,583,l),
(41,561,l),
(116,561,l),
(289,294,l),
(288,310,l),
(104,22,l),
(29,22,l),
(29,0,l)
);
}
);
};
guides = (
{
angle = 122.8479;
pos = (290,292);
},
{
angle = 122.8479;
pos = (318,292);
},
{
angle = 57.1521;
pos = (279,292);
},
{
angle = 237.1521;
pos = (309,292);
}
);
layerId = "98C086B7-81AA-4491-8494-0C6A76849168";
shapes = (
{
closed = 1;
nodes = (
(215,0,l),
(215,22,l),
(135,22,l),
(305,289,l),
(294,286,l),
(464,22,l),
(384,22,l),
(384,0,l),
(569,0,l),
(569,22,l),
(494,22,l),
(309,309,l),
(307,286,l),
(483,561,l),
(558,561,l),
(558,583,l),
(372,583,l),
(372,561,l),
(452,561,l),
(293,311,l),
(306,314,l),
(146,561,l),
(226,561,l),
(226,583,l),
(41,583,l),
(41,561,l),
(116,561,l),
(289,294,l),
(288,310,l),
(104,22,l),
(29,22,l),
(29,0,l)
);
}
);
width = 596;
},
{
background = {
shapes = (
{
closed = 1;
nodes = (
(301,0,l),
(301,120,l),
(256,120,l),
(374,271,l),
(318,227,l),
(420,120,l),
(375,120,l),
(375,0,l),
(708,0,l),
(708,120,l),
(668,120,l),
(484,304,l),
(464,228,l),
(658,463,l),
(698,463,l),
(698,583,l),
(405,583,l),
(405,463,l),
(450,463,l),
(332,312,l),
(427,341,l),
(307,463,l),
(352,463,l),
(352,583,l),
(19,583,l),
(19,463,l),
(59,463,l),
(246,279,l),
(242,355,l),
(47,120,l),
(7,120,l),
(7,0,l)
);
}
);
};
guides = (
{
angle = 135.1617;
pos = (467,292);
},
{
angle = 135.1666;
pos = (249,292);
}
);
layerId = "EFCDB4D9-E20B-4A8D-9DB5-150AD166B0AE";
shapes = (
{
closed = 1;
nodes = (
(301,0,l),
(301,120,l),
(256,120,l),
(374,271,l),
(318,227,l),
(420,120,l),
(375,120,l),
(375,0,l),
(708,0,l),
(708,120,l),
(668,120,l),
(484,304,l),
(464,228,l),
(658,463,l),
(698,463,l),
(698,583,l),
(405,583,l),
(405,463,l),
(450,463,l),
(332,312,l),
(427,341,l),
(307,463,l),
(352,463,l),
(352,583,l),
(19,583,l),
(19,463,l),
(59,463,l),
(246,279,l),
(242,355,l),
(47,120,l),
(7,120,l),
(7,0,l)
);
}
);
width = 715;
},
{
associatedMasterId = "98C086B7-81AA-4491-8494-0C6A76849168";
layerId = "918D79ED-BED8-4B54-AA0F-64B2DA1CCB92";
name = "Original Regular";
shapes = (
{
closed = 1;
nodes = (
(253,0,l),
(253,50,l),
(182,50,l),
(311,243,l),
(441,50,l),
(371,50,l),
(371,0,l),
(607,0,l),
(607,50,l),
(528,50,l),
(359,289,l),
(517,512,l),
(594,512,l),
(594,563,l),
(375,563,l),
(375,512,l),
(444,512,l),
(323,334,l),
(200,512,l),
(268,512,l),
(268,563,l),
(37,563,l),
(37,512,l),
(114,512,l),
(273,288,l),
(108,50,l),
(30,50,l),
(30,0,l)
);
}
);
width = 637;
},
{
background = {
shapes = (
{
closed = 1;
nodes = (
(258,0,l),
(258,83,l),
(196,83,l),
(337,278,l),
(303,249,l),
(437,83,l),
(375,83,l),
(375,0,l),
(634,0,l),
(634,83,l),
(576,83,l),
(394,306,l),
(386,250,l),
(571,500,l),
(629,500,l),
(629,583,l),
(389,583,l),
(389,500,l),
(451,500,l),
(316,312,l),
(370,331,l),
(233,500,l),
(295,500,l),
(295,583,l),
(36,583,l),
(36,500,l),
(94,500,l),
(271,285,l),
(265,338,l),
(76,83,l),
(18,83,l),
(18,0,l)
);
}
);
};
guides = (
{
angle = -50.673;
pos = (369,166);
},
{
angle = 48.0356;
pos = (264,292);
},
{
angle = 228.0356;
pos = (384,292);
},
{
angle = 129.4387;
pos = (405,292);
}
);
layerId = "086393EE-48A8-42B6-AE05-10B6A30445E6";
shapes = (
{
closed = 1;
nodes = (
(258,0,l),
(258,83,l),
(196,83,l),
(337,250,l),
(301,249,l),
(437,83,l),
(375,83,l),
(375,0,l),
(634,0,l),
(634,83,l),
(576,83,l),
(378,325,l),
(386,284,l),
(571,500,l),
(629,500,l),
(629,583,l),
(389,583,l),
(389,500,l),
(451,500,l),
(319,343,l),
(355,353,l),
(233,500,l),
(295,500,l),
(295,583,l),
(36,583,l),
(36,500,l),
(94,500,l),
(271,285,l),
(277,316,l),
(76,83,l),
(18,83,l),
(18,0,l)
);
}
);
width = 655.5;
}
);
unicode = 88;
userData = {
com.typemytype.robofont.layerData = {
b = {
anchors = (
);
components = (
);
contours = (
);
lib = {
};
name = X;
unicodes = (
);
width = 1293;
};
};
org.robofab.postScriptHintData = {
};
};
},
{
color = 3;
glyphname = Y;
kernLeft = Y;
kernRight = Y;
layers = (
{
anchors = (
{
name = bottom;
pos = (299,0);
},
{
name = top;
pos = (299,583);
}
);
background = {
anchors = (
{
name = bottom;
pos = (299,0);
},
{
name = top;
pos = (299,583);
}
);
shapes = (
{
closed = 1;
nodes = (
(409,0,l),
(409,22,l),
(314,22,l),
(314,247,l),
(523,561,l),
(598,561,l),
(598,583,l),
(412,583,l),
(412,561,l),
(492,561,l),
(293,260,l),
(308,260,l),
(107,561,l),
(187,561,l),
(187,583,l),
(0,583,l),
(0,561,l),
(75,561,l),
(284,247,l),
(284,22,l),
(189,22,l),
(189,0,l)
);
}
);
};
layerId = "98C086B7-81AA-4491-8494-0C6A76849168";
shapes = (
{
closed = 1;
nodes = (
(409,0,l),
(409,22,l),
(314,22,l),
(314,247,l),
(523,561,l),
(598,561,l),
(598,583,l),
(412,583,l),
(412,561,l),
(492,561,l),
(293,260,l),
(308,260,l),
(107,561,l),
(187,561,l),
(187,583,l),
(0,583,l),
(0,561,l),
(75,561,l),
(284,247,l),
(284,22,l),
(189,22,l),
(189,0,l)
);
}
);
width = 598;
},
{
anchors = (
{
name = bottom;
pos = (334,0);
},
{
name = top;
pos = (334,583);
}
);
background = {
anchors = (
{
name = bottom;
pos = (334,0);
},
{
name = top;
pos = (334,583);
}
);
shapes = (
{
closed = 1;
nodes = (
(494,0,l),
(494,120,l),
(434,120,l),
(434,217,l),
(618,463,l),
(668,463,l),
(668,583,l),
(366,583,l),
(366,463,l),
(425,463,l),
(309,307,l),
(364,307,l),
(253,463,l),
(312,463,l),
(312,583,l),
(0,583,l),
(0,463,l),
(50,463,l),
(234,217,l),
(234,120,l),
(174,120,l),
(174,0,l)
);
}
);
};
layerId = "EFCDB4D9-E20B-4A8D-9DB5-150AD166B0AE";
shapes = (
{
closed = 1;
nodes = (
(494,0,l),
(494,120,l),
(434,120,l),
(434,217,l),
(618,463,l),
(668,463,l),
(668,583,l),
(366,583,l),
(366,463,l),
(425,463,l),
(309,307,l),
(364,307,l),
(253,463,l),
(312,463,l),
(312,583,l),
(0,583,l),
(0,463,l),
(50,463,l),
(234,217,l),
(234,120,l),
(174,120,l),
(174,0,l)
);
}
);
width = 668;
},
{
anchors = (
{
name = bottom;
pos = (318,0);
},
{
name = top;
pos = (322,563);
}
);
associatedMasterId = "98C086B7-81AA-4491-8494-0C6A76849168";
layerId = "D31B310C-B1F6-4C8F-A68A-811299BD3144";
name = "Original Regular";
shapes = (
{
closed = 1;
nodes = (
(441,0,l),
(441,53,l),
(358,53,l),
(358,242,l),
(541,510,l),
(618,510,l),
(618,563,l),
(396,563,l),
(396,510,l),
(468,510,l),
(325,294,l),
(177,510,l),
(248,510,l),
(248,563,l),
(14,563,l),
(14,510,l),
(89,510,l),
(277,241,l),
(277,53,l),
(195,53,l),
(195,0,l)
);
}
);
width = 632;
},
{
anchors = (
{
name = bottom;
pos = (317,0);
},
{
name = top;
pos = (317,583);
}
);
background = {
anchors = (
{
name = bottom;
pos = (317,0);
},
{
name = top;
pos = (317,583);
}
);
shapes = (
{
closed = 1;
nodes = (
(452,0,l),
(452,71,l),
(374,71,l),
(374,232,l),
(571,512,l),
(633,512,l),
(633,583,l),
(389,583,l),
(389,512,l),
(459,512,l),
(301,284,l),
(336,284,l),
(180,512,l),
(250,512,l),
(250,583,l),
(0,583,l),
(0,512,l),
(63,512,l),
(259,232,l),
(259,71,l),
(182,71,l),
(182,0,l)
);
}
);
};
layerId = "086393EE-48A8-42B6-AE05-10B6A30445E6";
shapes = (
{
closed = 1;
nodes = (
(451,0,l),
(451,83,l),
(374,83,l),
(374,228,l),
(571,500,l),
(634,500,l),
(634,583,l),
(386,583,l),
(386,500,l),
(456,500,l),
(305,289,l),
(332,289,l),
(183,500,l),
(253,500,l),
(253,583,l),
(0,583,l),
(0,500,l),
(63,500,l),
(259,228,l),
(259,83,l),
(182,83,l),
(182,0,l)
);
}
);
width = 634;
}
);
metricRight = "=|";
unicode = 89;
userData = {
com.typemytype.robofont.layerData = {
b = {
anchors = (
);
components = (
);
contours = (
);
lib = {
};
name = Y;
unicodes = (
);
width = 1254;
};
};
org.robofab.postScriptHintData = {
};
};
},
{
color = 3;
glyphname = Z;
kernLeft = Z;
kernRight = Z;
layers = (
{
anchors = (
{
name = bottom;
pos = (307,0);
},
{
name = top;
pos = (308,583);
}
);
background = {
anchors = (
{
name = bottom;
pos = (307,0);
},
{
name = top;
pos = (308,583);
}
);
shapes = (
{
closed = 1;
nodes = (
(538,0,l),
(538,200,l),
(512,200,l),
(512,22,l),
(113,22,l),
(525,563,l),
(525,583,l),
(90,583,l),
(90,403,l),
(116,403,l),
(116,561,l),
(488,561,l),
(76,20,l),
(76,0,l)
);
}
);
};
layerId = "98C086B7-81AA-4491-8494-0C6A76849168";
shapes = (
{
closed = 1;
nodes = (
(538,0,l),
(538,200,l),
(512,200,l),
(512,22,l),
(113,22,l),
(525,563,l),
(525,583,l),
(90,583,l),
(90,403,l),
(116,403,l),
(116,561,l),
(488,561,l),
(76,20,l),
(76,0,l)
);
}
);
width = 591;
},
{
anchors = (
{
name = bottom;
pos = (300,0);
},
{
name = top;
pos = (294,583);
}
);
background = {
anchors = (
{
name = bottom;
pos = (300,0);
},
{
name = top;
pos = (294,583);
}
);
shapes = (
{
closed = 1;
nodes = (
(569,0,l),
(569,260,l),
(439,260,l),
(439,120,l),
(286,120,l),
(549,493,l),
(549,583,l),
(38,583,l),
(38,343,l),
(164,343,l),
(164,463,l),
(293,463,l),
(30,90,l),
(30,0,l)
);
}
);
};
layerId = "EFCDB4D9-E20B-4A8D-9DB5-150AD166B0AE";
shapes = (
{
closed = 1;
nodes = (
(569,0,l),
(569,260,l),
(439,260,l),
(439,120,l),
(280,120,l),
(549,493,l),
(549,583,l),
(38,583,l),
(38,343,l),
(168,343,l),
(168,463,l),
(299,463,l),
(30,90,l),
(30,0,l)
);
}
);
width = 593;
},
{
anchors = (
{
name = bottom;
pos = (293,0);
},
{
name = top;
pos = (297,563);
}
);
associatedMasterId = "98C086B7-81AA-4491-8494-0C6A76849168";
layerId = "2CC29F20-D309-4BB8-B836-25E11A842DAD";
name = "Original Regular";
shapes = (
{
closed = 1;
nodes = (
(523,0,l),
(523,195,l),
(463,195,l),
(463,53,l),
(158,53,l),
(516,512,l),
(516,563,l),
(77,563,l),
(77,377,l),
(137,377,l),
(137,510,l),
(417,510,l),
(62,57,l),
(62,0,l)
);
}
);
width = 576;
},
{
anchors = (
{
name = bottom;
pos = (304,0);
},
{
name = top;
pos = (301,583);
}
);
background = {
anchors = (
{
name = bottom;
pos = (304,0);
},
{
name = top;
pos = (301,583);
}
);
shapes = (
{
closed = 1;
nodes = (
(554,0,l),
(554,230,l),
(476,230,l),
(476,71,l),
(197,71,l),
(537,528,l),
(537,583,l),
(64,583,l),
(64,373,l),
(142,373,l),
(142,512,l),
(394,512,l),
(53,55,l),
(53,0,l)
);
}
);
};
layerId = "086393EE-48A8-42B6-AE05-10B6A30445E6";
shapes = (
{
closed = 1;
nodes = (
(554,0,l),
(554,238,l),
(473,238,l),
(473,83,l),
(199,83,l),
(537,519,l),
(537,583,l),
(64,583,l),
(64,366,l),
(145,366,l),
(145,500,l),
(387,500,l),
(53,64,l),
(53,0,l)
);
}
);
width = 592;
}
);
unicode = 90;
userData = {
com.typemytype.robofont.layerData = {
b = {
anchors = (
);
components = (
);
contours = (
);
lib = {
};
name = Z;
unicodes = (
);
width = 1241;
};
};
org.robofab.postScriptHintData = {
};
};
},
{
color = 1;
glyphname = a;
kernLeft = a;
kernRight = n;
layers = (
{
anchors = (
{
name = bottom;
pos = (235,0);
},
{
name = ogonek;
pos = (398,0);
},
{
name = top;
pos = (225,393);
}
);
background = {
anchors = (
{
name = bottom;
pos = (235,0);
},
{
name = ogonek;
pos = (398,0);
},
{
name = top;
pos = (225,393);
}
);
shapes = (
{
closed = 1;
nodes = (
(249,-10,o),
(304,11,o),
(348,57,c),
(344,59,l),
(344,0,l),
(448,0,l),
(448,22,l),
(373,22,l),
(373,269,ls),
(373,360,o),
(323,403,o),
(221,403,cs),
(179,403,o),
(126,392,o),
(83,370,c),
(93,347,l),
(134,370,o),
(182,380,o),
(223,380,cs),
(306,380,o),
(344,346,o),
(344,275,cs),
(344,195,l),
(358,202,l),
(302,215,o),
(257,222,o),
(207,222,cs),
(121,222,o),
(60,185,o),
(60,104,cs),
(60,32,o),
(109,-10,o),
(198,-10,cs)
);
},
{
closed = 1;
nodes = (
(125,13,o),
(89,46,o),
(89,105,cs),
(89,170,o),
(134,199,o),
(211,199,cs),
(253,199,o),
(303,194,o),
(359,179,c),
(344,190,l),
(344,68,l),
(349,81,l),
(301,35,o),
(251,13,o),
(198,13,cs)
);
}
);
};
layerId = "98C086B7-81AA-4491-8494-0C6A76849168";
shapes = (
{
closed = 1;
nodes = (
(249,-10,o),
(304,11,o),
(348,57,c),
(344,59,l),
(344,0,l),
(448,0,l),
(448,22,l),
(373,22,l),
(373,269,ls),
(373,360,o),
(323,403,o),
(221,403,cs),
(179,403,o),
(126,392,o),
(83,370,c),
(93,347,l),
(134,370,o),
(182,380,o),
(223,380,cs),
(306,380,o),
(344,346,o),
(344,275,cs),
(344,195,l),
(358,202,l),
(302,215,o),
(257,222,o),
(207,222,cs),
(121,222,o),
(60,185,o),
(60,104,cs),
(60,32,o),
(109,-10,o),
(198,-10,cs)
);
},
{
closed = 1;
nodes = (
(125,13,o),
(89,46,o),
(89,105,cs),
(89,170,o),
(134,199,o),
(211,199,cs),
(253,199,o),
(303,194,o),
(359,179,c),
(344,190,l),
(344,68,l),
(349,81,l),
(301,35,o),
(251,13,o),
(198,13,cs)
);
}
);
width = 466;
},
{
anchors = (
{
name = bottom;
pos = (260,0);
},
{
name = ogonek;
pos = (415,0);
},
{
name = top;
pos = (237,403);
}
);
background = {
anchors = (
{
name = bottom;
pos = (260,0);
},
{
name = ogonek;
pos = (415,0);
},
{
name = top;
pos = (237,403);
}
);
shapes = (
{
closed = 1;
nodes = (
(224,-10,o),
(263,16,o),
(308,50,c),
(281,68,l),
(281,0,l),
(481,0,l),
(481,110,l),
(441,110,l),
(441,231,ls),
(441,349,o),
(375,413,o),
(236,413,cs),
(153,413,o),
(77,397,o),
(16,365,c),
(61,249,l),
(99,272,o),
(142,283,o),
(185,283,cs),
(239,283,o),
(266,262,o),
(266,229,cs),
(266,206,l),
(285,220,l),
(265,228,o),
(219,236,o),
(176,236,cs),
(64,236,o),
(14,187,o),
(14,115,cs),
(14,43,o),
(68,-10,o),
(161,-10,cs)
);
},
{
closed = 1;
nodes = (
(201,86,o),
(184,97,o),
(184,119,cs),
(184,142,o),
(201,154,o),
(228,154,cs),
(251,154,o),
(271,149,o),
(284,141,c),
(266,169,l),
(266,78,l),
(281,115,l),
(268,100,o),
(247,86,o),
(222,86,cs)
);
}
);
};
layerId = "EFCDB4D9-E20B-4A8D-9DB5-150AD166B0AE";
shapes = (
{
closed = 1;
nodes = (
(224,-10,o),
(263,16,o),
(308,50,c),
(281,68,l),
(281,0,l),
(481,0,l),
(481,110,l),
(441,110,l),
(441,231,ls),
(441,349,o),
(375,413,o),
(236,413,cs),
(159,413,o),
(83,397,o),
(22,365,c),
(63,249,l),
(101,272,o),
(144,283,o),
(187,283,cs),
(239,283,o),
(266,262,o),
(266,229,cs),
(266,206,l),
(285,220,l),
(265,228,o),
(219,236,o),
(176,236,cs),
(64,236,o),
(14,187,o),
(14,115,cs),
(14,43,o),
(68,-10,o),
(161,-10,cs)
);
},
{
closed = 1;
nodes = (
(201,86,o),
(184,97,o),
(184,119,cs),
(184,142,o),
(201,154,o),
(228,154,cs),
(251,154,o),
(271,149,o),
(284,141,c),
(266,169,l),
(266,78,l),
(281,115,l),
(268,100,o),
(247,86,o),
(222,86,cs)
);
}
);
width = 494;
},
{
anchors = (
{
name = bottom;
pos = (242,0);
},
{
name = ogonek;
pos = (415,0);
},
{
name = top;
pos = (217,393);
}
);
associatedMasterId = "98C086B7-81AA-4491-8494-0C6A76849168";
layerId = "FEF933DC-5707-4C57-B473-1984667B8782";
name = "Original Regular";
shapes = (
{
closed = 1;
nodes = (
(239,-11,o),
(284,11,o),
(336,56,c),
(308,56,l),
(314,0,l),
(441,0,l),
(441,53,l),
(379,53,l),
(379,264,ls),
(379,348,o),
(318,403,o),
(214,403,cs),
(167,403,o),
(102,389,o),
(56,360,c),
(78,312,l),
(121,335,o),
(176,348,o),
(213,348,cs),
(270,348,o),
(306,319,o),
(306,257,cs),
(306,204,l),
(336,209,l),
(291,221,o),
(242,229,o),
(197,229,cs),
(110,229,o),
(39,196,o),
(39,106,cs),
(39,41,o),
(92,-11,o),
(174,-11,cs)
);
},
{
closed = 1;
nodes = (
(137,40,o),
(109,70,o),
(109,110,cs),
(109,168,o),
(155,185,o),
(202,185,cs),
(249,185,o),
(294,177,o),
(329,167,c),
(306,185,l),
(306,69,l),
(336,105,l),
(282,61,o),
(234,40,o),
(185,40,cs)
);
}
);
width = 456;
},
{
anchors = (
{
name = bottom;
pos = (248,0);
},
{
name = ogonek;
pos = (407,0);
},
{
name = top;
pos = (231,399);
}
);
background = {
shapes = (
{
closed = 1;
nodes = (
(237,-10,o),
(295,13,o),
(328,53,c),
(313,65,l),
(313,0,l),
(464,0,l),
(464,77,l),
(407,77,l),
(407,245,ls),
(407,353,o),
(341,409,o),
(219,409,cs),
(169,409,o),
(105,395,o),
(53,367,c),
(78,287,l),
(118,310,o),
(163,322,o),
(208,322,cs),
(273,322,o),
(305,294,o),
(305,246,cs),
(305,202,l),
(322,213,l),
(284,224,o),
(237,231,o),
(202,231,cs),
(93,231,o),
(37,186,o),
(37,111,cs),
(37,39,o),
(89,-10,o),
(187,-10,cs)
);
},
{
closed = 1;
nodes = (
(163,61,o),
(137,79,o),
(137,112,cs),
(137,147,o),
(166,165,o),
(220,165,cs),
(252,165,o),
(287,160,o),
(322,150,c),
(305,172,l),
(305,78,l),
(315,107,l),
(295,81,o),
(249,61,o),
(210,61,cs)
);
}
);
};
layerId = "086393EE-48A8-42B6-AE05-10B6A30445E6";
shapes = (
{
closed = 1;
nodes = (
(237,-10,o),
(295,13,o),
(328,53,c),
(313,65,l),
(313,0,l),
(464,0,l),
(464,77,l),
(407,77,l),
(407,245,ls),
(407,353,o),
(341,409,o),
(219,409,cs),
(169,409,o),
(105,395,o),
(53,367,c),
(78,286,l),
(118,309,o),
(163,321,o),
(208,321,cs),
(273,321,o),
(305,294,o),
(305,246,cs),
(305,202,l),
(322,213,l),
(284,224,o),
(237,231,o),
(202,231,cs),
(93,231,o),
(37,186,o),
(37,111,cs),
(37,39,o),
(89,-10,o),
(187,-10,cs)
);
},
{
closed = 1;
nodes = (
(163,68,o),
(137,84,o),
(137,112,cs),
(137,142,o),
(166,158,o),
(220,158,cs),
(252,158,o),
(287,154,o),
(322,144,c),
(305,172,l),
(305,78,l),
(315,108,l),
(295,85,o),
(249,68,o),
(210,68,cs)
);
}
);
width = 480;
}
);
metricRight = n;
unicode = 97;
userData = {
com.typemytype.robofont.layerData = {
b = {
anchors = (
);
components = (
);
contours = (
{
points = (
{
segmentType = curve;
smooth = 1;
x = 391;
y = "-14";
},
{
smooth = 0;
x = 507;
y = "-14";
},
{
smooth = 0;
x = 593;
y = 21;
},
{
segmentType = curve;
smooth = 0;
x = 687;
y = 91;
},
{
segmentType = line;
smooth = 0;
x = 703;
y = "-1";
},
{
segmentType = line;
smooth = 0;
x = 890;
y = "-1";
},
{
segmentType = line;
smooth = 0;
x = 890;
y = 57;
},
{
segmentType = line;
smooth = 0;
x = 764;
y = 57;
},
{
segmentType = line;
smooth = 1;
x = 764;
y = 569;
},
{
smooth = 0;
x = 764;
y = 672;
},
{
smooth = 0;
x = 710;
y = 819;
},
{
segmentType = curve;
smooth = 1;
x = 461;
y = 819;
},
{
smooth = 0;
x = 332;
y = 819;
},
{
smooth = 0;
x = 226;
y = 792;
},
{
segmentType = curve;
smooth = 0;
x = 155;
y = 724;
},
{
segmentType = line;
smooth = 0;
x = 190;
y = 668;
},
{
smooth = 0;
x = 247;
y = 726;
},
{
smooth = 0;
x = 339;
y = 755;
},
{
segmentType = curve;
smooth = 1;
x = 459;
y = 755;
},
{
smooth = 0;
x = 600;
y = 755;
},
{
smooth = 0;
x = 687;
y = 706;
},
{
segmentType = curve;
smooth = 1;
x = 687;
y = 551;
},
{
segmentType = line;
smooth = 0;
x = 687;
y = 428;
},
{
smooth = 0;
x = 609;
y = 443;
},
{
smooth = 0;
x = 539;
y = 455;
},
{
segmentType = curve;
smooth = 1;
x = 465;
y = 455;
},
{
smooth = 0;
x = 295;
y = 455;
},
{
smooth = 0;
x = 117;
y = 433;
},
{
segmentType = curve;
smooth = 1;
x = 117;
y = 222;
},
{
smooth = 0;
x = 117;
y = 96;
},
{
smooth = 0;
x = 206;
y = "-14";
}
);
},
{
points = (
{
segmentType = curve;
smooth = 1;
x = 401;
y = 50;
},
{
smooth = 0;
x = 246;
y = 50;
},
{
smooth = 0;
x = 195;
y = 142;
},
{
segmentType = curve;
smooth = 1;
x = 195;
y = 220;
},
{
smooth = 0;
x = 195;
y = 390;
},
{
smooth = 0;
x = 346;
y = 393;
},
{
segmentType = curve;
smooth = 1;
x = 462;
y = 393;
},
{
smooth = 0;
x = 559;
y = 393;
},
{
smooth = 0;
x = 687;
y = 368;
},
{
segmentType = curve;
smooth = 0;
x = 687;
y = 368;
},
{
segmentType = line;
smooth = 0;
x = 687;
y = 151;
},
{
smooth = 0;
x = 606;
y = 76;
},
{
smooth = 0;
x = 511;
y = 50;
}
);
}
);
lib = {
};
name = a;
unicodes = (
);
width = 951;
};
};
org.robofab.postScriptHintData = {
};
};
},
{
color = 1;
glyphname = ae;
kernLeft = a;
kernRight = e;
layers = (
{
anchors = (
{
name = top;
pos = (376,393);
}
);
background = {
anchors = (
{
name = top;
pos = (376,393);
}
);
shapes = (
{
closed = 1;
nodes = (
(277,-10,o),
(330,29,o),
(381,76,c),
(376,77,l),
(407,28,o),
(466,-10,o),
(560,-10,cs),
(622,-10,o),
(687,15,o),
(734,57,c),
(718,77,l),
(681,39,o),
(617,13,o),
(561,13,cs),
(439,13,o),
(373,86,o),
(373,196,cs),
(373,199,ls),
(373,306,o),
(445,381,o),
(546,381,cs),
(646,381,o),
(711,311,o),
(713,210,c),
(368,210,l),
(368,188,l),
(741,188,l),
(741,195,ls),
(741,318,o),
(667,403,o),
(546,403,cs),
(455,403,o),
(383,355,o),
(358,269,c),
(372,269,l),
(372,360,o),
(323,403,o),
(221,403,cs),
(179,403,o),
(126,392,o),
(83,370,c),
(93,347,l),
(134,370,o),
(182,380,o),
(223,380,cs),
(306,380,o),
(344,346,o),
(344,275,cs),
(344,199,l),
(361,210,l),
(212,210,ls),
(107,210,o),
(60,171,o),
(60,101,cs),
(60,33,o),
(109,-10,o),
(198,-10,cs)
);
},
{
closed = 1;
nodes = (
(125,13,o),
(89,47,o),
(89,101,cs),
(89,155,o),
(123,188,o),
(210,188,cs),
(344,188,l),
(345,150,o),
(353,120,o),
(368,89,c),
(370,97,l),
(325,49,o),
(272,13,o),
(198,13,cs)
);
}
);
};
layerId = "98C086B7-81AA-4491-8494-0C6A76849168";
shapes = (
{
closed = 1;
nodes = (
(277,-10,o),
(330,29,o),
(381,76,c),
(376,77,l),
(407,28,o),
(466,-10,o),
(560,-10,cs),
(622,-10,o),
(687,15,o),
(734,57,c),
(718,77,l),
(681,39,o),
(617,13,o),
(561,13,cs),
(439,13,o),
(373,86,o),
(373,196,cs),
(373,199,ls),
(373,306,o),
(445,381,o),
(546,381,cs),
(646,381,o),
(711,311,o),
(713,210,c),
(368,210,l),
(368,188,l),
(741,188,l),
(741,195,ls),
(741,318,o),
(667,403,o),
(546,403,cs),
(455,403,o),
(383,355,o),
(358,269,c),
(372,269,l),
(372,360,o),
(323,403,o),
(221,403,cs),
(179,403,o),
(126,392,o),
(83,370,c),
(93,347,l),
(134,370,o),
(182,380,o),
(223,380,cs),
(306,380,o),
(344,346,o),
(344,275,cs),
(344,199,l),
(361,210,l),
(212,210,ls),
(107,210,o),
(60,171,o),
(60,101,cs),
(60,33,o),
(109,-10,o),
(198,-10,cs)
);
},
{
closed = 1;
nodes = (
(125,13,o),
(89,47,o),
(89,101,cs),
(89,155,o),
(123,188,o),
(210,188,cs),
(344,188,l),
(345,150,o),
(353,120,o),
(368,89,c),
(370,97,l),
(325,49,o),
(272,13,o),
(198,13,cs)
);
}
);
width = 788;
},
{
anchors = (
{
name = top;
pos = (370,403);
}
);
background = {
anchors = (
{
name = top;
pos = (370,403);
}
);
shapes = (
{
closed = 1;
nodes = (
(575,-10,o),
(651,13,o),
(694,47,c),
(638,153,l),
(603,129,o),
(564,120,o),
(523,120,cs),
(460,120,o),
(426,147,o),
(426,203,cs),
(426,244,ls),
(426,289,o),
(445,313,o),
(476,313,cs),
(508,313,o),
(526,289,o),
(526,247,c),
(348,247,l),
(348,172,l),
(693,172,l),
(693,203,ls),
(693,330,o),
(611,413,o),
(481,413,cs),
(349,413,o),
(259,329,o),
(259,205,cs),
(259,73,o),
(355,-10,o),
(506,-10,cs)
);
}
);
};
layerId = "EFCDB4D9-E20B-4A8D-9DB5-150AD166B0AE";
shapes = (
{
closed = 1;
nodes = (
(239,-10,o),
(287,10,o),
(349,69,c),
(306,68,l),
(349,19,o),
(415,-10,o),
(506,-10,cs),
(575,-10,o),
(651,13,o),
(694,47,c),
(638,153,l),
(603,129,o),
(564,120,o),
(523,120,cs),
(460,120,o),
(426,147,o),
(426,203,cs),
(426,244,ls),
(426,289,o),
(445,313,o),
(476,313,cs),
(508,313,o),
(526,289,o),
(526,247,c),
(348,247,l),
(348,172,l),
(693,172,l),
(693,203,ls),
(693,330,o),
(611,413,o),
(489,413,cs),
(410,413,o),
(367,382,o),
(333,347,c),
(384,358,l),
(346,397,o),
(311,413,o),
(229,413,cs),
(159,413,o),
(80,398,o),
(22,365,c),
(63,249,l),
(101,272,o),
(144,283,o),
(187,283,cs),
(234,283,o),
(259,267,o),
(259,234,cs),
(259,209,l),
(278,239,l),
(176,239,ls),
(64,239,o),
(14,187,o),
(14,115,cs),
(14,43,o),
(68,-10,o),
(170,-10,cs)
);
},
{
closed = 1;
nodes = (
(201,86,o),
(184,97,o),
(184,119,cs),
(184,142,o),
(201,154,o),
(228,154,cs),
(264,154,l),
(268,135,o),
(275,118,o),
(283,102,c),
(282,120,l),
(266,97,o),
(243,86,o),
(222,86,cs)
);
}
);
width = 714;
},
{
anchors = (
{
name = top;
pos = (358,393);
}
);
associatedMasterId = "98C086B7-81AA-4491-8494-0C6A76849168";
layerId = "9FE869CA-19C8-49A9-B666-187DC6D38634";
name = "Original Regular";
shapes = (
{
closed = 1;
nodes = (
(246.863,-11,o),
(299.624,12.098,o),
(354.028,61.643,c),
(394.297,15.097,o),
(456.578,-12,o),
(528,-12,cs),
(606,-12,o),
(664,22,o),
(700,63,c),
(674,108,l),
(636,72,o),
(585,45,o),
(525,45,cs),
(446.862,45,o),
(391.541,96.548,o),
(383.118,181,c),
(707,181,l),
(707,200,ls),
(707,324,o),
(634,404,o),
(514,404,cs),
(451.758,404,o),
(396.066,380.609,o),
(358.122,339.266,c),
(332,379.304,o),
(282.263,403,o),
(214,403,cs),
(167,403,o),
(102,389,o),
(56,360,c),
(78,312,l),
(121,335,o),
(176,348,o),
(213,348,cs),
(270,348,o),
(306,319,o),
(306,257,cs),
(306,227,l),
(206,227,ls),
(114,227,o),
(39,195,o),
(39,106,cs),
(39,41,o),
(94,-11,o),
(179,-11,c)
);
},
{
closed = 1;
nodes = (
(139,40,o),
(109,70,o),
(109,110,cs),
(109,165,o),
(159,181,o),
(211,181,cs),
(306.474,181,l),
(308.394,150.908,o),
(316.091,123.493,o),
(328.516,99.377,c),
(280.317,58.33,o),
(238.824,40,o),
(190,40,cs)
);
},
{
closed = 1;
nodes = (
(392.091,304.185,o),
(445.548,350,o),
(514,350,cs),
(583,350,o),
(634,305,o),
(634,227,c),
(383.278,227,l)
);
}
);
width = 742;
},
{
anchors = (
{
name = top;
pos = (373,399);
}
);
background = {
shapes = (
{
closed = 1;
nodes = (
(261,-10,o),
(312,17,o),
(368,72,c),
(347,71,l),
(384,22,o),
(449,-10,o),
(541,-10,cs),
(607,-10,o),
(681,14,o),
(726,51,c),
(684,123,l),
(652,95,o),
(600,75,o),
(544,75,cs),
(448,75,o),
(402,124,o),
(402,200,cs),
(402,228,ls),
(402,278,o),
(443,332,o),
(517,332,cs),
(591,332,o),
(631,280,o),
(632,234,c),
(360,234,l),
(360,167,l),
(729,167,l),
(729,200,ls),
(729,315,o),
(648,409,o),
(522,409,cs),
(442,409,o),
(378,372,o),
(349,318,c),
(381,325,l),
(362,383,o),
(301,409,o),
(219,409,cs),
(169,409,o),
(105,395,o),
(53,367,c),
(78,286,l),
(118,309,o),
(163,321,o),
(205,321,cs),
(273,321,o),
(305,294,o),
(305,246,cs),
(305,205,l),
(323,231,l),
(197,231,ls),
(93,231,o),
(37,186,o),
(37,111,cs),
(37,39,o),
(89,-10,o),
(187,-10,cs)
);
},
{
closed = 1;
nodes = (
(163,61,o),
(137,79,o),
(137,112,cs),
(137,147,o),
(165,165,o),
(222,165,cs),
(307,165,l),
(310,141,o),
(317,119,o),
(329,97,c),
(329,124,l),
(299,84,o),
(256,61,o),
(210,61,cs)
);
}
);
};
layerId = "086393EE-48A8-42B6-AE05-10B6A30445E6";
shapes = (
{
closed = 1;
nodes = (
(261,-10,o),
(312,17,o),
(368,72,c),
(347,71,l),
(384,22,o),
(449,-10,o),
(541,-10,cs),
(607,-10,o),
(681,14,o),
(726,51,c),
(684,123,l),
(652,95,o),
(600,75,o),
(544,75,cs),
(448,75,o),
(402,124,o),
(402,200,cs),
(402,228,ls),
(402,278,o),
(443,332,o),
(517,332,cs),
(591,332,o),
(631,280,o),
(632,235,c),
(360,235,l),
(360,162,l),
(729,162,l),
(729,200,ls),
(729,315,o),
(648,409,o),
(522,409,cs),
(442,409,o),
(378,372,o),
(349,318,c),
(381,325,l),
(362,383,o),
(301,409,o),
(219,409,cs),
(169,409,o),
(105,395,o),
(53,367,c),
(78,286,l),
(118,309,o),
(163,321,o),
(205,321,cs),
(273,321,o),
(305,294,o),
(305,246,cs),
(305,205,l),
(323,235,l),
(197,235,ls),
(93,235,o),
(37,186,o),
(37,111,cs),
(37,39,o),
(89,-10,o),
(187,-10,cs)
);
},
{
closed = 1;
nodes = (
(163,68,o),
(137,84,o),
(137,112,cs),
(137,142,o),
(165,162,o),
(222,162,cs),
(308,162,l),
(311,141,o),
(317,118,o),
(329,99,c),
(329,123,l),
(299,88,o),
(256,68,o),
(210,68,cs)
);
}
);
width = 763;
}
);
metricLeft = a;
metricRight = e;
unicode = 230;
userData = {
com.typemytype.robofont.layerData = {
b = {
anchors = (
);
components = (
);
contours = (
);
lib = {
};
name = ae;
unicodes = (
);
width = 1657;
};
};
org.robofab.postScriptHintData = {
};
};
},
{
color = 3;
glyphname = b;
kernLeft = h;
kernRight = o;
layers = (
{
anchors = (
{
name = top;
pos = (281,583);
}
);
background = {
anchors = (
{
name = top;
pos = (281,583);
}
);
shapes = (
{
closed = 1;
nodes = (
(398,-10,o),
(465,73,o),
(465,197,cs),
(465,320,o),
(398,403,o),
(279,403,cs),
(209,403,o),
(149,374,o),
(114,324,c),
(125,332,l),
(125,583,l),
(11,583,l),
(11,561,l),
(96,561,l),
(96,22,l),
(21,22,l),
(21,0,l),
(125,0,l),
(125,64,l),
(114,69,l),
(149,19,o),
(209,-10,o),
(279,-10,cs)
);
},
{
closed = 1;
nodes = (
(208,13,o),
(152,40,o),
(121,86,c),
(125,73,l),
(125,325,l),
(121,307,l),
(152,353,o),
(208,380,o),
(277,380,cs),
(377,380,o),
(436,311,o),
(436,197,cs),
(436,82,o),
(377,13,o),
(277,13,cs)
);
}
);
};
layerId = "98C086B7-81AA-4491-8494-0C6A76849168";
shapes = (
{
closed = 1;
nodes = (
(398,-10,o),
(465,73,o),
(465,197,cs),
(465,320,o),
(398,403,o),
(279,403,cs),
(209,403,o),
(149,374,o),
(114,324,c),
(125,332,l),
(125,583,l),
(11,583,l),
(11,561,l),
(96,561,l),
(96,22,l),
(21,22,l),
(21,0,l),
(125,0,l),
(125,64,l),
(114,69,l),
(149,19,o),
(209,-10,o),
(279,-10,cs)
);
},
{
closed = 1;
nodes = (
(208,13,o),
(152,40,o),
(121,86,c),
(125,73,l),
(125,325,l),
(121,307,l),
(152,353,o),
(208,380,o),
(277,380,cs),
(377,380,o),
(436,311,o),
(436,197,cs),
(436,82,o),
(377,13,o),
(277,13,cs)
);
}
);
width = 512;
},
{
anchors = (
{
name = top;
pos = (287,583);
}
);
background = {
anchors = (
{
name = top;
pos = (145,583);
}
);
shapes = (
{
closed = 1;
nodes = (
(459,-10,o),
(526,70,o),
(526,202,cs),
(526,333,o),
(459,413,o),
(360,413,cs),
(306,413,o),
(254,392,o),
(214,341,c),
(232,332,l),
(232,583,l),
(7,583,l),
(7,473,l),
(57,473,l),
(57,110,l),
(12,110,l),
(12,0,l),
(217,0,l),
(217,80,l),
(214,62,l),
(254,11,o),
(306,-10,o),
(360,-10,cs)
);
},
{
closed = 1;
nodes = (
(271,120,o),
(246,130,o),
(226,155,c),
(232,98,l),
(232,297,l),
(226,248,l),
(246,273,o),
(271,283,o),
(291,283,cs),
(331,283,o),
(356,253,o),
(356,202,cs),
(356,150,o),
(331,120,o),
(291,120,cs)
);
}
);
};
layerId = "EFCDB4D9-E20B-4A8D-9DB5-150AD166B0AE";
shapes = (
{
closed = 1;
nodes = (
(459,-10,o),
(526,70,o),
(526,202,cs),
(526,333,o),
(459,413,o),
(360,413,cs),
(306,413,o),
(254,392,o),
(214,341,c),
(232,332,l),
(232,583,l),
(7,583,l),
(7,473,l),
(57,473,l),
(57,110,l),
(12,110,l),
(12,0,l),
(217,0,l),
(217,80,l),
(214,62,l),
(254,11,o),
(306,-10,o),
(360,-10,cs)
);
},
{
closed = 1;
nodes = (
(271,120,o),
(246,130,o),
(226,155,c),
(232,98,l),
(232,297,l),
(226,248,l),
(246,273,o),
(271,283,o),
(291,283,cs),
(331,283,o),
(356,253,o),
(356,202,cs),
(356,150,o),
(331,120,o),
(291,120,cs)
);
}
);
width = 546;
},
{
anchors = (
{
name = top;
pos = (313,393);
}
);
associatedMasterId = "98C086B7-81AA-4491-8494-0C6A76849168";
layerId = "C50E7E96-F30F-4F08-9575-DD1E8D875204";
name = "Original Regular";
shapes = (
{
closed = 1;
nodes = (
(402,-10,o),
(497,67,o),
(497,202,cs),
(497,332,o),
(412,403,o),
(306,403,cs),
(252,403,o),
(191,380,o),
(148,338,c),
(172,338,l),
(172,573,l),
(27,573,l),
(27,521,l),
(98,521,l),
(98,53,l),
(25,53,l),
(25,0,l),
(172,0,l),
(172,45,l),
(151,55,l),
(187,11,o),
(235,-10,o),
(293,-10,cs)
);
},
{
closed = 1;
nodes = (
(235,45,o),
(183,69,o),
(149,106,c),
(172,65,l),
(172,319,l),
(147,279,l),
(188,324,o),
(240,346,o),
(286,346,cs),
(363,346,o),
(420,292,o),
(420,196,cs),
(420,97,o),
(359,45,o),
(280,45,cs)
);
}
);
width = 522;
},
{
anchors = (
{
name = top;
pos = (284,583);
}
);
background = {
anchors = (
{
name = top;
pos = (284,583);
}
);
shapes = (
{
closed = 1;
nodes = (
(429,-10,o),
(496,72,o),
(496,200,cs),
(496,327,o),
(429,408,o),
(320,408,cs),
(258,408,o),
(202,383,o),
(164,333,c),
(179,332,l),
(179,583,l),
(9,583,l),
(9,517,l),
(77,517,l),
(77,66,l),
(17,66,l),
(17,0,l),
(171,0,l),
(171,72,l),
(164,66,l),
(202,15,o),
(258,-10,o),
(320,-10,cs)
);
},
{
closed = 1;
nodes = (
(240,67,o),
(199,85,o),
(174,121,c),
(179,86,l),
(179,311,l),
(174,278,l),
(199,313,o),
(240,332,o),
(284,332,cs),
(354,332,o),
(396,282,o),
(396,200,cs),
(396,116,o),
(354,67,o),
(284,67,cs)
);
},
{
closed = 1;
nodes = (
(429,-10,o),
(496,71,o),
(496,200,cs),
(496,328,o),
(429,409,o),
(320,409,cs),
(258,409,o),
(202,385,o),
(164,335,c),
(179,332,l),
(179,583,l),
(9,583,l),
(9,506,l),
(77,506,l),
(77,77,l),
(17,77,l),
(17,0,l),
(171,0,l),
(171,74,l),
(164,65,l),
(202,14,o),
(258,-10,o),
(320,-10,cs)
);
},
{
closed = 1;
nodes = (
(240,80,o),
(199,96,o),
(174,129,c),
(179,89,l),
(179,308,l),
(174,270,l),
(199,303,o),
(240,319,o),
(284,319,cs),
(354,319,o),
(396,275,o),
(396,200,cs),
(396,125,o),
(354,80,o),
(284,80,cs)
);
}
);
};
layerId = "086393EE-48A8-42B6-AE05-10B6A30445E6";
shapes = (
{
closed = 1;
nodes = (
(431,-10,o),
(496,94,o),
(496,200,cs),
(496,305,o),
(431,409,o),
(304,409,cs),
(248,409,o),
(192,382,o),
(165,332,c),
(179,332,l),
(179,583,l),
(10,583,l),
(10,506,l),
(77,506,l),
(77,77,l),
(17,77,l),
(17,0,l),
(172,0,l),
(172,73,l),
(165,67,l),
(192,17,o),
(248,-10,o),
(304,-10,cs)
);
},
{
closed = 1;
nodes = (
(244,77,o),
(204,91,o),
(174,129,c),
(179,87,l),
(179,308,l),
(174,270,l),
(204,308,o),
(244,322,o),
(284,322,cs),
(346,322,o),
(397,279,o),
(397,200,cs),
(397,121,o),
(346,77,o),
(284,77,cs)
);
}
);
width = 530;
}
);
metricLeft = h;
metricRight = o;
unicode = 98;
userData = {
com.typemytype.robofont.layerData = {
b = {
anchors = (
);
components = (
);
contours = (
);
lib = {
};
name = b;
unicodes = (
);
width = 1037;
};
};
org.robofab.postScriptHintData = {
};
};
},
{
color = 3;
glyphname = c;
kernLeft = o;
kernRight = c;
layers = (
{
anchors = (
{
name = bottom;
pos = (245,0);
},
{
name = top;
pos = (254,393);
}
);
background = {
anchors = (
{
name = bottom;
pos = (245,0);
},
{
name = top;
pos = (254,393);
}
);
shapes = (
{
closed = 1;
nodes = (
(312,-10,o),
(380,15,o),
(425,57,c),
(409,77,l),
(371,39,o),
(309,13,o),
(258,13,cs),
(142,13,o),
(76,85,o),
(76,196,cs),
(76,310,o),
(138,380,o),
(247,380,cs),
(327,380,o),
(376,345,o),
(389,273,c),
(415,273,l),
(415,393,l),
(389,393,l),
(389,301,l),
(398,303,l),
(379,368,o),
(325,403,o),
(244,403,cs),
(122,403,o),
(47,323,o),
(47,196,cs),
(47,76,o),
(121,-10,o),
(258,-10,cs)
);
}
);
};
layerId = "98C086B7-81AA-4491-8494-0C6A76849168";
shapes = (
{
closed = 1;
nodes = (
(312,-10,o),
(380,15,o),
(425,57,c),
(409,77,l),
(371,39,o),
(309,13,o),
(258,13,cs),
(142,13,o),
(76,85,o),
(76,196,cs),
(76,310,o),
(138,380,o),
(247,380,cs),
(327,380,o),
(376,345,o),
(389,273,c),
(415,273,l),
(415,393,l),
(389,393,l),
(389,301,l),
(398,303,l),
(379,368,o),
(325,403,o),
(244,403,cs),
(122,403,o),
(47,323,o),
(47,196,cs),
(47,76,o),
(121,-10,o),
(258,-10,cs)
);
}
);
width = 467;
},
{
anchors = (
{
name = bottom;
pos = (260,0);
},
{
name = top;
pos = (244,403);
}
);
background = {
anchors = (
{
name = bottom;
pos = (260,0);
},
{
name = top;
pos = (244,403);
}
);
shapes = (
{
closed = 1;
nodes = (
(936,-10,o),
(1001,16,o),
(1039,53,c),
(977,161,l),
(948,134,o),
(913,120,o),
(877,120,cs),
(816,120,o),
(790,153,o),
(790,202,cs),
(790,257,o),
(821,283,o),
(858,283,cs),
(886,283,o),
(909,269,o),
(924,238,c),
(1029,238,l),
(1029,403,l),
(909,403,l),
(909,336,l),
(923,336,l),
(916,382,o),
(869,413,o),
(807,413,cs),
(704,413,o),
(620,335,o),
(620,205,cs),
(620,75,o),
(712,-10,o),
(855,-10,cs)
);
},
{
closed = 1;
nodes = (
(394,-10,o),
(488,75,o),
(488,202,cs),
(488,329,o),
(394,413,o),
(254,413,cs),
(114,413,o),
(20,329,o),
(20,202,cs),
(20,75,o),
(114,-10,o),
(254,-10,cs)
);
},
{
closed = 1;
nodes = (
(215,120,o),
(190,151,o),
(190,202,cs),
(190,253,o),
(215,283,o),
(254,283,cs),
(293,283,o),
(318,253,o),
(318,202,cs),
(318,151,o),
(293,120,o),
(254,120,cs)
);
}
);
};
layerId = "EFCDB4D9-E20B-4A8D-9DB5-150AD166B0AE";
shapes = (
{
closed = 1;
nodes = (
(325,-10,o),
(392,13,o),
(437,53,c),
(377,161,l),
(343,134,o),
(308,120,o),
(277,120,cs),
(216,120,o),
(190,153,o),
(190,203,cs),
(190,255,o),
(221,283,o),
(258,283,cs),
(286,283,o),
(309,269,o),
(324,238,c),
(429,238,l),
(429,403,l),
(309,403,l),
(309,336,l),
(323,336,l),
(316,382,o),
(269,413,o),
(207,413,cs),
(104,413,o),
(20,335,o),
(20,205,cs),
(20,75,o),
(112,-10,o),
(255,-10,cs)
);
}
);
width = 451;
},
{
anchors = (
{
name = bottom;
pos = (240,0);
},
{
name = top;
pos = (244,393);
}
);
associatedMasterId = "98C086B7-81AA-4491-8494-0C6A76849168";
layerId = "686E52F9-4333-43AC-B21E-FA60C10D74B3";
name = "Original Regular";
shapes = (
{
closed = 1;
nodes = (
(323,-10,o),
(384,24,o),
(423,75,c),
(392,120,l),
(356,79,o),
(317,48,o),
(247,48,cs),
(162,48,o),
(103,111,o),
(103,201,cs),
(103,285,o),
(163,346,o),
(249,346,cs),
(311,346,o),
(356,311,o),
(368,254,c),
(424,254,l),
(424,395,l),
(362,395,l),
(362,314,l),
(376,314,l),
(363,365,o),
(309,404,o),
(232,404,cs),
(112,404,o),
(26,320,o),
(26,199,cs),
(26,77,o),
(115,-10,o),
(240,-10,cs)
);
}
);
width = 469;
},
{
anchors = (
{
name = bottom;
pos = (253,0);
},
{
name = top;
pos = (249,399);
}
);
background = {
anchors = (
{
name = bottom;
pos = (253,0);
},
{
name = top;
pos = (249,398);
}
);
shapes = (
{
closed = 1;
nodes = (
(819,-10,o),
(886,14,o),
(931,55,c),
(893,119,l),
(857,87,o),
(809,67,o),
(768,67,cs),
(679,67,o),
(633,119,o),
(633,200,cs),
(633,283,o),
(680,332,o),
(753,332,cs),
(807,332,o),
(843,307,o),
(857,256,c),
(922,256,l),
(922,398,l),
(849,398,l),
(849,319,l),
(861,320,l),
(848,375,o),
(797,408,o),
(726,408,cs),
(613,408,o),
(534,329,o),
(534,201,cs),
(534,76,o),
(617,-10,o),
(757,-10,cs)
);
},
{
closed = 1;
nodes = (
(381,-10,o),
(468,83,o),
(468,200,cs),
(468,317,o),
(381,409,o),
(251,409,cs),
(121,409,o),
(34,317,o),
(34,200,cs),
(34,83,o),
(120,-10,o),
(251,-10,cs)
);
},
{
closed = 1;
nodes = (
(179,77,o),
(133,129,o),
(133,200,cs),
(133,271,o),
(179,322,o),
(251,322,cs),
(322,322,o),
(369,271,o),
(369,200,cs),
(369,129,o),
(322,77,o),
(251,77,cs)
);
}
);
};
layerId = "086393EE-48A8-42B6-AE05-10B6A30445E6";
shapes = (
{
closed = 1;
nodes = (
(319,-10,o),
(392,14,o),
(431,55,c),
(385,126,l),
(357,98,o),
(309,75,o),
(263,75,cs),
(179,75,o),
(133,129,o),
(133,200,cs),
(133,271,o),
(171,322,o),
(248,322,cs),
(303,322,o),
(341,298,o),
(357,251,c),
(422,251,l),
(422,399,l),
(349,399,l),
(349,323,l),
(361,324,l),
(357,376,o),
(297,409,o),
(237,409,cs),
(109,409,o),
(34,313,o),
(34,202,cs),
(34,83,o),
(118,-10,o),
(257,-10,cs)
);
}
);
width = 459;
}
);
metricLeft = o;
unicode = 99;
userData = {
com.typemytype.robofont.layerData = {
b = {
anchors = (
);
components = (
);
contours = (
{
points = (
{
smooth = 0;
x = 633;
y = "-14";
},
{
smooth = 0;
x = 758;
y = 33;
},
{
segmentType = curve;
smooth = 0;
x = 868;
y = 142;
},
{
segmentType = line;
smooth = 0;
x = 845;
y = 213;
},
{
smooth = 0;
x = 763;
y = 105;
},
{
smooth = 0;
x = 637;
y = 51;
},
{
segmentType = curve;
smooth = 1;
x = 515;
y = 51;
},
{
smooth = 0;
x = 316;
y = 51;
},
{
smooth = 0;
x = 169;
y = 193;
},
{
segmentType = curve;
smooth = 1;
x = 169;
y = 406;
},
{
smooth = 0;
x = 169;
y = 630;
},
{
smooth = 0;
x = 336;
y = 755;
},
{
segmentType = curve;
smooth = 1;
x = 515;
y = 755;
},
{
smooth = 0;
x = 705;
y = 755;
},
{
smooth = 0;
x = 768;
y = 657;
},
{
segmentType = curve;
smooth = 0;
x = 776;
y = 570;
},
{
segmentType = line;
smooth = 0;
x = 840;
y = 570;
},
{
segmentType = line;
smooth = 0;
x = 840;
y = 825;
},
{
segmentType = line;
smooth = 0;
x = 767;
y = 825;
},
{
segmentType = line;
smooth = 0;
x = 767;
y = 714;
},
{
smooth = 0;
x = 736;
y = 764;
},
{
smooth = 0;
x = 645;
y = 819;
},
{
segmentType = curve;
smooth = 1;
x = 522;
y = 819;
},
{
smooth = 0;
x = 268.968;
y = 819;
},
{
smooth = 0;
x = 90;
y = 650;
},
{
segmentType = curve;
smooth = 1;
x = 90;
y = 406;
},
{
smooth = 0;
x = 90;
y = 145;
},
{
smooth = 0;
x = 286;
y = "-14";
},
{
segmentType = curve;
smooth = 1;
x = 515;
y = "-14";
}
);
}
);
lib = {
};
name = c;
unicodes = (
);
width = 956;
};
};
org.robofab.postScriptHintData = {
};
};
},
{
color = 3;
glyphname = d;
kernLeft = o;
kernRight = d;
layers = (
{
anchors = (
{
name = bottom;
pos = (282,0);
},
{
name = mid;
pos = (341,469);
},
{
name = top;
pos = (242,583);
},
{
name = topright;
pos = (456,583);
}
);
background = {
anchors = (
{
name = bottom;
pos = (282,0);
},
{
name = mid;
pos = (341,469);
},
{
name = top;
pos = (242,583);
},
{
name = topright;
pos = (456,583);
}
);
shapes = (
{
closed = 1;
nodes = (
(303,-10,o),
(363,19,o),
(398,69,c),
(387,61,l),
(387,0,l),
(491,0,l),
(491,22,l),
(416,22,l),
(416,583,l),
(302,583,l),
(302,561,l),
(387,561,l),
(387,332,l),
(398,324,l),
(363,374,o),
(303,403,o),
(233,403,cs),
(114,403,o),
(47,320,o),
(47,197,cs),
(47,73,o),
(114,-10,o),
(233,-10,cs)
);
},
{
closed = 1;
nodes = (
(135,13,o),
(76,82,o),
(76,197,cs),
(76,311,o),
(135,380,o),
(235,380,cs),
(304,380,o),
(360,353,o),
(391,307,c),
(387,325,l),
(387,68,l),
(391,86,l),
(360,40,o),
(304,13,o),
(235,13,cs)
);
}
);
};
guides = (
{
angle = 270;
pos = (491,11);
}
);
layerId = "98C086B7-81AA-4491-8494-0C6A76849168";
shapes = (
{
closed = 1;
nodes = (
(303,-10,o),
(363,19,o),
(398,69,c),
(387,61,l),
(387,0,l),
(491,0,l),
(491,22,l),
(416,22,l),
(416,583,l),
(302,583,l),
(302,561,l),
(387,561,l),
(387,332,l),
(398,324,l),
(363,374,o),
(303,403,o),
(233,403,cs),
(114,403,o),
(47,320,o),
(47,197,cs),
(47,73,o),
(114,-10,o),
(233,-10,cs)
);
},
{
closed = 1;
nodes = (
(135,13,o),
(76,82,o),
(76,197,cs),
(76,311,o),
(135,380,o),
(235,380,cs),
(304,380,o),
(360,353,o),
(391,307,c),
(387,325,l),
(387,68,l),
(391,86,l),
(360,40,o),
(304,13,o),
(235,13,cs)
);
}
);
width = 512;
},
{
anchors = (
{
name = bottom;
pos = (290,0);
},
{
name = mid;
pos = (403,431);
},
{
name = top;
pos = (225,583);
},
{
name = topright;
pos = (519,583);
}
);
background = {
anchors = (
{
name = bottom;
pos = (290,0);
},
{
name = mid;
pos = (403,431);
},
{
name = top;
pos = (402,583);
},
{
name = topright;
pos = (519,583);
}
);
shapes = (
{
closed = 1;
nodes = (
(840,-10,o),
(892,11,o),
(932,62,c),
(929,80,l),
(929,0,l),
(1134,0,l),
(1134,110,l),
(1089,110,l),
(1089,583,l),
(864,583,l),
(864,473,l),
(914,473,l),
(914,332,l),
(932,341,l),
(892,392,o),
(840,413,o),
(786,413,cs),
(687,413,o),
(620,333,o),
(620,202,cs),
(620,70,o),
(687,-10,o),
(786,-10,cs)
);
},
{
closed = 1;
nodes = (
(815,120,o),
(790,150,o),
(790,202,cs),
(790,253,o),
(815,283,o),
(855,283,cs),
(875,283,o),
(900,273,o),
(920,248,c),
(914,297,l),
(914,98,l),
(920,155,l),
(900,130,o),
(875,120,o),
(855,120,cs)
);
},
{
closed = 1;
nodes = (
(272,-10,o),
(323,20,o),
(367,65,c),
(322,46,l),
(327,0,l),
(531,0,l),
(531,100,l),
(487,100,l),
(487,593,l),
(252,593,l),
(252,493,l),
(312,493,l),
(312,332,l),
(337,341,l),
(313,383,o),
(269,413,o),
(199,413,cs),
(92,413,o),
(19,327,o),
(19,204,cs),
(19,75,o),
(88,-10,o),
(199,-10,cs)
);
},
{
closed = 1;
nodes = (
(225,120,o),
(199,154,o),
(199,201,cs),
(199,255,o),
(226,283,o),
(269,283,cs),
(299,283,o),
(318,270,o),
(334,242,c),
(312,297,l),
(312,98,l),
(339,154,l),
(318,131,o),
(297,120,o),
(267,120,cs)
);
}
);
};
layerId = "EFCDB4D9-E20B-4A8D-9DB5-150AD166B0AE";
shapes = (
{
closed = 1;
nodes = (
(240,-10,o),
(292,11,o),
(332,62,c),
(329,80,l),
(329,0,l),
(534,0,l),
(534,110,l),
(489,110,l),
(489,583,l),
(264,583,l),
(264,473,l),
(314,473,l),
(314,332,l),
(332,341,l),
(292,392,o),
(240,413,o),
(186,413,cs),
(87,413,o),
(20,333,o),
(20,202,cs),
(20,70,o),
(87,-10,o),
(186,-10,cs)
);
},
{
closed = 1;
nodes = (
(215,120,o),
(190,150,o),
(190,202,cs),
(190,253,o),
(215,283,o),
(255,283,cs),
(275,283,o),
(300,273,o),
(320,248,c),
(314,297,l),
(314,98,l),
(320,155,l),
(300,130,o),
(275,120,o),
(255,120,cs)
);
}
);
width = 546;
},
{
anchors = (
{
name = bottom;
pos = (265,0);
},
{
name = mid;
pos = (389,459);
},
{
name = top;
pos = (391,573);
},
{
name = topright;
pos = (468,573);
}
);
associatedMasterId = "98C086B7-81AA-4491-8494-0C6A76849168";
layerId = "CB425E2D-075B-46A2-9AEA-50B15947527C";
name = "Original Regular";
shapes = (
{
closed = 1;
nodes = (
(290,-11,o),
(338,10,o),
(377,48,c),
(354,52,l),
(354,0,l),
(490,0,l),
(490,53,l),
(428,53,l),
(428,573,l),
(284,573,l),
(284,521,l),
(354,521,l),
(354,335,l),
(378,344,l),
(335,381,o),
(277,403,o),
(221,403,cs),
(117,403,o),
(28,330,o),
(28,197,cs),
(28,66,o),
(121,-11,o),
(229,-11,cs)
);
},
{
closed = 1;
nodes = (
(167,45,o),
(105,97,o),
(105,191,cs),
(105,292,o),
(160,347,o),
(236,347,cs),
(283,347,o),
(338,326,o),
(379,290,c),
(354,326,l),
(354,66,l),
(379,100,l),
(341,67,o),
(297,45,o),
(245,45,cs)
);
}
);
width = 513;
},
{
anchors = (
{
name = bottom;
pos = (286,0);
},
{
name = mid;
pos = (372,445);
},
{
name = top;
pos = (234,583);
},
{
name = topright;
pos = (488,583);
}
);
background = {
anchors = (
{
name = bottom;
pos = (286,0);
},
{
name = mid;
pos = (372,450);
},
{
name = top;
pos = (234,583);
},
{
name = topright;
pos = (488,583);
}
);
shapes = (
{
closed = 1;
nodes = (
(972,-10,o),
(1028,15,o),
(1065,66,c),
(1058,71,l),
(1058,0,l),
(1213,0,l),
(1213,66,l),
(1153,66,l),
(1153,583,l),
(983,583,l),
(983,517,l),
(1051,517,l),
(1051,332,l),
(1065,333,l),
(1028,383,o),
(972,408,o),
(910,408,cs),
(801,408,o),
(734,327,o),
(734,200,cs),
(734,72,o),
(801,-10,o),
(910,-10,cs)
);
},
{
closed = 1;
nodes = (
(875,67,o),
(833,116,o),
(833,200,cs),
(833,282,o),
(875,332,o),
(945,332,cs),
(990,332,o),
(1030,313,o),
(1056,278,c),
(1051,311,l),
(1051,83,l),
(1056,121,l),
(1030,85,o),
(990,67,o),
(945,67,cs)
);
},
{
closed = 1;
nodes = (
(272,-10,o),
(328,14,o),
(365,65,c),
(358,73,l),
(358,0,l),
(513,0,l),
(513,77,l),
(453,77,l),
(453,583,l),
(283,583,l),
(283,506,l),
(351,506,l),
(351,332,l),
(365,335,l),
(328,385,o),
(272,409,o),
(210,409,cs),
(101,409,o),
(34,328,o),
(34,200,cs),
(34,71,o),
(101,-10,o),
(210,-10,cs)
);
},
{
closed = 1;
nodes = (
(175,80,o),
(133,125,o),
(133,200,cs),
(133,275,o),
(175,319,o),
(245,319,cs),
(290,319,o),
(330,303,o),
(356,270,c),
(351,308,l),
(351,87,l),
(356,129,l),
(330,96,o),
(290,80,o),
(245,80,cs)
);
}
);
};
layerId = "086393EE-48A8-42B6-AE05-10B6A30445E6";
shapes = (
{
closed = 1;
nodes = (
(282,-10,o),
(338,17,o),
(365,67,c),
(358,73,l),
(358,0,l),
(513,0,l),
(513,77,l),
(453,77,l),
(453,583,l),
(284,583,l),
(284,506,l),
(351,506,l),
(351,332,l),
(365,332,l),
(338,382,o),
(282,409,o),
(226,409,cs),
(99,409,o),
(34,305,o),
(34,200,cs),
(34,94,o),
(99,-10,o),
(226,-10,cs)
);
},
{
closed = 1;
nodes = (
(184,77,o),
(133,121,o),
(133,200,cs),
(133,279,o),
(184,322,o),
(246,322,cs),
(286,322,o),
(326,308,o),
(356,270,c),
(351,308,l),
(351,87,l),
(356,129,l),
(326,91,o),
(286,77,o),
(246,77,cs)
);
}
);
width = 530;
}
);
metricLeft = o;
metricRight = l;
unicode = 100;
userData = {
com.typemytype.robofont.layerData = {
b = {
anchors = (
);
components = (
);
contours = (
);
lib = {
};
name = d;
unicodes = (
);
width = 1011;
};
};
org.robofab.postScriptHintData = {
};
};
},
